<svg xmlns:xlink="http://www.w3.org/1999/xlink" baseProfile="basic" width="120" height="110" xmlns="http://www.w3.org/2000/svg"><defs><symbol id="d" overflow="visible"><path fill="none" stroke="#0E2D38" stroke-width="2" stroke-linecap="round" stroke-linejoin="round" d="M17.9 2.2l7.05-1.1M-.2 8.25l5.55-4.8"/></symbol><symbol id="c" overflow="visible"><path fill="none" stroke="#0E2D38" stroke-width="2" stroke-linecap="round" stroke-linejoin="round" d="M27.581 3.228Q26.366.26 22.688-.013M-.036 8.43q-.058-3.222 3.241-4.893"/></symbol><symbol id="b" overflow="visible"><path fill="none" stroke="#0E2D38" stroke-width="2" stroke-linecap="round" stroke-linejoin="round" d="M26 5.15v.45q0 2.35-1.45 4T21 11.25q-2.1 0-3.55-1.65-1.5-1.65-1.5-4 0-.25.05-.45M.85 5.6q0-.25.05-.45m-.05.45q0 2.35 1.5 4 1.45 1.65 3.55 1.65 2.1 0 3.55-1.65 1.45-1.65 1.45-4v-.45"/></symbol><symbol id="a" overflow="visible"><path fill="#FFF" d="M9.7 10.15q1.85-1.4 2-3.8.15-2.4-1.55-4.3Q8.7.4 6.25.25q-2.4-.15-4.3 1.3Q.15 3.2 0 5.6-.15 8 1.5 9.65q1.6 1.95 4 2.1 2.45.15 4.2-1.6"/><path fill="#0E2D38" d="M7.2 5.05L8.7 3.3q-.95-.95-2.5-1.05-1.6-.1-2.85.85-1.2 1.1-1.3 2.7-.1 1.6 1 2.7Q4.1 9.8 5.7 9.9q1.65.1 2.8-1.05Q9.75 7.9 9.85 6.3q.05-.5-.05-.9l-2.6-.35"/><path fill="#FFF" d="M16.5 9.4q1.6 1.95 4 2.1 2.45.15 4.2-1.6 1.85-1.4 2-3.8.15-2.4-1.55-4.3Q23.7.15 21.25 0q-2.4-.15-4.3 1.3-1.8 1.65-1.95 4.05-.15 2.4 1.5 4.05"/><path fill="#0E2D38" d="M23.85 2.95Q22.9 2 21.35 1.9q-1.6-.1-2.85.85-1.2 1.1-1.3 2.7-.1 1.6 1 2.7 1.05 1.3 2.65 1.4 1.65.1 2.8-1.05Q24.9 7.55 25 5.95q.05-.5-.05-.9l-2.6-.35 1.5-1.75"/></symbol></defs><path fill="#999" d="M81.35 98.7q0-.05-.15-.15-.1-.05-.3-.05-.15 0-.3.05-.1.1-.1.15 0 .1.1.15.15.05.3.05.2 0 .3-.05.15-.05.15-.15M42.6 97.3q-.1.05-.1.15 0 .1.1.15.15.05.35.05.15 0 .3-.05.1-.05.1-.15 0-.1-.1-.15-.15-.05-.3-.05-.2 0-.35.05m-1.1.65q-.15 0-.3.05t-.15.15q0 .05.15.15.15.05.3.05.2 0 .3-.05.15-.1.15-.15 0-.1-.15-.15-.1-.05-.3-.05m3.9.3q-.2 0-.35.05-.1.1-.1.15 0 .1.1.15.15.05.35.05.15 0 .25-.05.15-.05.15-.15 0-.05-.15-.15-.1-.05-.25-.05m4.85-2.7q-.15 0-.3.05-.1.1-.1.15 0 .1.1.15.15.05.3.05.2 0 .3-.05.15-.05.15-.15 0-.05-.15-.15-.1-.05-.3-.05m-3.9-1.65q-.1.1-.1.15 0 .1.1.15.15.05.3.05.2 0 .3-.05.15-.05.15-.15 0-.05-.15-.15-.1-.05-.3-.05-.15 0-.3.05m1.3 2.95q.15.05.3.05.2 0 .3-.05.15-.05.15-.15 0-.05-.15-.15-.1-.05-.3-.05-.15 0-.3.05-.1.1-.1.15 0 .1.1.15m-1.3 1.95q-.15.1-.15.15 0 .1.15.15.15.05.3.05.2 0 .3-.05.15-.05.15-.15 0-.05-.15-.15-.1-.05-.3-.05-.15 0-.3.05m3.4-2.4q-.15 0-.3.05-.1.1-.1.15 0 .1.1.15.15.05.3.05.2 0 .3-.05.15-.05.15-.15 0-.05-.15-.15-.1-.05-.3-.05m-.6-.05q-.15-.05-.3-.05-.2 0-.3.05-.15.1-.15.15 0 .1.15.15.1.05.3.05.15 0 .3-.05.1-.05.1-.15 0-.05-.1-.15m.2 1.85q-.2 0-.35.05-.1.1-.1.15 0 .1.1.15.15.05.35.05h.2q-.1.05-.1.1 0 .1.1.15.15.05.35.05.15 0 .25-.05.15-.05.15-.15 0-.05-.15-.1-.1-.1-.25-.1-.2 0-.3.1v-.05q.15-.05.15-.15 0-.05-.15-.15-.1-.05-.25-.05m2.05-3.5q.15.05.3.05.2 0 .3-.05.15-.05.15-.15 0-.05-.15-.1-.1-.1-.3-.1-.15 0-.3.1-.15.05-.15.1 0 .1.15.15m.35.9q-.1.05-.1.15 0 .05.1.1.15.1.35.1.15 0 .3-.1.1-.05.1-.1 0-.1-.1-.15-.15-.05-.3-.05-.2 0-.35.05m1.15-.5q.15 0 .25-.05.15-.05.15-.15 0-.05-.15-.15-.1-.05-.25-.05-.2 0-.35.05-.1.1-.1.15 0 .1.1.15.15.05.35.05m-.7 2.05q.15-.05.15-.15 0-.05-.15-.15-.1-.05-.25-.05-.2 0-.35.05-.1.1-.1.15 0 .1.1.15.15.05.35.05.15 0 .25-.05m-.6 1.15q-.1.05-.1.15 0 .05.1.1.143.096.275.1h-.125q-.1.1-.1.15-.1.05-.1.15 0 .1.1.15.15.05.3.05.2 0 .3-.05.15-.05.15-.15.1-.05.1-.15 0-.05-.1-.15-.148-.049-.3-.05.052-.002.1-.05.15-.05.15-.1 0-.1-.15-.15-.1-.05-.3-.05-.15 0-.3.05m.05-.6q0 .1.1.15.15.05.3.05.2 0 .3-.05.15-.05.15-.15 0-.1-.15-.15-.1-.05-.3-.05-.15 0-.3.05-.1.05-.1.15m1.25.1q-.15 0-.3.05-.1.05-.1.15 0 .1.1.15.15.05.3.05.2 0 .3-.05.15-.05.15-.15 0-.05-.05-.1.15.05.3.05h.05q-.05.05-.05.1 0 .1.15.15.1.05.3.05.15 0 .3-.05t.15-.15q0-.05-.15-.15-.15-.05-.3-.05h-.1q.05-.05.05-.1t-.15-.15q-.1-.05-.25-.05-.2 0-.35.05-.1.1-.1.15 0 .05.05.1-.15-.05-.3-.05"/><path fill="#999" d="M52.45 98.4q-.1.05-.1.15 0 .05.1.1.15.1.3.1.2 0 .3-.1.15-.05.15-.1 0-.1-.15-.15-.1-.05-.3-.05-.15 0-.3.05m3.1-2q-.2 0-.35.05-.1.05-.1.15 0 .1.1.15.15.05.35.05.15 0 .25-.05.15-.05.15-.15 0-.1-.15-.15-.1-.05-.25-.05m-.8 1.85q-.15 0-.3.05-.1.05-.1.15 0 .1.1.15.15.05.3.05.2 0 .3-.05.15-.05.15-.15 0-.1-.15-.15-.1-.05-.3-.05m2 .7q-.1-.05-.3-.05-.15 0-.3.05-.1.05-.1.15l-.05-.05q-.1-.05-.3-.05-.15 0-.3.05-.1.1-.1.15 0 .1.1.15.15.05.3.05.2 0 .3-.05.15-.05.15-.1.15.05.3.05.2 0 .3-.05.15-.05.15-.15 0-.1-.15-.15M57 97.9q0 .1.1.15.15.05.3.05.2 0 .3-.05.15-.05.15-.15 0-.1-.15-.15-.1-.05-.3-.05-.15 0-.3.05-.1.05-.1.15m2.1.25q.15 0 .3-.05t.15-.15q0-.1-.15-.15-.1-.05-.2-.05 0-.05-.1-.05-.15-.1-.3-.1t-.3.1q-.1.05-.15.1-.15.1-.15.15 0 .1.15.15.15.05.3.05h.45m-.35.5q-.1.1-.1.15 0 .1.1.15.15.05.35.05.15 0 .25-.05.15-.05.15-.15 0-.05-.15-.15-.1-.05-.25-.05-.2 0-.35.05m1.5-.6q0 .1.1.15.15.05.3.05.2 0 .3-.05.15-.05.15-.15 0-.05-.15-.1-.1-.05-.25-.1.05 0 .05-.05 0-.1-.15-.15-.15-.05-.3-.05t-.3.05q-.15.05-.15.15 0 .05.15.15.1.05.25.05v.05m-.2.35q-.2 0-.35.05-.1.05-.1.15 0 .05.1.1.15.1.35.1.15 0 .25-.1.15-.05.15-.1 0-.1-.15-.15-.1-.05-.25-.05m1.65-3.25q-.1-.05-.3-.05-.15 0-.3.05-.1.05-.1.15 0 .1.1.15.15.05.3.05.2 0 .3-.05.15-.05.15-.15 0-.1-.15-.15m-.65 2.05q0 .05.1.1.15.1.3.1.2 0 .3-.1.15-.05.15-.1 0-.1-.15-.15-.1-.05-.3-.05-.15 0-.3.05-.1.05-.1.15m.8.8q0 .1.15.15.15.05.3.05t.3-.05q.15-.05.15-.15 0-.05-.15-.1-.15-.1-.3-.1t-.3.1q-.15.05-.15.1m3.05-1.85q-.1-.05-.3-.05-.15 0-.3.05-.1.05-.1.15 0 .05.1.1.15.1.3.1.2 0 .3-.1.15-.05.15-.1 0-.1-.15-.15m.5.7q0 .1.1.15.15.05.35.05.15 0 .3-.05.1-.05.1-.15 0-.05-.1-.15-.15-.05-.3-.05-.2 0-.35.05-.1.1-.1.15m.1 1.1q-.1-.05-.25-.05-.2 0-.35.05-.1.05-.1.15 0 .1.1.15.1.05.25.05-.15.05-.15.15 0 .05.15.1.15.1.3.1.2 0 .3-.1.15-.05.15-.1v-.05q.15.05.35.05.15 0 .25-.05.15-.05.15-.15 0-.05-.15-.15-.1-.05-.25-.05-.2 0-.35.05-.1.1-.1.15 0 .048.05.1-.052-.05-.1-.05-.1-.05-.2-.05.1-.05.1-.15 0-.1-.15-.15m3.6-2.15q0-.1-.1-.15-.15-.05-.3-.05-.2 0-.3.05-.15.05-.15.15-.05.05-.05.15 0 .05.1.1l.2.1q-.05 0-.05.05 0 .1.1.15.15.05.35.05.15 0 .3-.05.1-.05.1-.15 0-.05-.1-.15-.1 0-.2-.05.05 0 .05-.05v-.05q.05-.05.05-.1m-.95.9q-.2 0-.3.05-.15.05-.15.15 0 .05.15.1.1.1.3.1.15 0 .3-.1.1-.05.1-.1v-.05q.2 0 .3-.05.15-.05.15-.15 0-.05-.15-.15-.1-.05-.3-.05-.15 0-.3.05-.1.1-.1.15v.05m.05.5q-.15.05-.15.15 0 .05.15.15.15.05.3.05.2 0 .3-.05.15-.1.15-.15 0-.1-.15-.15-.1-.05-.3-.05-.15 0-.3.05m-1.9 1.75q-.15-.1-.3-.1-.2 0-.3.1-.15.05-.15.1 0 .1.15.15.1.1.3.1.15 0 .3-.1.1-.05.1-.15 0-.05-.1-.1m3.8-2.5q-.1.05-.1.15 0 .05.1.1.15.1.3.1.2 0 .3-.1.15-.05.15-.1 0-.1-.15-.15-.1-.05-.3-.05-.15 0-.3.05m3.5-1.1q0 .1.1.15-.15 0-.3.1-.1.05-.1.1 0 .1.1.15.15.05.3.05.2 0 .3-.05.15-.05.15-.15 0-.05-.15-.1 0-.048-.05-.05h.1q.15 0 .3-.05.1-.05.1-.15 0-.1-.1-.15-.15-.05-.3-.05-.2 0-.35.05-.1.05-.1.15m1.35-.1q-.15.05-.15.15 0 .05.15.1.1.1.3.1.15 0 .3-.1.1-.05.1-.1 0-.1-.1-.15-.15-.1-.3-.1-.2 0-.3.1m-3.3.3q.15 0 .3-.05.1-.05.1-.15 0-.05-.1-.15-.15-.05-.3-.05-.2 0-.3.05-.15.1-.15.15 0 .1.15.15.1.05.3.05m.65 1.3q-.2 0-.35.05-.1.05-.1.15 0 .1.1.15.15.05.35.05.15 0 .25-.05.15-.05.15-.15 0-.1-.15-.15-.1-.05-.25-.05m1.5-.2q.2 0 .3-.05.15-.1.15-.15 0-.1-.15-.15-.1-.05-.3-.05-.15 0-.3.05-.1.05-.1.15 0 .05.1.15.15.05.3.05m.75.9q-.1.05-.1.15 0 .05.1.15.15.05.35.05.15 0 .25-.05.15-.1.15-.15 0-.1-.15-.15-.1-.05-.25-.05-.2 0-.35.05m3.05-.6h-.05q-.05-.05-.15-.1-.1-.05-.3-.05-.15 0-.3.05-.1.05-.1.15 0 .1.1.15.15.05.3.05h.05l.1.1q.15.05.35.05.15 0 .3-.05.1-.1.1-.15 0-.1-.1-.15-.15-.05-.3-.05m.25 1.1q.2 0 .3-.05.15-.05.15-.15 0-.1-.15-.15-.1-.05-.3-.05-.15 0-.3.05-.1.05-.1.15 0 .1.1.15.15.05.3.05m2.35-.75q-.1-.05-.25-.05-.2 0-.35.05-.1.05-.1.15 0 .1.1.15.15.05.35.05.15 0 .25-.05.15-.05.15-.15 0-.1-.15-.15m-.75.65q-.15.1-.15.15 0 .1.15.15.1.05.3.05.15 0 .3-.05.1-.05.1-.15 0-.05-.1-.15-.15-.05-.3-.05-.2 0-.3.05"/><path fill="#999" d="M79.6 98.3q-.15 0-.3.05-.15.1-.15.15 0 .1.15.15.15.05.3.05t.3-.05q.15-.05.15-.15.15.1.3.1.2 0 .3-.1.15-.05.15-.1 0-.1-.15-.15-.1-.05-.3-.05-.15 0-.3.05-.1.05-.1.15-.05 0-.05-.05-.15-.05-.3-.05m.5 1.85q-.15 0-.25.05-.15.05-.15.15 0 .1.15.15.15.05.3.05t.3-.05q.15-.05.15-.15 0-.05-.1-.15.1 0 .2-.05.05 0 .1-.05h.2q.15 0 .25-.05.15-.1.15-.15 0-.1-.15-.15-.1-.05-.25-.05-.2 0-.35.05l-.1.1q-.05-.05-.15-.05-.2 0-.3.1-.15.05-.15.1 0 .1.15.15m.8.15q-.1.05-.1.15 0 .1.1.15h.05q.05.1.15.15.1.05.3.05h.25v.05q0 .05.1.1.15.1.35.1.15 0 .25-.1.15-.05.15-.1 0-.1-.1-.15 0-.1-.15-.15-.1-.05-.3-.05h-.2l-.05-.05h-.05q0-.1-.15-.15-.1-.05-.3-.05-.15 0-.3.05m-2 .1q-.1-.05-.3-.05-.15 0-.3.05-.1.05-.1.15 0 .05.1.15.15.05.3.05.2 0 .3-.05.15-.1.15-.15 0-.1-.15-.15m.05.95q.15-.05.15-.15 0-.05-.15-.15-.1-.05-.3-.05-.15 0-.3.05-.1.1-.1.15 0 .1.1.15.15.05.3.05.2 0 .3-.05m-2.2-1.7q.15-.05.15-.15 0-.05-.15-.1-.1-.1-.25-.1-.2 0-.35.1-.1.05-.1.1 0 .1.1.15.15.05.35.05.15 0 .25-.05m-.55.35q.15-.05.15-.15 0-.1-.15-.15-.1-.05-.3-.05-.15 0-.3.05-.1.05-.1.15 0 .1.1.15.15.05.3.05.2 0 .3-.05m.6 1q-.1.1-.1.15 0 .1.1.15.15.05.3.05.2 0 .3-.05.15-.05.15-.15 0-.05-.15-.15-.1-.05-.3-.05-.15 0-.3.05m1.4 1.9q.15-.05.15-.15 0-.05-.15-.15-.1-.05-.3-.05-.15 0-.3.05-.1.1-.1.15 0 .1.1.15.15.05.3.05.2 0 .3-.05m2.5-.35q0 .1.1.15.15.05.3.05.2 0 .3-.05.15-.05.15-.15 0-.05-.15-.15-.1-.05-.3-.05-.15 0-.3.05-.1.1-.1.15m-.55.6q0 .05.15.1.15.1.3.1t.3-.1q.15-.05.15-.1 0-.1-.15-.15-.15-.05-.3-.05t-.3.05q-.15.05-.15.15m0 .45q0-.1-.15-.15-.1-.05-.3-.05-.15 0-.3.05t-.15.15q0 .05.15.1.15.1.3.1t.25-.05q0 .1.15.15.1.05.3.05.15 0 .3-.05.1-.05.1-.15 0-.1-.1-.15-.15-.05-.3-.05t-.25.05m-.05 1.35q.15 0 .25-.05.15-.05.15-.15 0-.05-.15-.1-.1-.1-.25-.1-.2 0-.35.1-.1.05-.1.1 0 .1.1.15.15.05.35.05M75 99.5q.2 0 .3-.05.15-.05.15-.15 0-.05-.15-.15-.1-.05-.3-.05-.15 0-.3.05-.1.1-.1.15 0 .1.1.15.15.05.3.05m-.5.55q-.1-.05-.3-.05-.15 0-.3.05-.1.1-.1.15 0 .1.1.15.15.05.3.05.2 0 .3-.05.15-.05.15-.15 0-.05-.15-.15m-.55 1.5q0-.05-.1-.1-.15-.1-.3-.1-.2 0-.35.1-.1.05-.1.1 0 .1.1.15.15.05.35.05.15 0 .3-.05.1-.05.1-.15m-1.35-2.3q-.1-.05-.25-.05-.2 0-.35.05-.1.05-.1.15 0 .05.1.1.15.1.35.1.15 0 .25-.1.15-.05.15-.1 0-.1-.15-.15m-.85.45q0-.1-.15-.15-.15-.05-.3-.05-.2 0-.3.05-.15.05-.15.15 0 .048.05.05h-.25q-.15 0-.3.05-.1.05-.1.15 0 .05.1.15.15.05.3.05.2 0 .3-.05.15-.1.15-.15v-.05h.2q.15 0 .3-.05t.15-.15m-.45.8q-.15-.05-.3-.05t-.3.05q-.15.1-.15.15 0 .1.15.15.15.05.3.05t.3-.05q.15-.05.15-.15 0-.05-.15-.15m.65.15q-.15 0-.3.05-.1.1-.1.15 0 .1.1.15.15.05.3.05.2 0 .3-.05.15-.05.15-.15 0-.05-.15-.15-.1-.05-.3-.05m-.9.6q0-.1-.1-.15-.15-.05-.3-.05-.2 0-.3.05-.15.05-.15.15 0 .05.15.1.1.1.3.1.15 0 .3-.1.1-.05.1-.1m.5.55q0 .05.1.1.15.1.3.1.2 0 .3-.1.15-.05.15-.1 0-.1-.15-.15-.1-.05-.3-.05-.15 0-.3.05-.1.05-.1.15m-.25.6q0-.1-.15-.15-.15-.05-.3-.05-.2 0-.3.05-.15.05-.15.15 0 .1.15.15.1.05.3.05.15 0 .3-.05t.15-.15m.3 2.4q0 .05.1.1.15.1.3.1.2 0 .3-.1.15-.05.15-.1 0-.1-.15-.15-.1-.05-.3-.05-.15 0-.3.05-.1.05-.1.15m1.05.3q-.1-.05-.25-.05-.2 0-.35.05-.1.1-.1.15 0 .1.1.15.15.05.35.05.15 0 .25-.05.15-.05.15-.15 0-.05-.15-.15m2.8-2.55q-.1-.05-.3-.05-.15 0-.3.05-.1.1-.1.15 0 .1.1.15.15.05.3.05.2 0 .3-.05.15-.05.15-.15 0-.05-.15-.15m-1.4 2.55q-.15 0-.3.05-.15.1-.15.15 0 .1.15.15.15.05.3.05t.3-.05q.15-.05.15-.15 0-.05-.15-.15-.15-.05-.3-.05m-.2.45q-.15-.05-.3-.05-.2 0-.35.05-.1.1-.1.15 0 .1.1.15.15.05.35.05.15 0 .3-.05.1-.05.1-.15 0-.05-.1-.15m2.15.95q.1.05.3.05.15 0 .3-.05.1-.05.1-.15 0-.1-.1-.15-.15-.05-.3-.05-.2 0-.3.05-.15.05-.15.15 0 .1.15.15m-6.65-6.4q.15 0 .25-.05.15-.05.15-.15 0-.05-.15-.15-.1-.05-.25-.05-.2 0-.35.05-.1.1-.1.15 0 .1.1.15.15.05.35.05m.65 1.8q-.15 0-.3.05-.1.05-.1.15 0 .05.1.15.15.05.3.05.2 0 .3-.05.15-.1.15-.15 0-.1-.15-.15-.1-.05-.3-.05m-1.85-1.4q0-.1-.15-.15-.1-.05-.25-.05-.2 0-.35.05-.1.05-.1.15 0 .05.1.1.15.1.35.1.15 0 .25-.1.15-.05.15-.1m-2.05-.25q.1-.05.1-.1h.15q.15 0 .3-.05.1-.05.1-.15 0-.1-.1-.15-.15-.05-.3-.05-.2 0-.35.05l-.1.1h-.1q-.15 0-.3.05t-.15.15q0 .05.15.15.15.05.3.05t.3-.05m.65.7q0-.1-.15-.15-.15-.05-.3-.05t-.3.05q-.15.05-.15.15 0 .048.05.05h-.15q-.2 0-.3.05-.15.05-.15.15 0 .1.15.15.1.05.3.05.15 0 .3-.05t.15-.15q0-.049-.05-.1.052.05.15.05.15 0 .3-.1.15-.05.15-.1m1.5 1.9q-.2 0-.35.05-.1.05-.1.15 0 .05.1.15.15.05.35.05h.2q.15 0 .3-.05.1-.05.1-.15 0-.1-.1-.15-.15-.05-.3-.05h-.2m-.9-.3q.1-.05.1-.15 0-.05-.1-.15-.15-.05-.3-.05-.2 0-.3.05-.15.1-.15.15 0 .1.15.15.1.05.3.05.15 0 .3-.05m-1.4.9q.15-.05.15-.15 0-.1-.15-.15-.1-.05-.3-.05-.15 0-.3.05-.1.05-.1.15 0 .1.1.15.15.05.3.05.2 0 .3-.05m.25 1.4q0-.05-.15-.15-.1-.05-.3-.05-.15 0-.3.05-.1.1-.1.15 0 .1.1.15.1.05.25.05-.05.05-.05.1t.1.15q.15.05.3.05.2 0 .3-.05.15-.1.15-.15 0-.1-.15-.15-.05-.05-.2-.05.05-.05.05-.1m1.6-.65q.15 0 .25-.05.15-.05.15-.15 0-.1-.15-.15-.1-.05-.25-.05-.2 0-.35.05-.1.05-.1.15 0 .1.1.15.15.05.35.05m1.85-1.35q.2 0 .3-.1.15-.05.15-.1 0-.1-.15-.15-.1-.05-.3-.05-.15 0-.3.05-.1.05-.1.15 0 .05.1.1.15.1.3.1m-.35 1.8q0-.1-.1-.15-.15-.05-.3-.05-.2 0-.35.05-.1.05-.1.15 0 .05.1.1.15.1.35.1.15 0 .3-.1.1-.05.1-.1m1.25-.55q.15-.05.15-.15 0-.1-.15-.15-.1-.05-.25-.05-.2 0-.35.05-.1.05-.1.15 0 .1.1.15.15.05.35.05.15 0 .25-.05m-5.5-3.7q-.1-.05-.3-.05-.15 0-.3.05-.1.1-.1.15 0 .1.1.15.15.05.3.05.2 0 .3-.05.15-.05.15-.15 0-.05-.15-.15m-1.35-.85q.15 0 .25-.1.15-.05.15-.1 0-.1-.15-.15-.1-.05-.25-.05-.2 0-.35.05-.1.05-.1.15 0 .05.1.1.15.1.35.1m.1 1.6q-.1-.05-.3-.05-.15 0-.3.05-.1.1-.1.15 0 .1.1.15.15.05.3.05.2 0 .3-.05.15-.05.15-.15 0-.05-.15-.15m-1.3-1.35q.051-.001.1-.05.15-.05.15-.15 0-.05-.15-.1-.15-.1-.3-.1t-.3.1q-.15.05-.15.1t.05.1h-.1q-.1.1-.1.15 0 .1.1.15.15.05.3.05.2 0 .3-.05.15-.05.15-.15 0-.049-.05-.05m-1.6-.4q0-.1-.1-.15-.15-.05-.3-.05-.2 0-.3.05-.15.05-.15.15 0 .1.15.15.098.049.3.05-.105.002-.25.05-.1.05-.1.15 0 .1.1.15.05 0 .15.05v.05q0 .05.1.1.15.1.3.1.2 0 .3-.1.15-.05.15-.1 0-.1-.15-.15-.05-.05-.1-.05v-.05q0-.1-.15-.15-.098-.049-.25-.05.103-.002.2-.05.1-.05.1-.15m.2 2.1q0-.1-.15-.15-.15-.05-.3-.05-.2 0-.3.05-.15.05-.15.15 0 .1.15.15.1.05.3.05.15 0 .3-.05t.15-.15m.15.4q-.15-.1-.3-.1-.2 0-.3.1-.15.05-.15.1 0 .1.15.15.1.05.3.05.15 0 .3-.05.1-.05.1-.15 0-.05-.1-.1m-.5-1q.15 0 .3-.1.1-.05.1-.1 0-.1-.1-.15-.15-.05-.3-.05-.2 0-.35.05-.05-.05-.15-.1-.1-.05-.3-.05-.15 0-.3.05-.1.05-.1.15 0 .05.1.1.1.1.25.1 0 .05.1.1.15.05.3.05.2 0 .3-.05h.15m1.6.5q-.1.05-.1.15 0 .05.1.1.15.1.3.1.2 0 .3-.1.15-.05.15-.1 0-.1-.15-.15-.1-.05-.3-.05-.15 0-.3.05m.65 1.15q-.1.05-.1.1 0 .1.1.15.15.05.3.05.2 0 .3-.05.15-.05.15-.15 0-.05-.15-.1-.1-.1-.3-.1-.15 0-.3.1m-2.1.9q.15.05.3.05.2 0 .3-.05.15-.05.15-.15 0-.05-.15-.1-.1-.1-.3-.1-.15 0-.3.1-.1.05-.1.1 0 .1.1.15m.5 1.6q0-.1-.1-.15-.15-.05-.3-.05-.2 0-.3.05-.15.05-.15.15 0 .1.15.15.1.05.3.05.15 0 .3-.05.1-.05.1-.15m-.45-.45q0-.1-.1-.15-.15-.05-.3-.05-.2 0-.3.05-.15.05-.15.15 0 .1.15.15.1.05.3.05.15 0 .3-.05.1-.05.1-.15m4.1-1q-.1-.05-.3-.05-.15 0-.3.05-.1.1-.1.15 0 .1.1.15.15.05.3.05.2 0 .3-.05.15-.05.15-.15 0-.05-.15-.15m-1-.25q-.15-.05-.3-.05t-.3.05q-.15.1-.15.15 0 .1.15.15.15.05.3.05t.3-.05q.15-.05.15-.15 0-.05-.15-.15m.25 2.95q.15.05.35.05.15 0 .25-.05.15-.1.15-.15 0-.1-.15-.15-.1-.05-.25-.05-.2 0-.35.05-.1.05-.1.15 0 .05.1.15m-3.05-.25q.05-.05.05-.1t-.1-.15q-.15-.05-.3-.05-.2 0-.3.05-.15.1-.15.15 0 .05.05.1-.05.05-.05.1 0 .1.15.15.1.05.3.05.15 0 .3-.05.1-.05.1-.15 0-.05-.05-.1m.1.9q0-.1-.1-.15-.15-.05-.3-.05-.2 0-.3.05-.15.05-.15.15 0 .1.15.15.1.05.3.05.15 0 .3-.05.1-.05.1-.15m8.05-1.15q-.15-.05-.3-.05-.2 0-.3.05-.15.05-.15.15 0 .05.1.1-.05.05-.15.05-.1.1-.1.15 0 .1.1.15.15.05.35.05.15 0 .3-.05.1-.05.1-.15 0-.05-.05-.1.05-.05.1-.05.1-.05.1-.15 0-.1-.1-.15m-1.05.8q.15-.05.15-.15 0-.05-.15-.15-.1-.05-.3-.05-.15 0-.3.05-.1.1-.1.15 0 .1.1.15.15.05.3.05.2 0 .3-.05m-1.85-.7q.2 0 .3-.05.15-.05.15-.15 0-.05-.15-.15-.1-.05-.3-.05-.15 0-.3.05-.1.1-.1.15 0 .1.1.15.15.05.3.05m-.2 1.35q.1.05.3.05.15 0 .3-.05.1-.05.1-.15 0-.05-.1-.15-.15-.05-.3-.05-.2 0-.3.05-.15.1-.15.15 0 .1.15.15m-7.75-7.05q.2 0 .3-.1.15-.05.15-.1 0-.1-.15-.15-.1-.05-.3-.05-.15 0-.3.05-.1.05-.1.15 0 .05.1.1.15.1.3.1m0 .05q-.15-.05-.3-.05-.2 0-.35.05-.1.05-.1.15 0 .05.1.15.15.05.35.05.15 0 .3-.05.1-.1.1-.15 0-.1-.1-.15m.6.6q-.1.05-.1.15 0 .05.1.15.15.05.3.05.2 0 .3-.05.15-.1.15-.15 0-.1-.15-.15-.1-.05-.3-.05-.15 0-.3.05m-.6.2q.1-.05.1-.15 0-.1-.1-.15-.15-.05-.3-.05-.2 0-.35.05-.1.05-.1.15 0 .1.1.15.15.05.35.05.15 0 .3-.05m.25.8q-.15 0-.3.05t-.15.15q0 .05.15.1.048.048.1.05h-.05q-.2 0-.3.05-.15.1-.15.15 0 .1.15.15.1.05.3.05.15 0 .3-.05.1-.05.1-.15v-.05l.05.05q.15.05.3.05t.3-.05q.15-.1.15-.15 0-.1-.15-.15-.15-.05-.3-.05h-.05q0-.1-.15-.15-.15-.05-.3-.05"/><path fill="#999" d="M57.35 100.3q-.15 0-.3.05-.15.1-.15.15 0 .1.15.15 0 .1.15.15.1.05.3.05.15 0 .3-.05.1-.05.1-.15 0-.05-.1-.1v-.05q0-.05-.15-.15-.1-.05-.3-.05m-1 1.3q0 .05.15.1.15.1.3.1.2 0 .3-.1.15-.05.15-.1 0-.1-.15-.15-.1-.05-.3-.05-.15 0-.3.05t-.15.15m.55.3q-.15 0-.3.1-.1.05-.1.1 0 .1.1.15.15.05.3.05.2 0 .3-.05.15-.05.15-.15 0-.05-.15-.1-.1-.1-.3-.1m1.25.05q-.1-.05-.3-.05-.15 0-.3.05t-.15.15q0 .05.15.1.15.1.3.1.2 0 .3-.1.15-.05.15-.1 0-.1-.15-.15m-.6.75q-.15-.05-.3-.05t-.3.05q-.15.05-.15.15 0 .1.15.15.05 0 .15.05-.1.05-.1.1t.15.15q.1.05.3.05.15 0 .3-.05.1-.1.1-.15 0-.1-.1-.15-.05-.05-.15-.05.1-.05.1-.1 0-.1-.15-.15m-1.05.05q0-.05-.15-.15-.1-.05-.25-.05-.145 0-.25.05.1-.052.1-.1 0-.1-.1-.15l-.15-.15q-.1-.05-.3-.05-.15 0-.3.05-.1.1-.1.15 0 .1.1.15 0 .05.1.1.15.1.3.1.1 0 .2-.05-.05.05-.05.1 0 .1.1.15.15.05.35.05.15 0 .25-.05.15-.05.15-.15m.35 2.3q-.1.05-.1.1 0 .1.1.15.15.05.3.05.2 0 .3-.05.1-.05.15-.1.05 0 .15-.05.1-.05.1-.15 0-.05-.1-.1-.15-.1-.3-.1-.2 0-.3.1-.1 0-.1.1-.15 0-.2.05m.9-.8q-.1.05-.1.15 0 .05.1.1.15.1.3.1.2 0 .3-.1.15-.05.15-.1 0-.1-.15-.15-.1-.05-.3-.05-.15 0-.3.05m2.7-1.45q0-.1-.15-.15-.1-.05-.2-.05-.05 0-.05-.05-.15-.05-.3-.05-.2 0-.35.05-.1.1-.1.15 0 .1.1.15.15.05.25.05l.05.05q.15.05.3.05.2 0 .3-.05.15-.05.15-.15m-1.8.25q-.15.05-.15.15 0 .05.15.1.1.1.3.1.15 0 .3-.1.1-.05.1-.1 0-.1-.1-.15-.15-.1-.3-.1-.2 0-.3.1m.55 1.85q0 .05.1.1.15.1.35.1.15 0 .25-.1.15-.05.15-.1.05-.05.05-.1 0-.1-.15-.15-.1-.05-.3-.05-.15 0-.3.05-.1.05-.1.15-.05.05-.05.1m-3.7-5.3q0-.1-.15-.15-.1-.05-.3-.05-.15 0-.3.05-.1.05-.1.15 0 .05.1.1.15.1.3.1.2 0 .3-.1.15-.05.15-.1m-1.9.25q-.15.1-.15.15 0 .1.15.15.1.05.3.05.15 0 .3-.05.1-.05.1-.15 0-.05-.1-.15-.15-.05-.3-.05-.2 0-.3.05m.55.65q-.1-.05-.3-.05-.15 0-.3.05-.1.1-.1.15 0 .1.1.15.15.05.3.05.2 0 .3-.05.15-.05.15-.15 0-.05-.15-.15m-.25.65q0-.05-.15-.15-.1-.05-.25-.05-.2 0-.35.05-.1.1-.1.15 0 .1.1.15.15.05.35.05.15 0 .25-.05.15-.05.15-.15m1.25.7q-.1-.05-.3-.05-.15 0-.3.05-.1.05-.1.15 0 .05.1.1.15.1.3.1.2 0 .3-.1.15-.05.15-.1 0-.1-.15-.15m-2.4-2.5q0-.05-.15-.15-.1-.05-.3-.05-.15 0-.3.05-.1.1-.1.15 0 .1.1.15.15.05.3.05.2 0 .3-.05.15-.05.15-.15m-.3.6q-.15-.05-.3-.05t-.3.05q-.15.05-.15.15 0 .05.15.1.148.098.25.1-.152.001-.3.05-.15.05-.15.15 0 .05.15.1.15.1.3.1t.3-.1q.15-.05.15-.1 0-.1-.15-.15-.097-.048-.25-.05.155-.003.3-.1 0 .1.1.15.15.05.35.05.15 0 .25-.05.15-.05.15-.15 0-.1-.15-.15-.1-.05-.25-.05-.2 0-.3.05-.05-.05-.15-.1m-.85 2q.001.05.05.05.15.05.3.05h.15l-.05.05q0 .1.15.15.1.05.3.05.15 0 .3-.05t.15-.15q0-.05-.15-.1-.15-.1-.3-.1-.05 0-.1.05v-.1q0-.05-.15-.15-.1-.05-.3-.05-.15 0-.3.05-.1.1-.1.15v.05q-.05-.05-.1-.05-.1-.05-.3-.05-.15 0-.25.05-.15 0-.25.05-.15.05-.15.15 0 .05.15.15.1.05.3.05.15 0 .25-.05.15 0 .25-.05.15-.05.15-.15v-.05m.15 2.75q-.1-.05-.3-.05-.15 0-.3.05-.1.05-.1.15 0 .05.1.1.15.1.3.1.2 0 .3-.1.15-.05.15-.1 0-.1-.15-.15m.8-.35q-.1.05-.1.15 0 .05.1.1.15.1.3.1.2 0 .3-.1.15-.05.15-.1 0-.1-.15-.15-.1-.05-.3-.05-.15 0-.3.05m2.85.6q-.1-.05-.3-.05-.15 0-.3.05-.1.05-.1.15 0 .05.1.1.15.1.3.1.2 0 .3-.1.15-.05.15-.1 0-.1-.15-.15m.05.7q0-.1-.15-.15-.1-.05-.25-.05-.2 0-.35.05-.1.05-.1.15 0 .05.1.1.15.1.35.1.15 0 .25-.1.15-.05.15-.1m-.5.85q-.15-.05-.3-.05-.2 0-.35.05-.1.05-.1.15 0 .05.1.1.15.1.35.1.15 0 .3-.1.1-.05.1-.1 0-.1-.1-.15m-3.4-.45q.15.05.3.05.2 0 .3-.05.15-.05.15-.15 0-.1-.15-.15-.1-.05-.3-.05-.15 0-.3.05-.1.05-.1.15 0 .1.1.15m-2.35-4.15h-.1q-.15 0-.3.05t-.15.15q0 .05.15.1v.1q0 .05.1.1.15.1.3.1.2 0 .3-.1.15-.05.15-.1v-.1q.05 0 .15-.05.15-.05.15-.1 0-.1-.15-.15-.1-.05-.3-.05-.15 0-.3.05M47.4 99q-.15.05-.15.15 0 .05.15.1.1.1.3.1.15 0 .3-.1.1-.05.1-.1 0-.1-.1-.15-.15-.05-.3-.05-.2 0-.3.05m.2 2.25q.2 0 .3-.05.15-.05.15-.15 0-.05-.15-.15-.1-.05-.3-.05-.15 0-.3.05-.15.1-.15.15 0 .1.15.15.15.05.3.05m-.3.15q-.1.1-.1.15 0 .1.1.15.15.05.3.05.2 0 .3-.05.15-.05.15-.15 0-.05-.15-.15-.1-.05-.3-.05-.15 0-.3.05m.35 1.3q.15 0 .3-.05.1-.1.1-.15 0-.1-.1-.15-.15-.05-.3-.05-.2 0-.3.05-.15.05-.15.15 0 .05.15.15.1.05.3.05m.35.75q-.1.05-.1.15 0 .05.1.1l.2.1v.05q0 .05.1.1.15.1.3.1.1 0 .15-.05.1.05.15.05.15 0 .3-.1.15-.05.15-.1 0-.1-.15-.15-.15-.1-.3-.1-.05 0-.15.05v-.05q0-.1-.15-.15-.1-.05-.3-.05-.15 0-.3.05m-2.2-1.15q.1-.05.1-.15 0-.05-.1-.15-.15-.05-.3-.05-.2 0-.35.05-.1.1-.1.15 0 .1.1.15.15.05.35.05.15 0 .3-.05m1.8 2q.05-.05.1-.05h.05q.2 0 .3-.05.15-.1.15-.15 0-.1-.15-.15-.1-.05-.3-.05-.15 0-.3.05-.05.05-.1.05h-.05q-.15 0-.3.1-.1.05-.1.1 0 .1.1.15.15.05.3.05.2 0 .3-.05m.1.35q-.15.1-.15.15 0 .1.15.15v.05q-.15.05-.15.15 0 .05.15.1.15.1.3.1t.3-.1q.15-.05.15-.1 0-.1-.15-.15l-.05-.05h.05q.15-.05.15-.15 0-.05-.15-.15-.15-.05-.3-.05t-.3.05m-3.3-5.1q.1-.05.1-.1 0-.1-.1-.15-.15-.05-.3-.05-.2 0-.3.05-.15.05-.15.15 0 .05.15.1.1.1.3.1.15 0 .3-.1m-2.85 2.05q.15-.05.15-.15 0-.05-.15-.15-.1-.05-.3-.05-.15 0-.3.05-.1.1-.1.15 0 .1.1.15.15.05.3.05.2 0 .3-.05m-.7 1.8q-.15.05-.15.15 0 .05.15.1.1.1.25.1-.1.1-.1.15 0 .1.1.15.15.05.35.05.15 0 .3-.05.1-.05.1-.15 0-.05-.1-.15-.15-.05-.3-.05h-.1q.052-.002.1-.05.1-.05.1-.1 0-.1-.1-.15-.15-.05-.3-.05-.2 0-.3.05m3.3-.5q-.15-.05-.3-.05-.2 0-.3.05-.15.05-.15.15 0 .1.15.15.1.05.3.05.15 0 .3-.05t.15-.15q0-.1-.15-.15m1.2 1q0-.1-.1-.15-.15-.05-.3-.05-.2 0-.35.05-.1.05-.1.15 0 .05.1.1.15.1.35.1.15 0 .3-.1.1-.05.1-.1m-.45 1q-.15 0-.3.05-.1.05-.1.15 0 .05.1.1.15.1.3.1.2 0 .3-.1.15-.05.15-.1 0-.1-.15-.15-.1-.05-.3-.05m4.85 1.95q.15-.05.15-.15 0-.05-.15-.15-.1-.05-.3-.05-.15 0-.3.05-.1.1-.1.15 0 .1.1.15.15.05.3.05.2 0 .3-.05m-3.05-1.25q-.1-.05-.3-.05-.15 0-.3.05-.1.1-.1.15 0 .1.1.15.15.05.3.05.2 0 .3-.05.15-.05.15-.15 0-.05-.15-.15m-7-5.85q-.15-.05-.3-.05-.2 0-.35.05-.1.05-.1.15-.1-.05-.2-.05-.15 0-.3.05-.1.05-.1.15-.1-.05-.3-.05-.15 0-.3.05-.1.1-.1.15 0 .1.1.15.15.05.3.05.2 0 .3-.05.15-.05.15-.15.15.05.25.05.2 0 .3-.05.15-.05.15-.15.1.05.2.05.15 0 .3-.05.1-.1.1-.15 0-.1-.1-.15m-2.9 4.05q0 .05.1.1.15.1.35.1.15 0 .25-.1.15-.05.15-.1 0-.1-.15-.15-.1-.05-.25-.05-.2 0-.35.05-.1.05-.1.15m3.35-1q.15 0 .3-.05.1-.05.1-.15 0-.1-.1-.15-.15-.05-.3-.05-.2 0-.3.05-.15.05-.15.15 0 .049.05.05h-.05q-.15-.05-.3-.05t-.3.05q-.15.05-.15.15 0 .05.15.15.15.05.3.05t.3-.05q.15-.1.15-.15v-.05q.1.05.3.05m-.45.65q-.2 0-.35.05-.1.05-.1.15 0 .1.1.15.15.05.35.05.15 0 .25-.05.15-.05.15-.15 0-.1-.15-.15-.1-.05-.25-.05m-1.05 1.25q0 .05.1.1.15.1.3.1.2 0 .3-.1.15-.05.15-.1 0-.1-.15-.15-.1-.05-.3-.05-.15 0-.3.05-.1.05-.1.15m45.25-3.05q.15-.05.15-.15 0-.05-.15-.1-.1-.1-.3-.1-.15 0-.3.1-.1.05-.1.1 0 .1.1.15.15.05.3.05.2 0 .3-.05m-.45-1.2q0-.05-.15-.15-.1-.05-.3-.05-.15 0-.3.05-.1.1-.1.15 0 .1.1.15.15.05.3.05.2 0 .3-.05.15-.05.15-.15"/><g display="none"><path fill="none" stroke="#F90" stroke-width="5" stroke-linecap="round" stroke-linejoin="round" d="M46.85 80.6v19.55"/><animate attributeName="display" fill="freeze" repeatCount="1" dur="4s" keyTimes="0;0.104;1" values="none;inline;inline"/></g><g display="none"><path fill="none" stroke="#F90" stroke-width="5" stroke-linecap="round" stroke-linejoin="round" d="M46.85 100q-1.4-9.75 0-19.55"/><animate attributeName="display" fill="freeze" repeatCount="1" dur="4s" keyTimes="0;0.094;0.104;1" values="none;inline;none;none"/></g><g display="none"><path fill="none" stroke="#F90" stroke-width="5" stroke-linecap="round" stroke-linejoin="round" d="M46.85 80.25q-2.824 9.775 0 19.55"/><animate attributeName="display" fill="freeze" repeatCount="1" dur="4s" keyTimes="0;0.083;0.094;1" values="none;inline;none;none"/></g><g display="none"><path fill="none" stroke="#F90" stroke-width="5" stroke-linecap="round" stroke-linejoin="round" d="M46.85 99.8q-2.1-9.75 0-19.55"/><animate attributeName="display" fill="freeze" repeatCount="1" dur="4s" keyTimes="0;0.073;0.083;1" values="none;inline;none;none"/></g><g display="none"><path fill="none" stroke="#F90" stroke-width="5" stroke-linecap="round" stroke-linejoin="round" d="M46.85 99.8q-1.4-9.75 0-19.55"/><animate attributeName="display" fill="freeze" repeatCount="1" dur="4s" keyTimes="0;0.063;0.073;1" values="none;inline;none;none"/></g><g display="none"><path fill="none" stroke="#F90" stroke-width="5" stroke-linecap="round" stroke-linejoin="round" d="M46.85 99.8q-.7-9.75 0-19.55"/><animate attributeName="display" fill="freeze" repeatCount="1" dur="4s" keyTimes="0;0.052;0.063;1" values="none;inline;none;none"/></g><g><path fill="none" stroke="#F90" stroke-width="5" stroke-linecap="round" stroke-linejoin="round" d="M46.85 80.25V99.8"/><animate attributeName="display" fill="freeze" repeatCount="1" dur="4s" keyTimes="0;0.052;1" values="inline;none;none"/></g><g display="none"><path fill="none" stroke="#F90" stroke-width="5" stroke-linecap="round" stroke-linejoin="round" d="M73.75 79.1l.4 19.55"/><animate attributeName="display" fill="freeze" repeatCount="1" dur="4s" keyTimes="0;0.104;1" values="none;inline;inline"/></g><g display="none"><path fill="none" stroke="#F90" stroke-width="5" stroke-linecap="round" stroke-linejoin="round" d="M73.75 78.95q1.6 9.8.4 19.55"/><animate attributeName="display" fill="freeze" repeatCount="1" dur="4s" keyTimes="0;0.094;0.104;1" values="none;inline;none;none"/></g><g display="none"><path fill="none" stroke="#F90" stroke-width="5" stroke-linecap="round" stroke-linejoin="round" d="M73.75 78.75q3.006 9.775.4 19.55"/><animate attributeName="display" fill="freeze" repeatCount="1" dur="4s" keyTimes="0;0.083;0.094;1" values="none;inline;none;none"/></g><g display="none"><path fill="none" stroke="#F90" stroke-width="5" stroke-linecap="round" stroke-linejoin="round" d="M73.75 78.75q2.3 9.8.4 19.55"/><animate attributeName="display" fill="freeze" repeatCount="1" dur="4s" keyTimes="0;0.073;0.083;1" values="none;inline;none;none"/></g><g display="none"><path fill="none" stroke="#F90" stroke-width="5" stroke-linecap="round" stroke-linejoin="round" d="M73.75 78.75q1.6 9.8.4 19.55"/><animate attributeName="display" fill="freeze" repeatCount="1" dur="4s" keyTimes="0;0.063;0.073;1" values="none;inline;none;none"/></g><g display="none"><path fill="none" stroke="#F90" stroke-width="5" stroke-linecap="round" stroke-linejoin="round" d="M73.75 78.75q.9 9.8.4 19.55"/><animate attributeName="display" fill="freeze" repeatCount="1" dur="4s" keyTimes="0;0.052;0.063;1" values="none;inline;none;none"/></g><g><path fill="none" stroke="#F90" stroke-width="5" stroke-linecap="round" stroke-linejoin="round" d="M73.75 78.75l.4 19.55"/><animate attributeName="display" fill="freeze" repeatCount="1" dur="4s" keyTimes="0;0.052;1" values="inline;none;none"/></g><g display="none"><path fill="none" stroke="#F90" stroke-width="5" stroke-linecap="round" stroke-linejoin="round" d="M28.25 84.6q.7.25 1.55.4m-1.55-.4q-3.25-1-4.85-3.3-1.7-2.45-.55-4.7Q24 74.7 26.6 74q.3-.1.6-.1 1.65-.45 5.05-.3"/><animate attributeName="display" fill="freeze" repeatCount="1" dur="4s" keyTimes="0;0.729;1" values="none;inline;inline"/></g><g display="none"><path fill="none" stroke="#F90" stroke-width="5" stroke-linecap="round" stroke-linejoin="round" d="M28.65 85.55q-.9-.25-1.6-.55-3.35-1.2-4.95-3.8-1.65-2.8-.35-5.2 1.3-2.05 4-2.65 2.4-.55 5.95-.2"/><animate attributeName="display" fill="freeze" repeatCount="1" dur="4s" keyTimes="0;0.719;0.729;1" values="none;inline;none;none"/></g><g display="none"><path fill="none" stroke="#F90" stroke-width="5" stroke-linecap="round" stroke-linejoin="round" d="M27.5 86.05q-.95-.25-1.7-.6-3.4-1.5-4.95-4.4-1.65-3.1-.2-5.65 1.4-2.15 4.3-2.75 2.5-.45 6.2.05"/><animate attributeName="display" fill="freeze" repeatCount="1" dur="4s" keyTimes="0;0.708;0.719;1" values="none;inline;none;none"/></g><g display="none"><path fill="none" stroke="#F90" stroke-width="5" stroke-linecap="round" stroke-linejoin="round" d="M26.3 86.6q-.95-.35-1.7-.75-3.55-1.7-5.05-4.9-1.6-3.5 0-6.2Q21.1 72.5 24.1 72q2.65-.45 6.45.25"/><animate attributeName="display" fill="freeze" repeatCount="1" dur="4s" keyTimes="0;0.698;0.708;1" values="none;inline;none;none"/></g><g display="none"><path fill="none" stroke="#F90" stroke-width="5" stroke-linecap="round" stroke-linejoin="round" d="M23.35 86.25q.8.45 1.8.85m-1.8-.85q-3.6-1.95-5.1-5.45-1.55-3.8.2-6.65 1.65-2.4 4.8-2.85.35-.1.7-.1 2.1-.3 6.05.6"/><animate attributeName="display" fill="freeze" repeatCount="1" dur="4s" keyTimes="0;0.688;0.698;1" values="none;inline;none;none"/></g><g display="none"><path fill="none" stroke="#F90" stroke-width="5" stroke-linecap="round" stroke-linejoin="round" d="M21.75 76.05q-5.85 5.7-4.1 14.8m4.1-14.8q3.8-3.7 8-4.35"/><animate attributeName="display" fill="freeze" repeatCount="1" dur="4s" keyTimes="0;0.677;0.688;1" values="none;inline;none;none"/></g><g display="none"><path fill="none" stroke="#F90" stroke-width="5" stroke-linecap="round" stroke-linejoin="round" d="M27.25 80.9q-1.85 4.8-1.35 9.05m1.35-9.05q1.95-5.3 5.55-7.85"/><animate attributeName="display" fill="freeze" repeatCount="1" dur="4s" keyTimes="0;0.104;0.115;1" values="none;inline;none;none"/></g><g display="none"><path fill="none" stroke="#F90" stroke-width="5" stroke-linecap="round" stroke-linejoin="round" d="M24.9 92.2q-.55-4.2 1.4-8.95 2-5.2 5.75-7.7"/><animate attributeName="display" fill="freeze" repeatCount="1" dur="4s" keyTimes="0;0.094;0.104;1" values="none;inline;none;none"/></g><g display="none"><path fill="none" stroke="#F90" stroke-width="5" stroke-linecap="round" stroke-linejoin="round" d="M25.3 85.6q-2 4.65-1.45 8.8m1.45-8.8q2.1-5.1 6-7.6"/><animate attributeName="display" fill="freeze" repeatCount="1" dur="4s" keyTimes="0;0.083;0.094;1" values="none;inline;none;none"/></g><g display="none"><path fill="none" stroke="#F90" stroke-width="5" stroke-linecap="round" stroke-linejoin="round" d="M24.15 93.65q-.55-4.15 1.45-8.85 2.05-5.15 5.95-7.65"/><animate attributeName="display" fill="freeze" repeatCount="1" dur="4s" keyTimes="0;0.073;0.083;1" values="none;inline;none;none"/></g><g display="none"><path fill="none" stroke="#F90" stroke-width="5" stroke-linecap="round" stroke-linejoin="round" d="M24.45 92.9q-.5-4.2 1.45-8.9 2.05-5.2 5.85-7.75"/><animate attributeName="display" fill="freeze" repeatCount="1" dur="4s" keyTimes="0;0.063;0.073;1" values="none;inline;none;none"/></g><g display="none"><path fill="none" stroke="#F90" stroke-width="5" stroke-linecap="round" stroke-linejoin="round" d="M24.75 92.15q-.5-4.2 1.4-9Q28.2 77.9 32 75.4"/><animate attributeName="display" fill="freeze" repeatCount="1" dur="4s" keyTimes="0;0.052;0.063;1" values="none;inline;none;none"/></g><g display="none"><path fill="none" stroke="#F90" stroke-width="5" stroke-linecap="round" stroke-linejoin="round" d="M26.45 82.35q-1.9 4.8-1.4 9.05m1.4-9.05q2-5.3 5.75-7.85"/><animate attributeName="display" fill="freeze" repeatCount="1" dur="4s" keyTimes="0;0.042;0.052;1" values="none;inline;none;none"/></g><g><path fill="none" stroke="#F90" stroke-width="5" stroke-linecap="round" stroke-linejoin="round" d="M32.2 74.5q-3.75 2.55-5.75 7.85-1.9 4.8-1.4 9.05"/><animate attributeName="display" fill="freeze" repeatCount="1" dur="4s" keyTimes="0;0.042;1" values="inline;none;none"/></g><g display="none"><path fill="#F90" d="M34.274 85.885q-.28-1.527-1.601-2.48-1.215-.913-2.749-.682-1.527.28-2.54 1.507-.902 1.315-.622 2.842.231 1.534 1.496 2.442 1.276 1.007 2.804.726 1.533-.23 2.485-1.55.958-1.271.727-2.805"/><animate attributeName="display" fill="freeze" repeatCount="1" dur="4s" keyTimes="0;0.729;1" values="none;inline;inline"/></g><g display="none"><path fill="none" stroke="#F90" stroke-width="5" stroke-linecap="round" stroke-linejoin="round" d="M93.5 72.45q3.05 4.15 3.65 8.4m-3.65-8.4q-3.25-4.65-7.65-6.3"/><animate attributeName="display" fill="freeze" repeatCount="1" dur="4s" keyTimes="0;0.729;1" values="none;inline;inline"/></g><g display="none"><path fill="none" stroke="#F90" stroke-width="5" stroke-linecap="round" stroke-linejoin="round" d="M85.6 66.8q4.35 1.75 7.45 6.5 2.95 4.2 3.45 8.45"/><animate attributeName="display" fill="freeze" repeatCount="1" dur="4s" keyTimes="0;0.719;0.729;1" values="none;inline;none;none"/></g><g display="none"><path fill="none" stroke="#F90" stroke-width="5" stroke-linecap="round" stroke-linejoin="round" d="M85.3 67.45q4.3 1.85 7.35 6.65 2.85 4.3 3.25 8.55"/><animate attributeName="display" fill="freeze" repeatCount="1" dur="4s" keyTimes="0;0.708;0.719;1" values="none;inline;none;none"/></g><g display="none"><path fill="none" stroke="#F90" stroke-width="5" stroke-linecap="round" stroke-linejoin="round" d="M85.05 68.15q4.25 1.95 7.15 6.8 2.75 4.3 3.05 8.6"/><animate attributeName="display" fill="freeze" repeatCount="1" dur="4s" keyTimes="0;0.698;0.708;1" values="none;inline;none;none"/></g><g display="none"><path fill="none" stroke="#F90" stroke-width="5" stroke-linecap="round" stroke-linejoin="round" d="M84.75 68.8q4.2 2.05 7.05 6.95 2.65 4.4 2.85 8.7"/><animate attributeName="display" fill="freeze" repeatCount="1" dur="4s" keyTimes="0;0.688;0.698;1" values="none;inline;none;none"/></g><g display="none"><path fill="none" stroke="#F90" stroke-width="5" stroke-linecap="round" stroke-linejoin="round" d="M84.1 68.95q4.1 2.15 6.8 7.15 2.5 4.45 2.6 8.75"/><animate attributeName="display" fill="freeze" repeatCount="1" dur="4s" keyTimes="0;0.125;0.135;1" values="none;inline;none;none"/></g><g display="none"><path fill="none" stroke="#F90" stroke-width="5" stroke-linecap="round" stroke-linejoin="round" d="M83.7 68.5q4.1 2.15 6.7 7.15 2.5 4.45 2.6 8.75"/><animate attributeName="display" fill="freeze" repeatCount="1" dur="4s" keyTimes="0;0.115;0.125;1" values="none;inline;none;none"/></g><g display="none"><path fill="none" stroke="#F90" stroke-width="5" stroke-linecap="round" stroke-linejoin="round" d="M89.95 75.15q2.45 4.45 2.55 8.75m-2.55-8.75q-2.6-5-6.65-7.15"/><animate attributeName="display" fill="freeze" repeatCount="1" dur="4s" keyTimes="0;0.104;0.115;1" values="none;inline;none;none"/></g><g display="none"><path fill="none" stroke="#F90" stroke-width="5" stroke-linecap="round" stroke-linejoin="round" d="M84.6 70.6q4.2 2.1 6.9 7 2.55 4.4 2.65 8.65"/><animate attributeName="display" fill="freeze" repeatCount="1" dur="4s" keyTimes="0;0.094;0.104;1" values="none;inline;none;none"/></g><g display="none"><path fill="none" stroke="#F90" stroke-width="5" stroke-linecap="round" stroke-linejoin="round" d="M93 80.05q2.7 4.3 2.8 8.5m-2.8-8.5q-2.8-4.85-7.15-6.9"/><animate attributeName="display" fill="freeze" repeatCount="1" dur="4s" keyTimes="0;0.083;0.094;1" values="none;inline;none;none"/></g><g display="none"><path fill="none" stroke="#F90" stroke-width="5" stroke-linecap="round" stroke-linejoin="round" d="M85.5 72.25q4.3 2.05 7.1 6.95 2.65 4.35 2.75 8.55"/><animate attributeName="display" fill="freeze" repeatCount="1" dur="4s" keyTimes="0;0.073;0.083;1" values="none;inline;none;none"/></g><g display="none"><path fill="none" stroke="#F90" stroke-width="5" stroke-linecap="round" stroke-linejoin="round" d="M85.2 71.3q4.25 2.1 7 7.05 2.6 4.35 2.7 8.6"/><animate attributeName="display" fill="freeze" repeatCount="1" dur="4s" keyTimes="0;0.063;0.073;1" values="none;inline;none;none"/></g><g display="none"><path fill="none" stroke="#F90" stroke-width="5" stroke-linecap="round" stroke-linejoin="round" d="M84.85 70.4q4.2 2.1 6.9 7.05 2.6 4.45 2.7 8.7"/><animate attributeName="display" fill="freeze" repeatCount="1" dur="4s" keyTimes="0;0.052;0.063;1" values="none;inline;none;none"/></g><g display="none"><path fill="none" stroke="#F90" stroke-width="5" stroke-linecap="round" stroke-linejoin="round" d="M91.35 76.6q2.55 4.45 2.65 8.75m-2.65-8.75q-2.7-5-6.85-7.15"/><animate attributeName="display" fill="freeze" repeatCount="1" dur="4s" keyTimes="0;0.042;0.052;0.135;0.688;1" values="none;inline;none;inline;none;none"/></g><g><path fill="none" stroke="#F90" stroke-width="5" stroke-linecap="round" stroke-linejoin="round" d="M84.5 69.45q4.15 2.15 6.85 7.15 2.55 4.45 2.65 8.75"/><animate attributeName="display" fill="freeze" repeatCount="1" dur="4s" keyTimes="0;0.042;1" values="inline;none;none"/></g><g transform="matrix(.994 0 0 1.008 27.55 25.85)"><animateTransform attributeName="transform" additive="replace" type="translate" dur="4s" keyTimes="0;0.042;0.052;0.063;0.073;0.083;0.094;0.104;0.115;0.125;0.135;0.677;0.688;0.698;0.708;0.719;0.729;1" values="58.863,55.579;58.863,55.579;58.903,56.646;58.993,57.664;59.082,58.731;59.123,59.699;58.71,56.964;58.499,54.179;58.654,54.679;58.759,55.129;58.863,55.579;58.863,55.579;58.902,55.529;58.782,55.52;58.802,55.507;58.786,55.411;58.797,55.391;58.797,55.391" calcMode="discrete" fill="freeze"/><animateTransform attributeName="transform" additive="sum" type="rotate" dur="4s" keyTimes="0;0.677;0.688;0.698;0.708;0.719;0.729;1" values="0,0,0;0,0,0;-1.274,0,0;-2.549,0,0;-4.011,0,0;-5.285,0,0;-6.731,0,0;-6.731,0,0" calcMode="discrete" fill="freeze"/><animateTransform attributeName="transform" additive="sum" type="skewX" dur="4s" keyTimes="0;0.719;0.729;1" values="0;0;0.001;0.001" calcMode="discrete" fill="freeze"/><animateTransform attributeName="transform" additive="sum" type="scale" dur="4s" keyTimes="0;0.042;0.052;0.063;0.073;0.083;0.094;0.104;0.115;0.125;0.135;0.688;0.698;0.708;0.719;0.729;1" values="0.994,1.008;0.994,1.008;1.005,1;1.016,0.992;1.026,0.984;1.037,0.976;0.999,0.992;0.96,1.008;0.971,1.008;0.983,1.008;0.994,1.008;0.994,1.008;0.994,1.007;0.994,1.007;0.993,1.007;0.994,1.007;0.994,1.007" calcMode="discrete" fill="freeze"/><animateTransform attributeName="transform" additive="sum" type="translate" dur="4s" keyTimes="0;0.083;0.094;0.104;0.125;0.135;0.677;0.688;0.698;0.708;0.719;0.729;1" values="-31.5,-29.5;-31.5,-29.5;-31.45,-29.5;-31.45,-29.55;-31.45,-29.55;-31.5,-29.5;-31.5,-29.5;-31.6,-29.5;-31.45,-29.6;-31.5,-29.55;-31.55,-29.5;-31.55,-29.55;-31.55,-29.55" calcMode="discrete" fill="freeze"/><path fill="none" stroke="#FC3" stroke-width="3" stroke-linecap="round" stroke-linejoin="round" d="M28.85 3.35L28.7 0m-3.5 2l1.55 2.05M32.5 1.8l-1.55 2.05"/><path fill="#FFB933" d="M46.45 19.6l-4.65-5.7-24.95 2-3.8 5.95-11.25 18q-.1.1-.15.25-3.6 8.5.55 14.6 3.45 5.05 10.5 5.95l42.4-3.6q4.35-2 6.45-6.1 3.25-6.2-.85-13.75-.15-.25-.3-.55L54.15 29l-7.7-9.4"/><path fill="#FFA702" d="M21.7 43.6q-1.55-1.3-3.55-1.1-2 .25-3.4 1.85-1.3 1.65-1.1 3.75.15 2.1 1.7 3.45t3.6 1.1q2-.2 3.35-1.85 1.3-1.65 1.15-3.75-.2-2.1-1.75-3.45M55.35 48q1.3-1.65 1.15-3.75-.2-2.1-1.75-3.45-1.55-1.3-3.55-1.1-2 .25-3.4 1.85-1.3 1.65-1.1 3.75.15 2.1 1.7 3.45t3.6 1.1q2-.2 3.35-1.85"/><path fill="#F90" d="M20.95 9.35l-4.1 6.55 24.95-2-4.65-5.65q-4.2-5.45-8.4-5.15-1.4.1-2.7.8-.75.4-1.45 1-1.9 1.5-3.65 4.45"/></g><g display="none"><g transform="matrix(.901 -.42 .426 .913 55.7 70.45)"><animateTransform attributeName="transform" additive="replace" type="translate" dur="4s" keyTimes="0;0.677;0.688;0.698;0.708;0.719;0.729;1" values="61.307,70.95;61.307,70.95;61.173,70.98;61.109,70.965;60.975,70.997;60.81,71;60.702,70.955;60.702,70.955" calcMode="discrete" fill="freeze"/><animateTransform attributeName="transform" additive="sum" type="rotate" dur="4s" keyTimes="0;0.677;0.688;0.698;0.708;0.719;0.729;1" values="-24.995,0,0;-24.995,0,0;-21.585,0,0;-18.328,0,0;-15.073,0,0;-12.008,0,0;-8.752,0,0;-8.752,0,0" calcMode="discrete" fill="freeze"/><animateTransform attributeName="transform" additive="sum" type="skewX" dur="4s" keyTimes="0;0.677;0.688;0.698;0.708;0.719;1" values="0;0;0.002;0.003;0.003;0;0" calcMode="discrete" fill="freeze"/><animateTransform attributeName="transform" additive="sum" type="skewY" dur="4s" keyTimes="0;0.677;0.688;0.708;0.719;0.729;1" values="0.006;0.006;0;0;0.189;0.006;0.006" calcMode="discrete" fill="freeze"/><animateTransform attributeName="transform" additive="sum" type="scale" dur="4s" keyTimes="0;0.677;0.688;0.698;0.708;0.719;0.729;1" values="0.994,1.008;0.994,1.008;0.992,1.005;0.992,1.006;0.992,1.006;0.993,1.007;0.994,1.008;0.994,1.008" calcMode="discrete" fill="freeze"/><animateTransform attributeName="transform" additive="sum" type="translate" dur="4s" keyTimes="0;0.677;0.688;0.698;0.708;0.719;0.729;1" values="-4.9,-2.8;-4.9,-2.8;-4.9,-2.85;-5,-2.85;-4.95,-2.8;-4.95,-2.85;-4.85,-2.85;-4.85,-2.85" calcMode="discrete" fill="freeze"/><path fill="none" stroke="#0E2D38" stroke-width="3" stroke-linecap="round" stroke-linejoin="round" d="M4.85 5.2Q2.7 5.2 1.1 3.6.05 2.55-.3 1.2m5.15 4q.384 0 .75-.05"/></g><animate attributeName="display" fill="freeze" repeatCount="1" dur="4s" keyTimes="0;0.677;1" values="none;inline;inline"/></g><g display="none"><g transform="matrix(1.2 0 0 1.2 61.55 71.3)"><animateTransform attributeName="transform" additive="replace" type="translate" dur="4s" keyTimes="0;0.135;0.146;0.156;1" values="63.35,73.1;63.35,73.1;63.3,73.75;63.35,74.4;63.35,74.4" calcMode="discrete" fill="freeze"/><animateTransform attributeName="transform" additive="sum" type="scale" dur="4s" keyTimes="0;0.135;0.146;0.156;1" values="1.2,1.2;1.2,1.2;1.1,1.1;1,1;1,1" calcMode="discrete" fill="freeze"/><animateTransform attributeName="transform" additive="sum" type="translate" dur="4s" keyTimes="0;1" values="-1.5,-1.5;-1.5,-1.5" calcMode="discrete" fill="freeze"/><path fill="#0E2D38" d="M.45.45Q0 .9 0 1.5q0 .6.45 1.05Q.9 3 1.5 3q.6 0 1.05-.45Q3 2.1 3 1.5 3 .9 2.55.45 2.1 0 1.5 0 .9 0 .45.45"/></g><animate attributeName="display" fill="freeze" repeatCount="1" dur="4s" keyTimes="0;0.135;0.677;1" values="none;inline;none;none"/></g><g display="none"><g transform="matrix(.96 -.035 .034 1.007 57.75 67.6)"><animateTransform attributeName="transform" additive="replace" type="translate" dur="4s" keyTimes="0;0.104;0.115;0.125;1" values="62.5,70.25;62.5,70.25;62.401,70.83;62.362,71.296;62.362,71.296" calcMode="discrete" fill="freeze"/><animateTransform attributeName="transform" additive="sum" type="rotate" dur="4s" keyTimes="0;0.104;0.115;0.125;1" values="-1.951,0,0;-1.951,0,0;-1.8,0,0;-1.951,0,0;-1.951,0,0" calcMode="discrete" fill="freeze"/><animateTransform attributeName="transform" additive="sum" type="skewY" dur="4s" keyTimes="0;0.104;0.115;0.125;1" values="-0.134;-0.134;-0.221;-0.134;-0.134" calcMode="discrete" fill="freeze"/><animateTransform attributeName="transform" additive="sum" type="scale" dur="4s" keyTimes="0;0.104;0.115;0.125;1" values="0.96,1.008;0.96,1.008;1.152,0.834;1.344,0.66;1.344,0.66" calcMode="discrete" fill="freeze"/><animateTransform attributeName="transform" additive="sum" type="translate" dur="4s" keyTimes="0;0.104;0.115;1" values="-4.85,-2.8;-4.85,-2.8;-4.8,-2.85;-4.8,-2.85" calcMode="discrete" fill="freeze"/><path fill="none" stroke="#0E2D38" stroke-width="3" stroke-linecap="round" stroke-linejoin="round" d="M5.1 3.45v3.7"/></g><animate attributeName="display" fill="freeze" repeatCount="1" dur="4s" keyTimes="0;0.104;0.135;1" values="none;inline;none;none"/></g><g><g transform="matrix(.993 -.035 .036 1.007 58 69.05)"><animateTransform attributeName="transform" additive="replace" type="translate" dur="4s" keyTimes="0;0.042;0.052;0.063;0.073;0.083;0.094;0.095;1" values="62.969,71.749;62.969,71.749;63.022,72.694;63.171,73.521;63.376,74.396;63.383,75.316;63.383,75.316;63.383,73.516;63.383,73.516" calcMode="discrete" fill="freeze"/><animateTransform attributeName="transform" additive="sum" type="rotate" dur="4s" keyTimes="0;0.042;0.052;0.063;0.073;0.083;1" values="-2.02,0,0;-2.02,0,0;-2.015,0,0;-2.024,0,0;-2.034,0,0;-2.176,0,0;-2.176,0,0" calcMode="discrete" fill="freeze"/><animateTransform attributeName="transform" additive="sum" type="skewY" dur="4s" keyTimes="0;0.042;0.052;0.063;0.073;0.083;1" values="0.005;0.005;0.208;0.226;0.245;0.306;0.306" calcMode="discrete" fill="freeze"/><animateTransform attributeName="transform" additive="sum" type="scale" dur="4s" keyTimes="0;0.042;0.052;0.063;0.073;0.083;1" values="0.994,1.008;0.994,1.008;1.005,1;1.015,0.992;1.026,0.984;1.037,0.976;1.037,0.976" calcMode="discrete" fill="freeze"/><animateTransform attributeName="transform" additive="sum" type="translate" dur="4s" keyTimes="0;0.042;0.052;0.063;0.073;0.083;1" values="-4.9,-2.85;-4.9,-2.85;-4.85,-2.9;-4.85,-2.8;-4.9,-2.85;-4.9,-2.8;-4.9,-2.8" calcMode="discrete" fill="freeze"/><path fill="none" stroke="#0E2D38" stroke-width="3" stroke-linecap="round" stroke-linejoin="round" d="M10 1.2q-.35 1.35-1.4 2.4-1.55 1.6-3.75 1.6-2.15 0-3.75-1.6Q.05 2.55-.3 1.2"/></g><animate attributeName="display" fill="freeze" repeatCount="1" dur="4s" keyTimes="0;0.104;1" values="inline;none;none"/></g><g display="none"><use xlink:href="#a" transform="matrix(.966 -.188 .196 1.029 48.2 55.15)"/><animate attributeName="display" fill="freeze" repeatCount="1" dur="4s" keyTimes="0;0.906;1" values="none;inline;inline"/></g><g display="none"><use xlink:href="#b" transform="matrix(.966 -.188 .196 1.029 48.2 55.15)"/><animate attributeName="display" fill="freeze" repeatCount="1" dur="4s" keyTimes="0;0.896;0.906;1" values="none;inline;none;none"/></g><g display="none"><use xlink:href="#a" transform="matrix(.966 -.188 .213 1.122 48.1 54.55)"><animateTransform attributeName="transform" additive="replace" type="translate" dur="4s" keyTimes="0;0.739;0.74;0.885;0.886;1" values="62.355,59.459;62.355,59.459;62.349,59.498;62.349,59.498;62.345,59.51;62.345,59.51" calcMode="discrete" fill="freeze"/><animateTransform attributeName="transform" additive="sum" type="rotate" dur="4s" keyTimes="0;1" values="-10.757,0,0;-10.757,0,0" calcMode="discrete" fill="freeze"/><animateTransform attributeName="transform" additive="sum" type="skewY" dur="4s" keyTimes="0;1" values="-0.236;-0.236" calcMode="discrete" fill="freeze"/><animateTransform attributeName="transform" additive="sum" type="scale" dur="4s" keyTimes="0;0.739;0.74;0.885;0.886;1" values="0.984,1.142;0.984,1.142;0.984,1.048;0.984,1.048;0.984,0.843;0.984,0.843" calcMode="discrete" fill="freeze"/><animateTransform attributeName="transform" additive="sum" type="translate" dur="4s" keyTimes="0;0.739;0.74;1" values="-13.3,-6.6;-13.3,-6.6;-13.3,-6.65;-13.3,-6.65" calcMode="discrete" fill="freeze"/></use><animate attributeName="display" fill="freeze" repeatCount="1" dur="4s" keyTimes="0;0.729;0.896;1" values="none;inline;none;none"/></g><g display="none"><use xlink:href="#b" transform="matrix(.981 -.073 .046 .659 48.6 56.6)"><animateTransform attributeName="transform" additive="replace" type="translate" dur="4s" keyTimes="0;0.677;0.678;0.688;0.698;0.708;0.719;1" values="61.966,60.074;61.966,60.074;61.942,60.026;62.012,59.918;62.143,59.753;62.287,59.647;62.355,59.459;62.355,59.459" calcMode="discrete" fill="freeze"/><animateTransform attributeName="transform" additive="sum" type="rotate" dur="4s" keyTimes="0;0.677;0.688;0.698;0.708;0.719;1" values="-4.025,0,0;-4.025,0,0;-5.552,0,0;-7.289,0,0;-9.023,0,0;-10.757,0,0;-10.757,0,0" calcMode="discrete" fill="freeze"/><animateTransform attributeName="transform" additive="sum" type="skewY" dur="4s" keyTimes="0;0.677;0.688;0.698;0.708;0.719;1" values="-0.236;-0.236;-0.248;-0.246;-0.247;-0.236;-0.236" calcMode="discrete" fill="freeze"/><animateTransform attributeName="transform" additive="sum" type="scale" dur="4s" keyTimes="0;0.677;0.678;0.688;0.698;0.708;0.719;1" values="0.984,0.66;0.984,0.66;0.984,1.048;0.984,1.071;0.984,1.094;0.984,1.118;0.984,1.142;0.984,1.142" calcMode="discrete" fill="freeze"/><animateTransform attributeName="transform" additive="sum" type="translate" dur="4s" keyTimes="0;0.677;0.678;0.688;0.698;0.708;0.719;1" values="-13.3,-6.75;-13.3,-6.75;-13.3,-6.65;-13.3,-6.7;-13.3,-6.65;-13.25,-6.7;-13.3,-6.6;-13.3,-6.6" calcMode="discrete" fill="freeze"/></use><animate attributeName="display" fill="freeze" repeatCount="1" dur="4s" keyTimes="0;0.667;0.729;1" values="none;inline;none;none"/></g><g display="none"><use xlink:href="#a" transform="matrix(.981 -.073 .073 1.043 48.4 54.05)"><animateTransform attributeName="transform" additive="replace" type="translate" dur="4s" keyTimes="0;0.656;0.657;1" values="61.941,60.013;61.941,60.013;61.922,60.015;61.922,60.015" calcMode="discrete" fill="freeze"/><animateTransform attributeName="transform" additive="sum" type="rotate" dur="4s" keyTimes="0;1" values="-4.025,0,0;-4.025,0,0" calcMode="discrete" fill="freeze"/><animateTransform attributeName="transform" additive="sum" type="skewY" dur="4s" keyTimes="0;1" values="-0.235;-0.235" calcMode="discrete" fill="freeze"/><animateTransform attributeName="transform" additive="sum" type="scale" dur="4s" keyTimes="0;0.656;0.657;1" values="0.984,1.045;0.984,1.045;0.984,0.689;0.984,0.689" calcMode="discrete" fill="freeze"/><animateTransform attributeName="transform" additive="sum" type="translate" dur="4s" keyTimes="0;0.656;0.657;1" values="-13.3,-6.65;-13.3,-6.65;-13.3,-6.6;-13.3,-6.6" calcMode="discrete" fill="freeze"/></use><animate attributeName="display" fill="freeze" repeatCount="1" dur="4s" keyTimes="0;0.406;0.667;1" values="none;inline;none;none"/></g><g display="none"><use xlink:href="#a" transform="matrix(.981 -.073 .073 1.043 48.4 54.05)"><animateTransform attributeName="transform" additive="replace" type="translate" dur="4s" keyTimes="0;0.385;0.386;1" values="61.941,60.013;61.941,60.013;61.922,60.015;61.922,60.015" calcMode="discrete" fill="freeze"/><animateTransform attributeName="transform" additive="sum" type="rotate" dur="4s" keyTimes="0;1" values="-4.025,0,0;-4.025,0,0" calcMode="discrete" fill="freeze"/><animateTransform attributeName="transform" additive="sum" type="skewY" dur="4s" keyTimes="0;1" values="-0.235;-0.235" calcMode="discrete" fill="freeze"/><animateTransform attributeName="transform" additive="sum" type="scale" dur="4s" keyTimes="0;0.385;0.386;1" values="0.984,1.045;0.984,1.045;0.984,0.689;0.984,0.689" calcMode="discrete" fill="freeze"/><animateTransform attributeName="transform" additive="sum" type="translate" dur="4s" keyTimes="0;0.385;0.386;1" values="-13.3,-6.65;-13.3,-6.65;-13.3,-6.6;-13.3,-6.6" calcMode="discrete" fill="freeze"/></use><animate attributeName="display" fill="freeze" repeatCount="1" dur="4s" keyTimes="0;0.292;0.396;1" values="none;inline;none;none"/></g><g display="none"><use xlink:href="#b" transform="matrix(.981 -.073 .074 1.045 48.4 54.05)"/><animate attributeName="display" fill="freeze" repeatCount="1" dur="4s" keyTimes="0;0.271;0.292;0.396;0.406;1" values="none;inline;none;inline;none;none"/></g><g display="none"><use xlink:href="#a" transform="matrix(.981 -.073 .081 1.146 48.35 53.35)"><animateTransform attributeName="transform" additive="replace" type="translate" dur="4s" keyTimes="0;0.135;0.146;0.156;0.167;0.26;0.261;1" values="61.935,59.943;61.935,59.943;61.968,60.021;61.951,59.989;61.941,60.013;61.941,60.013;61.922,60.015;61.922,60.015" calcMode="discrete" fill="freeze"/><animateTransform attributeName="transform" additive="sum" type="rotate" dur="4s" keyTimes="0;0.135;0.146;0.156;0.167;1" values="-4.025,0,0;-4.025,0,0;-4.007,0,0;-4.007,0,0;-4.025,0,0;-4.025,0,0" calcMode="discrete" fill="freeze"/><animateTransform attributeName="transform" additive="sum" type="skewY" dur="4s" keyTimes="0;0.135;0.146;0.156;0.167;1" values="-0.235;-0.235;-0.246;-0.246;-0.235;-0.235" calcMode="discrete" fill="freeze"/><animateTransform attributeName="transform" additive="sum" type="scale" dur="4s" keyTimes="0;0.135;0.146;0.156;0.167;0.26;0.261;1" values="0.984,1.149;0.984,1.149;0.984,1.114;0.984,1.08;0.984,1.045;0.984,1.045;0.984,0.689;0.984,0.689" calcMode="discrete" fill="freeze"/><animateTransform attributeName="transform" additive="sum" type="translate" dur="4s" keyTimes="0;0.135;0.146;0.156;0.167;0.26;0.261;1" values="-13.3,-6.6;-13.3,-6.6;-13.3,-6.65;-13.35,-6.65;-13.3,-6.65;-13.3,-6.65;-13.3,-6.6;-13.3,-6.6" calcMode="discrete" fill="freeze"/></use><animate attributeName="display" fill="freeze" repeatCount="1" dur="4s" keyTimes="0;0.135;0.271;1" values="none;inline;none;none"/></g><g display="none"><g transform="matrix(.951 .004 -.014 1.047 49 51.6)"><animateTransform attributeName="transform" additive="replace" type="translate" dur="4s" keyTimes="0;0.104;0.115;0.125;1" values="61.55,58.623;61.55,58.623;61.748,59.316;61.933,59.978;61.933,59.978" calcMode="discrete" fill="freeze"/><animateTransform attributeName="transform" additive="sum" type="rotate" dur="4s" keyTimes="0;0.104;0.115;0.125;1" values="0.788,0,0;0.788,0,0;0.527,0,0;0.428,0,0;0.428,0,0" calcMode="discrete" fill="freeze"/><animateTransform attributeName="transform" additive="sum" type="skewY" dur="4s" keyTimes="0;0.104;0.115;0.125;1" values="-0.521;-0.521;-0.47;-0.236;-0.236" calcMode="discrete" fill="freeze"/><animateTransform attributeName="transform" additive="sum" type="scale" dur="4s" keyTimes="0;0.104;0.115;0.125;1" values="0.951,1.047;0.951,1.047;0.967,1.098;0.984,1.149;0.984,1.149" calcMode="discrete" fill="freeze"/><animateTransform attributeName="transform" additive="sum" type="translate" dur="4s" keyTimes="0;0.104;0.115;0.125;1" values="-13.3,-6.65;-13.3,-6.65;-13.35,-6.65;-13.25,-6.6;-13.25,-6.6" calcMode="discrete" fill="freeze"/><path fill="none" stroke="#0E2D38" stroke-width="2" stroke-linecap="round" stroke-linejoin="round" d="M10.1 7.4l-6 3.5m6-3.5L3.85 3.1M17.3 6.75l6.55 2.35M17.3 6.75l5.35-5.4"/></g><animate attributeName="display" fill="freeze" repeatCount="1" dur="4s" keyTimes="0;0.104;0.135;1" values="none;inline;none;none"/></g><g><use xlink:href="#b" transform="matrix(.981 -.073 .074 1.045 48.4 54.05)"><animateTransform attributeName="transform" additive="replace" type="translate" dur="4s" keyTimes="0;0.042;0.052;0.063;0.073;0.083;0.094;0.095;1" values="61.942,60.026;61.942,60.026;62.029,60.96;62.176,62.103;62.183,63.044;62.385,64.036;62.385,64.036;62.385,62.536;62.385,62.536" calcMode="discrete" fill="freeze"/><animateTransform attributeName="transform" additive="sum" type="rotate" dur="4s" keyTimes="0;0.042;0.052;0.063;0.073;0.083;1" values="-4.025,0,0;-4.025,0,0;-4.027,0,0;-4.045,0,0;-4.253,0,0;-4.335,0,0;-4.335,0,0" calcMode="discrete" fill="freeze"/><animateTransform attributeName="transform" additive="sum" type="skewY" dur="4s" keyTimes="0;0.042;0.052;0.063;0.073;0.083;1" values="-0.236;-0.236;-0.02;0.017;0.245;0.378;0.378" calcMode="discrete" fill="freeze"/><animateTransform attributeName="transform" additive="sum" type="scale" dur="4s" keyTimes="0;0.042;0.052;0.063;0.073;0.083;1" values="0.984,1.048;0.984,1.048;0.995,1.039;1.005,1.031;1.016,1.023;1.026,1.015;1.026,1.015" calcMode="discrete" fill="freeze"/><animateTransform attributeName="transform" additive="sum" type="translate" dur="4s" keyTimes="0;0.052;0.063;0.073;0.083;1" values="-13.3,-6.65;-13.3,-6.65;-13.3,-6.75;-13.25,-6.7;-13.35,-6.7;-13.35,-6.7" calcMode="discrete" fill="freeze"/></use><animate attributeName="display" fill="freeze" repeatCount="1" dur="4s" keyTimes="0;0.104;1" values="inline;none;none"/></g><g display="none"><path fill="none" stroke="#F90" stroke-width="5" stroke-linecap="round" stroke-linejoin="round" d="M48.15 80.9q6 1.1 10.8-.85m-10.8.85q-6.65-1.05-10.6-5.4"/><animate attributeName="display" fill="freeze" repeatCount="1" dur="4s" keyTimes="0;0.135;0.656;1" values="none;inline;none;none"/></g><g display="none"><path fill="none" stroke="#F90" stroke-width="5" stroke-linecap="round" stroke-linejoin="round" d="M35.65 73.55q.75 4.85 4.8 8.6 3.6 3.5 7.8 4.4"/><animate attributeName="display" fill="freeze" repeatCount="1" dur="4s" keyTimes="0;0.125;0.135;0.656;0.667;1" values="none;inline;none;inline;none;none"/></g><g display="none"><path fill="none" stroke="#F90" stroke-width="5" stroke-linecap="round" stroke-linejoin="round" d="M32.7 83.35q1.25 5.95 4.8 9.7m-4.8-9.7q-1.45-6.45 1-11.8"/><animate attributeName="display" fill="freeze" repeatCount="1" dur="4s" keyTimes="0;0.115;0.125;0.667;0.677;1" values="none;inline;none;inline;none;none"/></g><g display="none"><use xlink:href="#c" transform="translate(47.5 47.1)"/><animate attributeName="display" fill="freeze" repeatCount="1" dur="4s" keyTimes="0;0.906;1" values="none;inline;inline"/></g><g display="none"><use xlink:href="#c" transform="translate(47.5 46.1)"><animateTransform attributeName="transform" additive="replace" type="translate" dur="4s" keyTimes="0;0.739;0.74;0.885;0.886;1" values="47.5,46.1;47.5,46.1;47.5,47.1;47.5,47.1;47.5,48;47.5,48" calcMode="discrete" fill="freeze"/></use><animate attributeName="display" fill="freeze" repeatCount="1" dur="4s" keyTimes="0;0.729;0.896;1" values="none;inline;none;none"/></g><g display="none"><use xlink:href="#d" transform="rotate(5.13 -485.313 555.458)"><animateTransform attributeName="transform" additive="replace" type="translate" dur="4s" keyTimes="0;0.656;0.657;1" values="48.059,45.919;48.059,45.919;48.058,47.919;48.058,47.919" calcMode="discrete" fill="freeze"/><animateTransform attributeName="transform" additive="sum" type="rotate" dur="4s" keyTimes="0;1" values="5.175,0,0;5.175,0,0" calcMode="discrete" fill="freeze"/></use><animate attributeName="display" fill="freeze" repeatCount="1" dur="4s" keyTimes="0;0.406;0.667;1" values="none;inline;none;none"/></g><g display="none"><use xlink:href="#d" transform="rotate(5.13 -485.313 555.458)"><animateTransform attributeName="transform" additive="replace" type="translate" dur="4s" keyTimes="0;0.385;0.386;1" values="48.059,45.919;48.059,45.919;48.059,47.669;48.059,47.669" calcMode="discrete" fill="freeze"/><animateTransform attributeName="transform" additive="sum" type="rotate" dur="4s" keyTimes="0;1" values="5.175,0,0;5.175,0,0" calcMode="discrete" fill="freeze"/></use><animate attributeName="display" fill="freeze" repeatCount="1" dur="4s" keyTimes="0;0.292;0.396;1" values="none;inline;none;none"/></g><g display="none"><use xlink:href="#d" transform="rotate(5.13 -468.68 554.72)"><animateTransform attributeName="transform" additive="replace" type="translate" dur="4s" keyTimes="0;0.135;0.146;0.156;0.167;0.26;0.261;1" values="61.278,49.783;61.278,49.783;61.223,50.319;61.273,50.824;61.229,51.279;61.229,51.279;61.229,53.029;61.229,53.029" calcMode="discrete" fill="freeze"/><animateTransform attributeName="transform" additive="sum" type="rotate" dur="4s" keyTimes="0;0.135;0.146;0.156;0.167;1" values="5.175,0,0;5.175,0,0;5.047,0,0;5.047,0,0;5.175,0,0;5.175,0,0" calcMode="discrete" fill="freeze"/><animateTransform attributeName="transform" additive="sum" type="scale" dur="4s" keyTimes="0;0.135;0.146;0.156;0.167;1" values="1,1;1,1;0.999,0.999;0.999,0.999;1,1;1,1" calcMode="discrete" fill="freeze"/><animateTransform attributeName="transform" additive="sum" type="translate" dur="4s" keyTimes="0;0.135;0.146;0.156;0.167;1" values="-13.65,-4.15;-13.65,-4.15;-13.6,-4.2;-13.65,-4.2;-13.6,-4.15;-13.6,-4.15" calcMode="discrete" fill="freeze"/></use><animate attributeName="display" fill="freeze" repeatCount="1" dur="4s" keyTimes="0;0.135;0.271;1" values="none;inline;none;none"/></g><g display="none"><path fill="none" stroke="#F90" stroke-width="2" stroke-linecap="round" stroke-linejoin="round" d="M73.3 17.05l.75-.5m-11.3-5.25l.25-.8M47.1 13l-.45-.7m-8.25 8.95l-.85-.3"/><animate attributeName="display" fill="freeze" repeatCount="1" dur="4s" keyTimes="0;0.156;0.167;1" values="none;inline;none;none"/></g><g display="none"><path fill="none" stroke="#F90" stroke-width="2" stroke-linecap="round" stroke-linejoin="round" d="M47.3 17.6l-.45-.8m24.85 5.3l.75-.45M62.35 16l.25-.85m-22.75 10.7l-.85-.2"/><animate attributeName="display" fill="freeze" repeatCount="1" dur="4s" keyTimes="0;0.135;0.156;1" values="none;inline;none;none"/></g><g display="none"><path fill="none" stroke="#F90" stroke-width="2" stroke-linecap="round" stroke-linejoin="round" d="M49.5 21.35l-1.45-2.95M70 24.25l2.5-2.2M61.4 19.8l.65-3.2M42.3 27.85l-3.05-1.5"/><animate attributeName="display" fill="freeze" repeatCount="1" dur="4s" keyTimes="0;0.115;0.135;1" values="none;inline;none;none"/></g></svg>