<svg baseProfile="basic" width="176" height="129" xmlns="http://www.w3.org/2000/svg"><path fill="#FFF" d="M-.05-.15V129.2h176.1V-.15H-.05"/><path fill="#317C99" d="M100.7 78.25h-3.35l1.05 63.3h11.7l-9.4-63.3"/><path fill="#FF5B80" d="M110.1 141.55H98.4l.3 19.15q-.1 5 4.15 5.45h6.3q4.2-.25 3.85-5l-2.9-19.6"/><path fill="#317C99" d="M75.5 78.25h-3.35l1.05 63.3h11.7l-9.4-63.3"/><path fill="#FF5B80" d="M73.5 160.7q-.1 5 4.15 5.45h6.3q4.2-.25 3.85-5l-2.9-19.6H73.2l.3 19.15"/><path fill="none" stroke="#0D2B35" stroke-width="2" stroke-linecap="round" stroke-linejoin="round" d="M122.2 58.3q9.3-3 14.4-1.4 5.6 1.8 3.15 8.35-2.85 7.5-16 19.45m-1.55-26.4q-9.5 3-17.7 9.3"/><path fill="none" stroke="#0D2B35" stroke-width="2" stroke-linecap="round" stroke-linejoin="round" d="M122.2 58.3q9.3-3 14.4-1.4 5.6 1.8 3.15 8.35-2.85 7.5-16 19.45m-1.55-26.4q-9.5 3-17.7 9.3"/><path fill="none" stroke="#1A3F4E" stroke-width="3" stroke-linecap="round" stroke-linejoin="round" d="M122.2 58.3q9.3-3 14.4-1.4 5.6 1.8 3.15 8.35-2.85 7.5-16 19.45m-1.55-26.4q-9.5 3-17.7 9.3m25 16.75q-2.05 1.05-5.5 1.1 2.45 2.55 5.7 3.15m-5.7-3.15q.05 3.55 2.3 6.5"/><path fill="#FF5B80" d="M99.809 52.436L87.927 36.509q-4.812-5.59-8.4.617l-10.014 17.62 30.296-2.31"/><path fill="#317C99" d="M53.47 83.078l-2.591 4.606q-1.894 3.303-.24 5.45 1.555 1.997 4.704 1.74l22.047-1.643 39.495-2.83q4.6-.059 6.144-2.512 1.546-2.453-1.111-5.847l-2.808-3.695-19.302-25.911-30.295 2.31L53.47 83.078"/><path fill="none" stroke="#317C99" stroke-width="3" stroke-linecap="round" stroke-linejoin="round" d="M83.57 32.968l.149-.35-.616-7.75m.616 7.75l4.036-6.858m-4.185 7.208l-5.063-6.49"/><path fill="#FF5B80" d="M70.9 81.85l8.2 5.45q.3-.25.55-.65 1.35-2.1 1.1-4.35-.3-2.3-1.9-3.4-1.75-1.15-3.95-.5-2.2.65-3.55 2.75-.25.4-.45.7"/><path fill="none" stroke="#0E2D38" stroke-width="3" stroke-linecap="round" stroke-linejoin="round" d="M86.85 87.05q-2.15.7-4.7.7-5.1 0-8.7-2.8-3.6-2.75-3.6-6.7 0-.6.1-1.2"/><path fill="none" stroke="#0E2D38" stroke-width="2" stroke-linecap="round" stroke-linejoin="round" d="M100.3 60l-8.6 1.35m-16.4 2.7l9.85-1.55"/><path fill="#0E2D38" d="M94.35 64.55q.75 1.05 1.95 1.2 1.2.2 2.15-.6 1-.6 1.2-1.85.15-1.2-.6-2.25-.7-.9-1.9-1.1-1.2-.15-2.2.5-.95.8-1.1 2-.2 1.25.5 2.1m-12.6 3.3q1.05-.6 1.3-1.85.25-1.1-.4-2.2-.6-1-1.7-1.35-1.25-.2-2.25.45-1.1.65-1.3 1.75-.35 1.2.3 2.15.65 1.15 1.85 1.35 1.15.35 2.2-.3"/><g display="none"><path fill="#5CB8D6" d="M113.45 86.15q2.5-3.8 2.25-8.7L94 79.9q.8 4.85 4.1 7.95 3.65 3.65 8.2 3.15 4.45-.5 7.15-4.85"/><path fill="none" stroke="#5CB8D6" stroke-width="3" stroke-linecap="round" stroke-linejoin="round" d="M115.7 77.45L94 79.9"/><path fill="#5CB8D6" d="M114.5 93.45q-3.65-3.55-8.1-3.1-4.55.55-7.25 4.85-2.55 3.8-2.2 8.65l21.65-2.45q-.85-4.85-4.1-7.95"/><path fill="none" stroke="#5CB8D6" stroke-width="3" stroke-linecap="round" stroke-linejoin="round" d="M96.95 103.85l21.65-2.45"/><path fill="#FF5B80" d="M113.15 97.2q-2.75-1.9-6.2-1.5-3.55.35-5.8 2.85-1.4 1.5-1.8 3.25l16.25-1.85q-.8-1.6-2.45-2.75m-13-10.25q2.55 1.95 5.8 1.55 3.25-.35 5.2-2.8.95-1.1 1.4-2.3L98.25 85q.75 1.1 1.9 1.95"/><path fill="#FF5B80" d="M105.4 89.45q.3.2.7.2.4-.1.6-.35.25-.3.2-.65-.05-.4-.35-.65-.25-.25-.65-.15-.4 0-.65.3-.2.25-.15.65.05.35.3.65m.25 4.1q.1.35.3.55.35.3.75.2.35 0 .55-.3.3-.3.2-.65 0-.4-.35-.6-.25-.25-.6-.2-.4.05-.7.35-.15.25-.15.65m.35 2.4q.1.35.3.55.35.3.75.2.35 0 .55-.3.3-.3.2-.65 0-.4-.35-.6-.25-.25-.6-.2-.4.05-.7.35-.15.25-.15.65"/><animate attributeName="display" repeatCount="indefinite" dur="1.708s" keyTimes="0;0.049;0.098;0.146;0.195;0.244;0.293;0.341;0.39;0.439;0.488;0.537;0.585;0.634;0.683;0.732;0.78;0.829;0.878;0.927;0.976;1" values="none;inline;none;inline;none;inline;none;inline;none;inline;none;inline;none;inline;none;inline;none;inline;none;inline;none;none"/></g><g><path fill="#5CB8D6" d="M113.45 86.15q2.5-3.8 2.25-8.7L94 79.9q.8 4.85 4.1 7.95 3.65 3.65 8.2 3.15 4.45-.5 7.15-4.85"/><path fill="none" stroke="#5CB8D6" stroke-width="3" stroke-linecap="round" stroke-linejoin="round" d="M115.7 77.45L94 79.9"/><path fill="#5CB8D6" d="M114.5 93.45q-3.65-3.55-8.1-3.1-4.55.55-7.25 4.85-2.55 3.8-2.2 8.65l21.65-2.45q-.85-4.85-4.1-7.95"/><path fill="none" stroke="#5CB8D6" stroke-width="3" stroke-linecap="round" stroke-linejoin="round" d="M96.95 103.85l21.65-2.45"/><path fill="#FF5B80" d="M113.15 97.2q-2.75-1.9-6.2-1.5-3.55.35-5.8 2.85-1.4 1.5-1.8 3.25l16.25-1.85q-.8-1.6-2.45-2.75m-13-10.25q2.55 1.95 5.8 1.55 3.25-.35 5.2-2.8.95-1.1 1.4-2.3L98.25 85q.75 1.1 1.9 1.95m5.4 4.05q.3.2.7.2.4-.1.6-.35.25-.3.2-.65-.05-.4-.35-.65-.25-.25-.65-.15-.4 0-.65.3-.2.25-.15.65.05.35.3.65"/><path fill="#FF5B80" d="M105.8 95.1q.1.35.3.55.35.3.75.2.35 0 .55-.3.3-.3.2-.65 0-.4-.35-.6-.25-.25-.6-.2-.4.05-.7.35-.15.25-.15.65"/><animate attributeName="display" repeatCount="indefinite" dur="1.708s" keyTimes="0;0.049;0.098;0.146;0.195;0.244;0.293;0.341;0.39;0.439;0.488;0.537;0.585;0.634;0.683;0.732;0.78;0.829;0.878;0.927;0.976;1" values="inline;none;inline;none;inline;none;inline;none;inline;none;inline;none;inline;none;inline;none;inline;none;inline;none;inline;inline"/></g><g><path fill="none" stroke="#1A3F4E" stroke-width="3" stroke-linecap="round" stroke-linejoin="round" d="M62.9 104.95q2.45 7.35 6.6 11.65 4.7 4.7 11.45 3.2 8.8-1.9 17.65-14.4m-35.7-.45q-3.2-10.2-2.3-24.75"/><path fill="none" stroke="#1A3F4E" stroke-width="3" stroke-linecap="round" stroke-linejoin="round" d="M100.8 112q-2.3-2.9-2.6-6.1 3.65-.4 5.5-1.5m-5.5 1.5q2.65 2.45 5.95 2.85"/><animate attributeName="mask" repeatCount="indefinite" dur="1.708s" keyTimes="0;0;1" values="null;none;none"/></g></svg>