<?xml version="1.0" encoding="utf-8"?><svg xmlns:xlink="http://www.w3.org/1999/xlink" id="amarillo" image-rendering="auto" baseProfile="basic" version="1.1" x="0px" y="0px" width="77" height="77" xmlns="http://www.w3.org/2000/svg"><defs><symbol id="pierna_t1" overflow="visible"><path fill="none" stroke="#F90" stroke-width="5" stroke-linecap="round" stroke-linejoin="round" d="M0,0L0.4,19.55"/>
</symbol></defs><g id="Scene_1" overflow="visible"><use xlink:href="#pierna_t1" transform="matrix(1 0 0 1 25.45 54.85)"/><use xlink:href="#pierna_t1" transform="matrix(1 0 0 1 52.75 54.85)"/><g id="brazo_t2" transform="matrix(1 0 0 1 4.3 52.15)"><path fill="none" stroke="#F90" stroke-width="5" stroke-linecap="round" stroke-linejoin="round" d="M3.2,6.5Q0.4,10.8 0,15.1M3.2,6.5Q6.25,1.75 10.45,0"/></g><g id="brazo_t3" transform="matrix(1 0 0 1 63.95 51.7)"><path fill="none" stroke="#F90" stroke-width="5" stroke-linecap="round" stroke-linejoin="round" d="M7.25,6.5Q10.05,10.8 10.45,15.1M7.25,6.5Q4.2,1.75 0,0"/></g><g id="torso_t" transform="matrix(1 0 0 1 6.1 2.75)"><g id="fleco_t" transform="matrix(1 0 0 1 29.85 -0.049)"><path fill="none" stroke="#FC3" stroke-width="3" stroke-linecap="round" stroke-linejoin="round" d="M3.6,3.35L3.5,0"/><path fill="none" stroke="#FC3" stroke-width="3" stroke-linecap="round" stroke-linejoin="round" d="M0,1.9L1.5,4"/><path fill="none" stroke="#FC3" stroke-width="3" stroke-linecap="round" stroke-linejoin="round" d="M7.3,1.85L5.7,3.9"/></g><path fill="#F90" d="M45.75,14.9L41.55,8.85Q37.75,3.1 33.55,3.05 32.15,3.05 30.8,3.65 30,3.95 29.35,4.55 27.3,5.85 25.3,8.65L20.7,14.9 45.75,14.9"/><path fill="#FFB933" d="M49.9,20.95L45.75,14.9 20.7,14.9 16.4,20.5 3.7,37.5Q3.6,37.6 3.5,37.75 -0.75,45.85 2.9,52.3 5.9,57.6 12.85,59.1L55.4,58.95Q59.9,57.35 62.35,53.4 66.1,47.5 62.65,39.65 62.5,39.4 62.35,39.1L56.75,30.9 49.9,20.95"/><path fill="#FFA702" d="M51.25,36.95Q49.25,37.2 47.85,38.8 46.55,40.45 46.75,42.55 46.9,44.65 48.45,46 50,47.35 52.05,47.1 54.05,46.9 55.4,45.25 56.7,43.6 56.55,41.5 56.35,39.4 54.8,38.05 53.25,36.75 51.25,36.95"/><path fill="#FFA702" d="M18.2,47.1Q20.2,46.9 21.55,45.25 22.85,43.6 22.7,41.5 22.5,39.4 20.95,38.05 19.4,36.75 17.4,36.95 15.4,37.2 14,38.8 12.7,40.45 12.9,42.55 13.05,44.65 14.6,46 16.15,47.35 18.2,47.1"/></g><path fill="#0E2D38" stroke="#0E2D38" stroke-width="2" stroke-linecap="round" stroke-linejoin="round" d="M42.801,52.001Q44.801,52.001 46.201,50.351 47.601,48.851 47.701,46.751L37.901,46.751Q37.901,48.901 39.251,50.401 40.751,52.001 42.801,52.001"/><g id="ojos1" transform="matrix(1 0 0 1 28.45 28.6)"><path fill="#FFF" d="M10.15,2.05Q8.7,0.4 6.25,0.25 3.85,0.1 1.95,1.55 0.15,3.2 0,5.6 -0.15,8 1.5,9.65 3.1,11.6 5.5,11.75 7.95,11.9 9.7,10.15 11.55,8.75 11.7,6.35 11.85,3.95 10.15,2.05"/><path fill="#0E2D38" d="M7.2,5.05L8.7,3.3Q7.75,2.35 6.2,2.25 4.6,2.15 3.35,3.1 2.15,4.2 2.05,5.8 1.95,7.4 3.05,8.5 4.1,9.8 5.7,9.9 7.35,10 8.5,8.85 9.75,7.9 9.85,6.3 9.9,5.8 9.8,5.4L7.2,5.05"/><path fill="#FFF" d="M24.7,9.9Q26.55,8.5 26.7,6.1 26.85,3.7 25.15,1.8 23.7,0.15 21.25,0 18.85,-0.15 16.95,1.3 15.15,2.95 15,5.35 14.85,7.75 16.5,9.4 18.1,11.35 20.5,11.5 22.95,11.65 24.7,9.9"/><path fill="#0E2D38" d="M23.85,2.95Q22.9,2 21.35,1.9 19.75,1.8 18.5,2.75 17.3,3.85 17.2,5.45 17.1,7.05 18.2,8.15 19.25,9.45 20.85,9.55 22.5,9.65 23.65,8.5 24.9,7.55 25,5.95 25.05,5.45 24.95,5.05L22.35,4.7 23.85,2.95"/></g></g></svg>