<?xml version="1.0" encoding="utf-8"?><svg xmlns:xlink="http://www.w3.org/1999/xlink" id="error_toc3" image-rendering="auto" baseProfile="basic" version="1.1" x="0px" y="0px" width="176" height="129" xmlns="http://www.w3.org/2000/svg"><g id="Scene_1_l1" overflow="visible"><path fill="#FFF" d="M176.05,-0.15L-0.05,-0.15 -0.05,129.2 176.05,129.2 176.05,-0.15"/><path fill="#317C99" d="M100.7,78.25L97.35,78.25 98.4,141.55 110.1,141.55 100.7,78.25"/><path fill="#FF5B80" d="M110.1,141.55L98.4,141.55 98.7,160.7Q98.6,165.7 102.85,166.15L109.15,166.15Q113.35,165.9 113,161.15L110.1,141.55"/><path fill="#317C99" d="M75.5,78.25L72.15,78.25 73.2,141.55 84.9,141.55 75.5,78.25"/><path fill="#FF5B80" d="M73.5,160.7Q73.4,165.7 77.65,166.15L83.95,166.15Q88.15,165.9 87.8,161.15L84.9,141.55 73.2,141.55 73.5,160.7"/><g style="display:none;"><path fill="none" stroke="#1A3F4E" stroke-width="3" stroke-linecap="round" stroke-linejoin="round" d="M123.45,65.15Q140.3,60.85 161.4,55.1M123.45,65.15Q106.6,69.45 106.55,69.45"/><path fill="none" stroke="#1A3F4E" stroke-width="3" stroke-linecap="round" stroke-linejoin="round" d="M161.85,54.95L161.9,55Q165.6,54.5 164.55,57.25M161.85,54.95Q161.45,48.85 157.55,47.5M161.85,54.95Q164.55,50.55 166.15,52.65"/><animate attributeName="display" fill="freeze" repeatCount="1" dur="2.625s" keyTimes="0;0.27;1" values="none;inline;inline"/></g><g style="display:none;"><path fill="none" stroke="#1A3F4E" stroke-width="3" stroke-linecap="round" stroke-linejoin="round" d="M106.65,70L110.65,68.05Q115.75,65.65 122.25,63.45 141.05,56.95 163.95,54.25"/><path fill="none" stroke="#1A3F4E" stroke-width="3" stroke-linecap="round" stroke-linejoin="round" d="M168.7,52.2Q167.25,50 164.25,54.15L164.3,54.2Q168.05,54 166.8,56.65M164.25,54.15Q164.3,48.05 160.5,46.45"/><animate attributeName="display" fill="freeze" repeatCount="1" dur="2.625s" keyTimes="0;0.175;0.27;1" values="none;inline;none;none"/></g><g style="display:none;"><path fill="none" stroke="#1A3F4E" stroke-width="3" stroke-linecap="round" stroke-linejoin="round" d="M104.75,66.8L109.2,67.05Q114.85,67.1 120.5,66.2 138.7,63.4 150.65,52.15"/><path fill="none" stroke="#1A3F4E" stroke-width="3" stroke-linecap="round" stroke-linejoin="round" d="M150.95,51.5L151,51.5Q152.6,49.25 154.95,49.95M150.95,51.5Q146.55,49.95 146.6,45.65M150.95,51.5Q149.25,46.7 152.35,46.05"/><animate attributeName="display" fill="freeze" repeatCount="1" dur="2.625s" keyTimes="0;0.127;0.175;1" values="none;inline;none;none"/></g><g style="display:none;"><path fill="none" stroke="#0D2B35" stroke-width="2" stroke-linecap="round" stroke-linejoin="round" d="M123.7,61.8Q133.3,58.8 138.6,60.4 144.4,62.2 141.85,68.75 138.9,76.25 125.3,88.2M123.7,61.8Q113.85,64.8 105.4,71.1"/><path fill="none" stroke="#0D2B35" stroke-width="2" stroke-linecap="round" stroke-linejoin="round" d="M123.7,61.8Q133.3,58.8 138.6,60.4 144.4,62.2 141.85,68.75 138.9,76.25 125.3,88.2M123.7,61.8Q113.85,64.8 105.4,71.1"/><path fill="none" stroke="#1A3F4E" stroke-width="3" stroke-linecap="round" stroke-linejoin="round" d="M123.7,61.8Q133.3,58.8 138.6,60.4 144.4,62.2 141.85,68.75 138.9,76.25 125.3,88.2M123.7,61.8Q113.85,64.8 105.4,71.1"/><path fill="none" stroke="#1A3F4E" stroke-width="3" stroke-linecap="round" stroke-linejoin="round" d="M130.8,87.8Q128.75,88.85 125.3,88.9 127.75,91.45 131,92.05M125.3,88.9Q125.35,92.45 127.6,95.4"/><animate attributeName="display" fill="freeze" repeatCount="1" dur="2.625s" keyTimes="0;0.079;0.127;1" values="none;inline;none;none"/></g><g style="display:none;"><path fill="none" stroke="#0D2B35" stroke-width="2" stroke-linecap="round" stroke-linejoin="round" d="M122.2,59.7Q131.5,56.7 136.6,58.3 142.2,60.1 139.75,66.65 136.9,74.15 123.75,86.1M122.2,59.7Q112.7,62.7 104.5,69"/><path fill="none" stroke="#0D2B35" stroke-width="2" stroke-linecap="round" stroke-linejoin="round" d="M122.2,59.7Q131.5,56.7 136.6,58.3 142.2,60.1 139.75,66.65 136.9,74.15 123.75,86.1M122.2,59.7Q112.7,62.7 104.5,69"/><path fill="none" stroke="#1A3F4E" stroke-width="3" stroke-linecap="round" stroke-linejoin="round" d="M122.2,59.7Q131.5,56.7 136.6,58.3 142.2,60.1 139.75,66.65 136.9,74.15 123.75,86.1M122.2,59.7Q112.7,62.7 104.5,69"/><path fill="none" stroke="#1A3F4E" stroke-width="3" stroke-linecap="round" stroke-linejoin="round" d="M129.5,85.35Q127.45,86.4 124,86.45 126.45,89 129.7,89.6M124,86.45Q124.05,90 126.3,92.95"/><animate attributeName="display" fill="freeze" repeatCount="1" dur="2.625s" keyTimes="0;0.048;0.079;1" values="none;inline;none;none"/></g><g><path fill="none" stroke="#0D2B35" stroke-width="2" stroke-linecap="round" stroke-linejoin="round" d="M122.2,58.3Q131.5,55.3 136.6,56.9 142.2,58.7 139.75,65.25 136.9,72.75 123.75,84.7M122.2,58.3Q112.7,61.3 104.5,67.6"/><path fill="none" stroke="#0D2B35" stroke-width="2" stroke-linecap="round" stroke-linejoin="round" d="M122.2,58.3Q131.5,55.3 136.6,56.9 142.2,58.7 139.75,65.25 136.9,72.75 123.75,84.7M122.2,58.3Q112.7,61.3 104.5,67.6"/><path fill="none" stroke="#1A3F4E" stroke-width="3" stroke-linecap="round" stroke-linejoin="round" d="M122.2,58.3Q131.5,55.3 136.6,56.9 142.2,58.7 139.75,65.25 136.9,72.75 123.75,84.7M122.2,58.3Q112.7,61.3 104.5,67.6"/><path fill="none" stroke="#1A3F4E" stroke-width="3" stroke-linecap="round" stroke-linejoin="round" d="M129.5,84.35Q127.45,85.4 124,85.45 126.45,88 129.7,88.6M124,85.45Q124.05,89 126.3,91.95"/><animate attributeName="display" fill="freeze" repeatCount="1" dur="2.625s" keyTimes="0;0.048;1" values="inline;none;none"/></g><g id="torso2" transform="matrix(1 -0.002 0.002 1 42.55 23.3)"><animateTransform attributeName="transform" additive="replace" type="translate" dur="2.625s" keyTimes="0;0.047;0.048;0.079;0.08;0.127;0.128;0.174;0.175;0.238;0.239;1" values="87.319,58.774;87.319,58.774;87.319,60.174;87.319,60.174;87.39,62.251;87.39,62.251;86.526,55.899;86.526,55.899;87.319,59.474;87.319,59.474;87.319,58.774;87.319,58.774" calcMode="discrete" fill="freeze"/><animateTransform attributeName="transform" additive="sum" type="rotate" dur="2.625s" keyTimes="0;0.079;0.08;0.127;0.128;0.174;0.175;1" values="-0.128,0,0;-0.128,0,0;-0.132,0,0;-0.132,0,0;-0.121,0,0;-0.121,0,0;-0.128,0,0;-0.128,0,0" calcMode="discrete" fill="freeze"/><animateTransform attributeName="transform" additive="sum" type="skewY" dur="2.625s" keyTimes="0;0.079;0.08;0.127;0.128;0.174;0.175;1" values="0;0;0.009;0.009;-0.014;-0.014;0;0" calcMode="discrete" fill="freeze"/><animateTransform attributeName="transform" additive="sum" type="scale" dur="2.625s" keyTimes="0;0.079;0.08;0.127;0.128;0.174;0.175;1" values="1,1;1,1;1.035,1;1.035,1;0.965,1.02;0.965,1.02;1,1;1,1" calcMode="discrete" fill="freeze"/><animateTransform attributeName="transform" additive="sum" type="translate" dur="2.625s" keyTimes="0;0.079;0.08;0.127;0.128;0.174;0.175;1" values="-44.7,-35.6;-44.7,-35.6;-44.65,-35.55;-44.65,-35.55;-44.75,-35.55;-44.75,-35.55;-44.7,-35.6;-44.7,-35.6" calcMode="discrete" fill="freeze"/><path fill="#FF5B80" d="M57.2,29.25L45.35,13.3Q40.55,7.7 36.95,13.9L26.9,31.5 57.2,29.25"/><path fill="#317C99" d="M10.8,59.8L8.2,64.4Q6.3,67.7 7.95,69.85 9.5,71.85 12.65,71.6L34.7,70 74.2,67.25Q78.8,67.2 80.35,64.75 81.9,62.3 79.25,58.9L76.45,55.2 57.2,29.25 26.9,31.5 10.8,59.8"/><path fill="none" stroke="#317C99" stroke-width="3" stroke-linecap="round" stroke-linejoin="round" d="M41,9.75L41.15,9.4 40.55,1.65M41.15,9.4L45.2,2.55M41,9.75L35.95,3.25"/></g><g style="display:none;"><path fill="#0E2D38" stroke="#0E2D38" stroke-width="2" stroke-linecap="round" stroke-linejoin="round" d="M85.15,83.65Q87.85,86.15 91.35,85.9 94.85,85.65 97.15,82.75 99.4,79.9 99.15,76.2L82.2,77.55Q82.55,81.2 85.15,83.65"/><animate attributeName="display" fill="freeze" repeatCount="1" dur="2.625s" keyTimes="0;0.254;1" values="none;inline;inline"/></g><g style="display:none;"><path fill="#0E2D38" stroke="#0E2D38" stroke-width="2" stroke-linecap="round" stroke-linejoin="round" d="M91.4,86.15Q95.05,85.9 97.5,82.85 99.85,79.85 99.6,75.95L81.8,77.4Q82.15,81.2 84.9,83.8 87.7,86.4 91.4,86.15"/><animate attributeName="display" fill="freeze" repeatCount="1" dur="2.625s" keyTimes="0;0.238;0.254;1" values="none;inline;none;none"/></g><g style="display:none;"><path fill="#0E2D38" stroke="#0E2D38" stroke-width="2" stroke-linecap="round" stroke-linejoin="round" d="M99.15,76.9L82.2,78.25Q82.55,81.9 85.15,84.35 87.85,86.85 91.35,86.6 94.85,86.35 97.15,83.45 99.4,80.6 99.15,76.9"/><animate attributeName="display" fill="freeze" repeatCount="1" dur="2.625s" keyTimes="0;0.175;0.238;1" values="none;inline;none;none"/></g><g style="display:none;"><path fill="#0E2D38" stroke="#0E2D38" stroke-width="2" stroke-linecap="round" stroke-linejoin="round" d="M86.2,85Q88.25,84.25 88.55,82.5L75.8,78.7Q75.6,80.5 77.05,82.3 78.8,84.2 81.4,85 84,85.75 86.2,85"/><animate attributeName="display" fill="freeze" repeatCount="1" dur="2.625s" keyTimes="0;0.127;0.175;1" values="none;inline;none;none"/></g><g style="display:none;"><path fill="none" stroke="#0E2D38" stroke-width="3" stroke-linecap="round" stroke-linejoin="round" d="M87.95,89.25Q86.45,89.95 84.65,90.2 81.05,90.65 78.25,89.05 75.4,87.45 75,84.75 74.95,84.35 75,83.95"/><animate attributeName="display" fill="freeze" repeatCount="1" dur="2.625s" keyTimes="0;0.079;0.127;1" values="none;inline;none;none"/></g><g style="display:none;"><path fill="#FF5B80" d="M81.55,88.65Q81.7,88.45 81.85,88.1 82.7,86.35 82.35,84.6 81.9,82.85 80.55,82.15 79.05,81.4 77.4,82.1 75.75,82.8 74.85,84.6 74.7,84.9 74.55,85.15L81.55,88.65"/><path fill="none" stroke="#0E2D38" stroke-width="3" stroke-linecap="round" stroke-linejoin="round" d="M87.55,87.75Q85.9,88.5 83.9,88.75 79.95,89.2 76.85,87.4 73.8,85.5 73.45,82.45 73.4,81.95 73.4,81.5"/><animate attributeName="display" fill="freeze" repeatCount="1" dur="2.625s" keyTimes="0;0.048;0.079;1" values="none;inline;none;none"/></g><g style="display:none;"><path fill="#FF5B80" d="M81.55,87.25Q81.7,87.05 81.85,86.7 82.7,84.95 82.35,83.2 81.9,81.45 80.55,80.75 79.05,80 77.4,80.7 75.75,81.4 74.85,83.2 74.7,83.5 74.55,83.75L81.55,87.25"/><path fill="none" stroke="#0E2D38" stroke-width="3" stroke-linecap="round" stroke-linejoin="round" d="M87.55,86.35Q85.9,87.1 83.9,87.35 79.95,87.8 76.85,86 73.8,84.1 73.45,81.05 73.4,80.55 73.4,80.1"/><animate attributeName="display" fill="freeze" repeatCount="1" dur="2.625s" keyTimes="0;0.016;0.048;1" values="none;inline;none;none"/></g><g><path fill="#FF5B80" d="M71.35,81.15Q71.1,81.55 70.9,81.85L79.1,87.3Q79.4,87.05 79.65,86.65 81,84.55 80.75,82.3 80.45,80 78.85,78.9 77.1,77.75 74.9,78.4 72.7,79.05 71.35,81.15"/><path fill="none" stroke="#0E2D38" stroke-width="3" stroke-linecap="round" stroke-linejoin="round" d="M86.85,87.05Q84.7,87.75 82.15,87.75 77.05,87.75 73.45,84.95 69.85,82.2 69.85,78.25 69.85,77.65 69.95,77.05"/><animate attributeName="display" fill="freeze" repeatCount="1" dur="2.625s" keyTimes="0;0.016;1" values="inline;none;none"/></g><g style="display:none;"><path fill="none" stroke="#0E2D38" stroke-width="2" stroke-linecap="round" stroke-linejoin="round" d="M101.35,59.1Q98.9,56 93.5,55.8"/><path fill="none" stroke="#0E2D38" stroke-width="2" stroke-linecap="round" stroke-linejoin="round" d="M74.7,61.45Q76.6,58.3 82.25,57"/><path fill="#0E2D38" d="M98.45,65.15Q99.45,64.55 99.65,63.3 99.8,62.1 99.05,61.05 98.35,60.15 97.15,59.95 95.95,59.8 94.95,60.45 94,61.25 93.85,62.45 93.65,63.7 94.35,64.55 95.1,65.6 96.3,65.75 97.5,65.95 98.45,65.15"/><path fill="#0E2D38" d="M82.1,67.1Q83.05,66.35 83.15,65.1 83.25,63.95 82.4,63 81.7,62.05 80.55,61.9 79.25,61.85 78.4,62.65 77.4,63.45 77.35,64.55 77.15,65.8 77.95,66.65 78.75,67.7 79.95,67.75 81.15,67.9 82.1,67.1"/><animate attributeName="display" fill="freeze" repeatCount="1" dur="2.625s" keyTimes="0;0.238;1" values="none;inline;inline"/></g><g style="display:none;"><path fill="none" stroke="#0E2D38" stroke-width="2" stroke-linecap="round" stroke-linejoin="round" d="M101.35,58.9Q98.9,55.8 93.5,55.6"/><path fill="none" stroke="#0E2D38" stroke-width="2" stroke-linecap="round" stroke-linejoin="round" d="M74.7,61.25Q76.6,58.1 82.25,56.8"/><path fill="#0E2D38" d="M99.8,63.3Q99.95,62.05 99.2,60.95 98.45,60 97.2,59.8 95.9,59.65 94.85,60.3 93.85,61.15 93.7,62.4 93.5,63.75 94.25,64.65 95.05,65.75 96.3,65.9 97.55,66.1 98.55,65.25 99.6,64.65 99.8,63.3"/><path fill="#0E2D38" d="M82.2,67.2Q83.2,66.4 83.3,65.1 83.4,63.9 82.5,62.9 81.75,61.9 80.55,61.75 79.2,61.7 78.3,62.55 77.25,63.35 77.2,64.55 77,65.85 77.8,66.75 78.65,67.85 79.9,67.9 81.2,68.05 82.2,67.2"/><animate attributeName="display" fill="freeze" repeatCount="1" dur="2.625s" keyTimes="0;0.206;0.238;1" values="none;inline;none;none"/></g><g style="display:none;"><path fill="none" stroke="#0E2D38" stroke-width="2" stroke-linecap="round" stroke-linejoin="round" d="M101.35,58.85Q99.1,55.25 93.5,55.55"/><path fill="none" stroke="#0E2D38" stroke-width="2" stroke-linecap="round" stroke-linejoin="round" d="M74.7,61.2Q76.6,57.25 82.25,56.75"/><path fill="#0E2D38" d="M94.45,65.15Q95.15,66.15 96.3,66.3 97.45,66.5 98.35,65.75 99.3,65.15 99.5,64 99.65,62.85 98.9,61.85 98.25,61 97.1,60.8 95.95,60.65 95,61.3 94.1,62.05 93.95,63.2 93.8,64.35 94.45,65.15"/><path fill="#0E2D38" d="M82,67.7Q82.9,67 83,65.8 83.1,64.7 82.3,63.8 81.65,62.9 80.55,62.75 79.3,62.7 78.5,63.45 77.55,64.25 77.5,65.25 77.3,66.45 78.05,67.25 78.85,68.25 79.95,68.3 81.1,68.45 82,67.7"/><animate attributeName="display" fill="freeze" repeatCount="1" dur="2.625s" keyTimes="0;0.175;0.206;1" values="none;inline;none;none"/></g><g style="display:none;"><path fill="none" stroke="#0E2D38" stroke-width="2" stroke-linecap="round" stroke-linejoin="round" d="M90.288,61.685L99.224,59.997M90.288,61.685L96.189,65.184"/><path fill="none" stroke="#0E2D38" stroke-width="2" stroke-linecap="round" stroke-linejoin="round" d="M85.292,62.551L79.346,66.17M85.292,62.551L75.692,61.208"/><animate attributeName="display" fill="freeze" repeatCount="1" dur="2.625s" keyTimes="0;0.127;0.175;1" values="none;inline;none;none"/></g><g style="display:none;"><path fill="none" stroke="#0E2D38" stroke-width="2" stroke-linecap="round" stroke-linejoin="round" d="M90.789,69.101L98.861,64.101M90.789,69.101L98.085,69.951"/><path fill="none" stroke="#0E2D38" stroke-width="2" stroke-linecap="round" stroke-linejoin="round" d="M86.9,69.911L79.664,71.578M86.9,69.911L77.494,65.87"/><animate attributeName="display" fill="freeze" repeatCount="1" dur="2.625s" keyTimes="0;0.079;0.127;1" values="none;inline;none;none"/></g><g style="display:none;"><path fill="none" stroke="#0E2D38" stroke-width="2" stroke-linecap="round" stroke-linejoin="round" d="M91.001,67.001L98.801,62.001M91.001,67.001L98.051,67.851"/><path fill="none" stroke="#0E2D38" stroke-width="2" stroke-linecap="round" stroke-linejoin="round" d="M86.46,67.811L79.468,69.478M86.46,67.811L77.371,63.77"/><animate attributeName="display" fill="freeze" repeatCount="1" dur="2.625s" keyTimes="0;0.048;0.079;1" values="none;inline;none;none"/></g><g style="display:none;"><path fill="none" stroke="#0E2D38" stroke-width="2" stroke-linecap="round" stroke-linejoin="round" d="M91.451,65.601L99.251,60.601M91.451,65.601L98.501,66.451"/><path fill="none" stroke="#0E2D38" stroke-width="2" stroke-linecap="round" stroke-linejoin="round" d="M86.01,66.411L79.018,68.078M86.01,66.411L76.921,62.37"/><animate attributeName="display" fill="freeze" repeatCount="1" dur="2.625s" keyTimes="0;0.016;0.048;1" values="none;inline;none;none"/></g><g><path fill="none" stroke="#0E2D38" stroke-width="2" stroke-linecap="round" stroke-linejoin="round" d="M100.3,60L91.7,61.35"/><path fill="none" stroke="#0E2D38" stroke-width="2" stroke-linecap="round" stroke-linejoin="round" d="M75.3,64.05L85.15,62.5"/><path fill="#0E2D38" d="M93.85,62.45Q93.65,63.7 94.35,64.55 95.1,65.6 96.3,65.75 97.5,65.95 98.45,65.15 99.45,64.55 99.65,63.3 99.8,62.1 99.05,61.05 98.35,60.15 97.15,59.95 95.95,59.8 94.95,60.45 94,61.25 93.85,62.45"/><path fill="#0E2D38" d="M83.05,66Q83.3,64.9 82.65,63.8 82.05,62.8 80.95,62.45 79.7,62.25 78.7,62.9 77.6,63.55 77.4,64.65 77.05,65.85 77.7,66.8 78.35,67.95 79.55,68.15 80.7,68.5 81.75,67.85 82.8,67.25 83.05,66"/><animate attributeName="display" fill="freeze" repeatCount="1" dur="2.625s" keyTimes="0;0.016;1" values="inline;none;none"/></g><g style="display:none;"><path fill="#70B7D1" d="M81.7,64.6Q82.05,64.3 82.05,63.85 82.05,63.4 81.7,63.2 81.45,62.9 81,62.9 80.6,62.9 80.35,63.2 80,63.4 80,63.85 80,64.3 80.35,64.6 80.6,64.9 81,64.9 81.45,64.9 81.7,64.6"/><path fill="#70B7D1" d="M79.5,66.7Q79.8,66.7 79.95,66.5 80.2,66.3 80.2,66 80.2,65.7 79.95,65.55 79.8,65.35 79.5,65.35 79.2,65.35 79.05,65.55 78.8,65.7 78.8,66 78.8,66.3 79.05,66.5 79.2,66.7 79.5,66.7"/><path fill="#70B7D1" d="M78.5,64.6Q78.6,64.75 78.8,64.75 79,64.75 79.1,64.6 79.3,64.45 79.3,64.2 79.3,64 79.1,63.85 79,63.7 78.8,63.7 78.6,63.7 78.5,63.85 78.3,64 78.3,64.2 78.3,64.45 78.5,64.6"/><animate attributeName="display" fill="freeze" repeatCount="1" dur="2.625s" keyTimes="0;0.905;1" values="none;inline;inline"/></g><g style="display:none;"><path fill="#70B7D1" d="M81.9,63.65Q81.9,63.2 81.55,63 81.3,62.7 80.85,62.7 80.45,62.7 80.2,63 79.85,63.2 79.85,63.65 79.85,64.1 80.2,64.4 80.45,64.7 80.85,64.7 81.3,64.7 81.55,64.4 81.9,64.1 81.9,63.65"/><path fill="#70B7D1" d="M79.85,66.6Q80.1,66.4 80.1,66.1 80.1,65.8 79.85,65.65 79.7,65.45 79.4,65.45 79.1,65.45 78.95,65.65 78.7,65.8 78.7,66.1 78.7,66.4 78.95,66.6 79.1,66.8 79.4,66.8 79.7,66.8 79.85,66.6"/><path fill="#70B7D1" d="M78.9,64.85Q79.1,64.85 79.2,64.7 79.4,64.55 79.4,64.3 79.4,64.1 79.2,63.95 79.1,63.8 78.9,63.8 78.7,63.8 78.6,63.95 78.4,64.1 78.4,64.3 78.4,64.55 78.6,64.7 78.7,64.85 78.9,64.85"/><animate attributeName="display" fill="freeze" repeatCount="1" dur="2.625s" keyTimes="0;0.873;0.905;1" values="none;inline;none;none"/></g><g style="display:none;"><path fill="#70B7D1" d="M81.7,64.6Q82.05,64.3 82.05,63.85 82.05,63.4 81.7,63.2 81.45,62.9 81,62.9 80.6,62.9 80.35,63.2 80,63.4 80,63.85 80,64.3 80.35,64.6 80.6,64.9 81,64.9 81.45,64.9 81.7,64.6"/><path fill="#70B7D1" d="M79.95,66.5Q80.2,66.3 80.2,66 80.2,65.7 79.95,65.55 79.8,65.35 79.5,65.35 79.2,65.35 79.05,65.55 78.8,65.7 78.8,66 78.8,66.3 79.05,66.5 79.2,66.7 79.5,66.7 79.8,66.7 79.95,66.5"/><path fill="#70B7D1" d="M78.8,64.75Q79,64.75 79.1,64.6 79.3,64.45 79.3,64.2 79.3,64 79.1,63.85 79,63.7 78.8,63.7 78.6,63.7 78.5,63.85 78.3,64 78.3,64.2 78.3,64.45 78.5,64.6 78.6,64.75 78.8,64.75"/><animate attributeName="display" fill="freeze" repeatCount="1" dur="2.625s" keyTimes="0;0.651;0.683;1" values="none;inline;none;none"/></g><g style="display:none;"><path fill="#70B7D1" d="M81.9,63.65Q81.9,63.2 81.55,63 81.3,62.7 80.85,62.7 80.45,62.7 80.2,63 79.85,63.2 79.85,63.65 79.85,64.1 80.2,64.4 80.45,64.7 80.85,64.7 81.3,64.7 81.55,64.4 81.9,64.1 81.9,63.65"/><path fill="#70B7D1" d="M80.1,66.1Q80.1,65.8 79.85,65.65 79.7,65.45 79.4,65.45 79.1,65.45 78.95,65.65 78.7,65.8 78.7,66.1 78.7,66.4 78.95,66.6 79.1,66.8 79.4,66.8 79.7,66.8 79.85,66.6 80.1,66.4 80.1,66.1"/><path fill="#70B7D1" d="M79.2,64.7Q79.4,64.55 79.4,64.3 79.4,64.1 79.2,63.95 79.1,63.8 78.9,63.8 78.7,63.8 78.6,63.95 78.4,64.1 78.4,64.3 78.4,64.55 78.6,64.7 78.7,64.85 78.9,64.85 79.1,64.85 79.2,64.7"/><animate attributeName="display" fill="freeze" repeatCount="1" dur="2.625s" keyTimes="0;0.619;0.651;1" values="none;inline;none;none"/></g><g style="display:none;"><path fill="#70B7D1" d="M81.7,64.6Q82.05,64.3 82.05,63.85 82.05,63.4 81.7,63.2 81.45,62.9 81,62.9 80.6,62.9 80.35,63.2 80,63.4 80,63.85 80,64.3 80.35,64.6 80.6,64.9 81,64.9 81.45,64.9 81.7,64.6"/><path fill="#70B7D1" d="M79.95,65.55Q79.8,65.35 79.5,65.35 79.2,65.35 79.05,65.55 78.8,65.7 78.8,66 78.8,66.3 79.05,66.5 79.2,66.7 79.5,66.7 79.8,66.7 79.95,66.5 80.2,66.3 80.2,66 80.2,65.7 79.95,65.55"/><path fill="#70B7D1" d="M79.3,64.2Q79.3,64 79.1,63.85 79,63.7 78.8,63.7 78.6,63.7 78.5,63.85 78.3,64 78.3,64.2 78.3,64.45 78.5,64.6 78.6,64.75 78.8,64.75 79,64.75 79.1,64.6 79.3,64.45 79.3,64.2"/><animate attributeName="display" fill="freeze" repeatCount="1" dur="2.625s" keyTimes="0;0.587;0.619;1" values="none;inline;none;none"/></g><g style="display:none;"><path fill="#70B7D1" d="M81.9,63.65Q81.9,63.2 81.55,63 81.3,62.7 80.85,62.7 80.45,62.7 80.2,63 79.85,63.2 79.85,63.65 79.85,64.1 80.2,64.4 80.45,64.7 80.85,64.7 81.3,64.7 81.55,64.4 81.9,64.1 81.9,63.65"/><path fill="#70B7D1" d="M79.4,65.45Q79.1,65.45 78.95,65.65 78.7,65.8 78.7,66.1 78.7,66.4 78.95,66.6 79.1,66.8 79.4,66.8 79.7,66.8 79.85,66.6 80.1,66.4 80.1,66.1 80.1,65.8 79.85,65.65 79.7,65.45 79.4,65.45"/><path fill="#70B7D1" d="M79.2,63.95Q79.1,63.8 78.9,63.8 78.7,63.8 78.6,63.95 78.4,64.1 78.4,64.3 78.4,64.55 78.6,64.7 78.7,64.85 78.9,64.85 79.1,64.85 79.2,64.7 79.4,64.55 79.4,64.3 79.4,64.1 79.2,63.95"/><animate attributeName="display" fill="freeze" repeatCount="1" dur="2.625s" keyTimes="0;0.556;0.587;1" values="none;inline;none;none"/></g><g style="display:none;"><path fill="#70B7D1" d="M82.05,63.85Q82.05,63.4 81.7,63.2 81.45,62.9 81,62.9 80.6,62.9 80.35,63.2 80,63.4 80,63.85 80,64.3 80.35,64.6 80.6,64.9 81,64.9 81.45,64.9 81.7,64.6 82.05,64.3 82.05,63.85"/><path fill="#70B7D1" d="M79.05,65.55Q78.8,65.7 78.8,66 78.8,66.3 79.05,66.5 79.2,66.7 79.5,66.7 79.8,66.7 79.95,66.5 80.2,66.3 80.2,66 80.2,65.7 79.95,65.55 79.8,65.35 79.5,65.35 79.2,65.35 79.05,65.55"/><path fill="#70B7D1" d="M78.8,63.7Q78.6,63.7 78.5,63.85 78.3,64 78.3,64.2 78.3,64.45 78.5,64.6 78.6,64.75 78.8,64.75 79,64.75 79.1,64.6 79.3,64.45 79.3,64.2 79.3,64 79.1,63.85 79,63.7 78.8,63.7"/><animate attributeName="display" fill="freeze" repeatCount="1" dur="2.625s" keyTimes="0;0.524;0.556;0.714;0.746;1" values="none;inline;none;inline;none;none"/></g><g style="display:none;"><path fill="#70B7D1" d="M81.55,64.4Q81.9,64.1 81.9,63.65 81.9,63.2 81.55,63 81.3,62.7 80.85,62.7 80.45,62.7 80.2,63 79.85,63.2 79.85,63.65 79.85,64.1 80.2,64.4 80.45,64.7 80.85,64.7 81.3,64.7 81.55,64.4"/><path fill="#70B7D1" d="M78.7,66.1Q78.7,66.4 78.95,66.6 79.1,66.8 79.4,66.8 79.7,66.8 79.85,66.6 80.1,66.4 80.1,66.1 80.1,65.8 79.85,65.65 79.7,65.45 79.4,65.45 79.1,65.45 78.95,65.65 78.7,65.8 78.7,66.1"/><path fill="#70B7D1" d="M78.6,63.95Q78.4,64.1 78.4,64.3 78.4,64.55 78.6,64.7 78.7,64.85 78.9,64.85 79.1,64.85 79.2,64.7 79.4,64.55 79.4,64.3 79.4,64.1 79.2,63.95 79.1,63.8 78.9,63.8 78.7,63.8 78.6,63.95"/><animate attributeName="display" fill="freeze" repeatCount="1" dur="2.625s" keyTimes="0;0.492;0.524;0.683;0.714;1" values="none;inline;none;inline;none;none"/></g><g style="display:none;"><path fill="#70B7D1" d="M81.7,64.6Q82.05,64.3 82.05,63.85 82.05,63.4 81.7,63.2 81.45,62.9 81,62.9 80.6,62.9 80.35,63.2 80,63.4 80,63.85 80,64.3 80.35,64.6 80.6,64.9 81,64.9 81.45,64.9 81.7,64.6"/><path fill="#70B7D1" d="M80.2,66Q80.2,65.7 79.95,65.55 79.8,65.35 79.5,65.35 79.2,65.35 79.05,65.55 78.8,65.7 78.8,66 78.8,66.3 79.05,66.5 79.2,66.7 79.5,66.7 79.8,66.7 79.95,66.5 80.2,66.3 80.2,66"/><path fill="#70B7D1" d="M79.1,64.6Q79.3,64.45 79.3,64.2 79.3,64 79.1,63.85 79,63.7 78.8,63.7 78.6,63.7 78.5,63.85 78.3,64 78.3,64.2 78.3,64.45 78.5,64.6 78.6,64.75 78.8,64.75 79,64.75 79.1,64.6"/><animate attributeName="display" fill="freeze" repeatCount="1" dur="2.625s" keyTimes="0;0.397;0.429;0.841;0.873;1" values="none;inline;none;inline;none;none"/></g><g style="display:none;"><path fill="#70B7D1" d="M81.9,63.65Q81.9,63.2 81.55,63 81.3,62.7 80.85,62.7 80.45,62.7 80.2,63 79.85,63.2 79.85,63.65 79.85,64.1 80.2,64.4 80.45,64.7 80.85,64.7 81.3,64.7 81.55,64.4 81.9,64.1 81.9,63.65"/><path fill="#70B7D1" d="M79.85,65.65Q79.7,65.45 79.4,65.45 79.1,65.45 78.95,65.65 78.7,65.8 78.7,66.1 78.7,66.4 78.95,66.6 79.1,66.8 79.4,66.8 79.7,66.8 79.85,66.6 80.1,66.4 80.1,66.1 80.1,65.8 79.85,65.65"/><path fill="#70B7D1" d="M79.4,64.3Q79.4,64.1 79.2,63.95 79.1,63.8 78.9,63.8 78.7,63.8 78.6,63.95 78.4,64.1 78.4,64.3 78.4,64.55 78.6,64.7 78.7,64.85 78.9,64.85 79.1,64.85 79.2,64.7 79.4,64.55 79.4,64.3"/><animate attributeName="display" fill="freeze" repeatCount="1" dur="2.625s" keyTimes="0;0.365;0.397;0.81;0.841;1" values="none;inline;none;inline;none;none"/></g><g style="display:none;"><path fill="#70B7D1" d="M81.7,64.6Q82.05,64.3 82.05,63.85 82.05,63.4 81.7,63.2 81.45,62.9 81,62.9 80.6,62.9 80.35,63.2 80,63.4 80,63.85 80,64.3 80.35,64.6 80.6,64.9 81,64.9 81.45,64.9 81.7,64.6"/><path fill="#70B7D1" d="M79.5,65.35Q79.2,65.35 79.05,65.55 78.8,65.7 78.8,66 78.8,66.3 79.05,66.5 79.2,66.7 79.5,66.7 79.8,66.7 79.95,66.5 80.2,66.3 80.2,66 80.2,65.7 79.95,65.55 79.8,65.35 79.5,65.35"/><path fill="#70B7D1" d="M79.1,63.85Q79,63.7 78.8,63.7 78.6,63.7 78.5,63.85 78.3,64 78.3,64.2 78.3,64.45 78.5,64.6 78.6,64.75 78.8,64.75 79,64.75 79.1,64.6 79.3,64.45 79.3,64.2 79.3,64 79.1,63.85"/><animate attributeName="display" fill="freeze" repeatCount="1" dur="2.625s" keyTimes="0;0.333;0.365;0.778;0.81;1" values="none;inline;none;inline;none;none"/></g><g style="display:none;"><path fill="#70B7D1" d="M81.9,63.65Q81.9,63.2 81.55,63 81.3,62.7 80.85,62.7 80.45,62.7 80.2,63 79.85,63.2 79.85,63.65 79.85,64.1 80.2,64.4 80.45,64.7 80.85,64.7 81.3,64.7 81.55,64.4 81.9,64.1 81.9,63.65"/><path fill="#70B7D1" d="M78.95,65.65Q78.7,65.8 78.7,66.1 78.7,66.4 78.95,66.6 79.1,66.8 79.4,66.8 79.7,66.8 79.85,66.6 80.1,66.4 80.1,66.1 80.1,65.8 79.85,65.65 79.7,65.45 79.4,65.45 79.1,65.45 78.95,65.65"/><path fill="#70B7D1" d="M78.9,63.8Q78.7,63.8 78.6,63.95 78.4,64.1 78.4,64.3 78.4,64.55 78.6,64.7 78.7,64.85 78.9,64.85 79.1,64.85 79.2,64.7 79.4,64.55 79.4,64.3 79.4,64.1 79.2,63.95 79.1,63.8 78.9,63.8"/><animate attributeName="display" fill="freeze" repeatCount="1" dur="2.625s" keyTimes="0;0.302;0.333;0.746;0.778;1" values="none;inline;none;inline;none;none"/></g><g style="display:none;"><path fill="#70B7D1" d="M81.7,63.2Q81.45,62.9 81,62.9 80.6,62.9 80.35,63.2 80,63.4 80,63.85 80,64.3 80.35,64.6 80.6,64.9 81,64.9 81.45,64.9 81.7,64.6 82.05,64.3 82.05,63.85 82.05,63.4 81.7,63.2"/><path fill="#70B7D1" d="M78.8,66Q78.8,66.3 79.05,66.5 79.2,66.7 79.5,66.7 79.8,66.7 79.95,66.5 80.2,66.3 80.2,66 80.2,65.7 79.95,65.55 79.8,65.35 79.5,65.35 79.2,65.35 79.05,65.55 78.8,65.7 78.8,66"/><path fill="#70B7D1" d="M78.5,63.85Q78.3,64 78.3,64.2 78.3,64.45 78.5,64.6 78.6,64.75 78.8,64.75 79,64.75 79.1,64.6 79.3,64.45 79.3,64.2 79.3,64 79.1,63.85 79,63.7 78.8,63.7 78.6,63.7 78.5,63.85"/><animate attributeName="display" fill="freeze" repeatCount="1" dur="2.625s" keyTimes="0;0.27;0.302;0.46;0.492;1" values="none;inline;none;inline;none;none"/></g><g style="display:none;"><path fill="#70B7D1" d="M81.9,63.65Q81.9,63.2 81.55,63 81.3,62.7 80.85,62.7 80.45,62.7 80.2,63 79.85,63.2 79.85,63.65 79.85,64.1 80.2,64.4 80.45,64.7 80.85,64.7 81.3,64.7 81.55,64.4 81.9,64.1 81.9,63.65"/><path fill="#70B7D1" d="M78.95,66.6Q79.1,66.8 79.4,66.8 79.7,66.8 79.85,66.6 80.1,66.4 80.1,66.1 80.1,65.8 79.85,65.65 79.7,65.45 79.4,65.45 79.1,65.45 78.95,65.65 78.7,65.8 78.7,66.1 78.7,66.4 78.95,66.6"/><path fill="#70B7D1" d="M78.4,64.3Q78.4,64.55 78.6,64.7 78.7,64.85 78.9,64.85 79.1,64.85 79.2,64.7 79.4,64.55 79.4,64.3 79.4,64.1 79.2,63.95 79.1,63.8 78.9,63.8 78.7,63.8 78.6,63.95 78.4,64.1 78.4,64.3"/><animate attributeName="display" fill="freeze" repeatCount="1" dur="2.625s" keyTimes="0;0.238;0.27;0.429;0.46;1" values="none;inline;none;inline;none;none"/></g><g style="display:none;"><path fill="#70B7D1" d="M81,64.9Q81.45,64.9 81.7,64.6 82.05,64.3 82.05,63.85 82.05,63.4 81.7,63.2 81.45,62.9 81,62.9 80.6,62.9 80.35,63.2 80,63.4 80,63.85 80,64.3 80.35,64.6 80.6,64.9 81,64.9"/><path fill="#70B7D1" d="M79.05,66.5Q79.2,66.7 79.5,66.7 79.8,66.7 79.95,66.5 80.2,66.3 80.2,66 80.2,65.7 79.95,65.55 79.8,65.35 79.5,65.35 79.2,65.35 79.05,65.55 78.8,65.7 78.8,66 78.8,66.3 79.05,66.5"/><path fill="#70B7D1" d="M78.3,64.2Q78.3,64.45 78.5,64.6 78.6,64.75 78.8,64.75 79,64.75 79.1,64.6 79.3,64.45 79.3,64.2 79.3,64 79.1,63.85 79,63.7 78.8,63.7 78.6,63.7 78.5,63.85 78.3,64 78.3,64.2"/><animate attributeName="display" fill="freeze" repeatCount="1" dur="2.625s" keyTimes="0;0.206;0.238;1" values="none;inline;none;none"/></g><g style="display:none;"><path fill="#70B7D1" d="M81.9,64.35Q81.9,63.9 81.55,63.7 81.3,63.4 80.85,63.4 80.45,63.4 80.2,63.7 79.85,63.9 79.85,64.35 79.85,64.8 80.2,65.1 80.45,65.4 80.85,65.4 81.3,65.4 81.55,65.1 81.9,64.8 81.9,64.35"/><path fill="#70B7D1" d="M79.4,67.5Q79.7,67.5 79.85,67.3 80.1,67.1 80.1,66.8 80.1,66.5 79.85,66.35 79.7,66.15 79.4,66.15 79.1,66.15 78.95,66.35 78.7,66.5 78.7,66.8 78.7,67.1 78.95,67.3 79.1,67.5 79.4,67.5"/><path fill="#70B7D1" d="M78.6,65.4Q78.7,65.55 78.9,65.55 79.1,65.55 79.2,65.4 79.4,65.25 79.4,65 79.4,64.8 79.2,64.65 79.1,64.5 78.9,64.5 78.7,64.5 78.6,64.65 78.4,64.8 78.4,65 78.4,65.25 78.6,65.4"/><animate attributeName="display" fill="freeze" repeatCount="1" dur="2.625s" keyTimes="0;0.175;0.206;1" values="none;inline;none;none"/></g><g style="display:none;"><path fill="#70B7D1" d="M97.4,62.85Q97.85,62.85 98.1,62.55 98.45,62.25 98.45,61.8 98.45,61.35 98.1,61.15 97.85,60.85 97.4,60.85 97,60.85 96.75,61.15 96.4,61.35 96.4,61.8 96.4,62.25 96.75,62.55 97,62.85 97.4,62.85"/><path fill="#70B7D1" d="M95.45,64.45Q95.6,64.65 95.9,64.65 96.2,64.65 96.35,64.45 96.6,64.25 96.6,63.95 96.6,63.65 96.35,63.5 96.2,63.3 95.9,63.3 95.6,63.3 95.45,63.5 95.2,63.65 95.2,63.95 95.2,64.25 95.45,64.45"/><path fill="#70B7D1" d="M94.7,62.15Q94.7,62.4 94.9,62.55 95,62.7 95.2,62.7 95.4,62.7 95.5,62.55 95.7,62.4 95.7,62.15 95.7,61.95 95.5,61.8 95.4,61.65 95.2,61.65 95,61.65 94.9,61.8 94.7,61.95 94.7,62.15"/><animate attributeName="display" fill="freeze" repeatCount="1" dur="2.625s" keyTimes="0;0.905;1" values="none;inline;inline"/></g><g style="display:none;"><path fill="#70B7D1" d="M97.25,62.65Q97.7,62.65 97.95,62.35 98.3,62.05 98.3,61.6 98.3,61.15 97.95,60.95 97.7,60.65 97.25,60.65 96.85,60.65 96.6,60.95 96.25,61.15 96.25,61.6 96.25,62.05 96.6,62.35 96.85,62.65 97.25,62.65"/><path fill="#70B7D1" d="M95.8,64.75Q96.1,64.75 96.25,64.55 96.5,64.35 96.5,64.05 96.5,63.75 96.25,63.6 96.1,63.4 95.8,63.4 95.5,63.4 95.35,63.6 95.1,63.75 95.1,64.05 95.1,64.35 95.35,64.55 95.5,64.75 95.8,64.75"/><path fill="#70B7D1" d="M95,62.65Q95.1,62.8 95.3,62.8 95.5,62.8 95.6,62.65 95.8,62.5 95.8,62.25 95.8,62.05 95.6,61.9 95.5,61.75 95.3,61.75 95.1,61.75 95,61.9 94.8,62.05 94.8,62.25 94.8,62.5 95,62.65"/><animate attributeName="display" fill="freeze" repeatCount="1" dur="2.625s" keyTimes="0;0.873;0.905;1" values="none;inline;none;none"/></g><g style="display:none;"><path fill="#70B7D1" d="M97.4,62.85Q97.85,62.85 98.1,62.55 98.45,62.25 98.45,61.8 98.45,61.35 98.1,61.15 97.85,60.85 97.4,60.85 97,60.85 96.75,61.15 96.4,61.35 96.4,61.8 96.4,62.25 96.75,62.55 97,62.85 97.4,62.85"/><path fill="#70B7D1" d="M95.9,64.65Q96.2,64.65 96.35,64.45 96.6,64.25 96.6,63.95 96.6,63.65 96.35,63.5 96.2,63.3 95.9,63.3 95.6,63.3 95.45,63.5 95.2,63.65 95.2,63.95 95.2,64.25 95.45,64.45 95.6,64.65 95.9,64.65"/><path fill="#70B7D1" d="M94.9,62.55Q95,62.7 95.2,62.7 95.4,62.7 95.5,62.55 95.7,62.4 95.7,62.15 95.7,61.95 95.5,61.8 95.4,61.65 95.2,61.65 95,61.65 94.9,61.8 94.7,61.95 94.7,62.15 94.7,62.4 94.9,62.55"/><animate attributeName="display" fill="freeze" repeatCount="1" dur="2.625s" keyTimes="0;0.651;0.683;1" values="none;inline;none;none"/></g><g style="display:none;"><path fill="#70B7D1" d="M97.25,62.65Q97.7,62.65 97.95,62.35 98.3,62.05 98.3,61.6 98.3,61.15 97.95,60.95 97.7,60.65 97.25,60.65 96.85,60.65 96.6,60.95 96.25,61.15 96.25,61.6 96.25,62.05 96.6,62.35 96.85,62.65 97.25,62.65"/><path fill="#70B7D1" d="M96.25,64.55Q96.5,64.35 96.5,64.05 96.5,63.75 96.25,63.6 96.1,63.4 95.8,63.4 95.5,63.4 95.35,63.6 95.1,63.75 95.1,64.05 95.1,64.35 95.35,64.55 95.5,64.75 95.8,64.75 96.1,64.75 96.25,64.55"/><path fill="#70B7D1" d="M95.3,62.8Q95.5,62.8 95.6,62.65 95.8,62.5 95.8,62.25 95.8,62.05 95.6,61.9 95.5,61.75 95.3,61.75 95.1,61.75 95,61.9 94.8,62.05 94.8,62.25 94.8,62.5 95,62.65 95.1,62.8 95.3,62.8"/><animate attributeName="display" fill="freeze" repeatCount="1" dur="2.625s" keyTimes="0;0.619;0.651;1" values="none;inline;none;none"/></g><g style="display:none;"><path fill="#70B7D1" d="M97.4,62.85Q97.85,62.85 98.1,62.55 98.45,62.25 98.45,61.8 98.45,61.35 98.1,61.15 97.85,60.85 97.4,60.85 97,60.85 96.75,61.15 96.4,61.35 96.4,61.8 96.4,62.25 96.75,62.55 97,62.85 97.4,62.85"/><path fill="#70B7D1" d="M96.6,63.95Q96.6,63.65 96.35,63.5 96.2,63.3 95.9,63.3 95.6,63.3 95.45,63.5 95.2,63.65 95.2,63.95 95.2,64.25 95.45,64.45 95.6,64.65 95.9,64.65 96.2,64.65 96.35,64.45 96.6,64.25 96.6,63.95"/><path fill="#70B7D1" d="M95.5,62.55Q95.7,62.4 95.7,62.15 95.7,61.95 95.5,61.8 95.4,61.65 95.2,61.65 95,61.65 94.9,61.8 94.7,61.95 94.7,62.15 94.7,62.4 94.9,62.55 95,62.7 95.2,62.7 95.4,62.7 95.5,62.55"/><animate attributeName="display" fill="freeze" repeatCount="1" dur="2.625s" keyTimes="0;0.587;0.619;1" values="none;inline;none;none"/></g><g style="display:none;"><path fill="#70B7D1" d="M97.25,62.65Q97.7,62.65 97.95,62.35 98.3,62.05 98.3,61.6 98.3,61.15 97.95,60.95 97.7,60.65 97.25,60.65 96.85,60.65 96.6,60.95 96.25,61.15 96.25,61.6 96.25,62.05 96.6,62.35 96.85,62.65 97.25,62.65"/><path fill="#70B7D1" d="M96.25,63.6Q96.1,63.4 95.8,63.4 95.5,63.4 95.35,63.6 95.1,63.75 95.1,64.05 95.1,64.35 95.35,64.55 95.5,64.75 95.8,64.75 96.1,64.75 96.25,64.55 96.5,64.35 96.5,64.05 96.5,63.75 96.25,63.6"/><path fill="#70B7D1" d="M95.8,62.25Q95.8,62.05 95.6,61.9 95.5,61.75 95.3,61.75 95.1,61.75 95,61.9 94.8,62.05 94.8,62.25 94.8,62.5 95,62.65 95.1,62.8 95.3,62.8 95.5,62.8 95.6,62.65 95.8,62.5 95.8,62.25"/><animate attributeName="display" fill="freeze" repeatCount="1" dur="2.625s" keyTimes="0;0.556;0.587;1" values="none;inline;none;none"/></g><g style="display:none;"><path fill="#70B7D1" d="M96.75,61.15Q96.4,61.35 96.4,61.8 96.4,62.25 96.75,62.55 97,62.85 97.4,62.85 97.85,62.85 98.1,62.55 98.45,62.25 98.45,61.8 98.45,61.35 98.1,61.15 97.85,60.85 97.4,60.85 97,60.85 96.75,61.15"/><path fill="#70B7D1" d="M95.9,63.3Q95.6,63.3 95.45,63.5 95.2,63.65 95.2,63.95 95.2,64.25 95.45,64.45 95.6,64.65 95.9,64.65 96.2,64.65 96.35,64.45 96.6,64.25 96.6,63.95 96.6,63.65 96.35,63.5 96.2,63.3 95.9,63.3"/><path fill="#70B7D1" d="M95.5,61.8Q95.4,61.65 95.2,61.65 95,61.65 94.9,61.8 94.7,61.95 94.7,62.15 94.7,62.4 94.9,62.55 95,62.7 95.2,62.7 95.4,62.7 95.5,62.55 95.7,62.4 95.7,62.15 95.7,61.95 95.5,61.8"/><animate attributeName="display" fill="freeze" repeatCount="1" dur="2.625s" keyTimes="0;0.524;0.556;0.714;0.746;1" values="none;inline;none;inline;none;none"/></g><g style="display:none;"><path fill="#70B7D1" d="M96.6,60.95Q96.25,61.15 96.25,61.6 96.25,62.05 96.6,62.35 96.85,62.65 97.25,62.65 97.7,62.65 97.95,62.35 98.3,62.05 98.3,61.6 98.3,61.15 97.95,60.95 97.7,60.65 97.25,60.65 96.85,60.65 96.6,60.95"/><path fill="#70B7D1" d="M95.35,63.6Q95.1,63.75 95.1,64.05 95.1,64.35 95.35,64.55 95.5,64.75 95.8,64.75 96.1,64.75 96.25,64.55 96.5,64.35 96.5,64.05 96.5,63.75 96.25,63.6 96.1,63.4 95.8,63.4 95.5,63.4 95.35,63.6"/><path fill="#70B7D1" d="M95.3,61.75Q95.1,61.75 95,61.9 94.8,62.05 94.8,62.25 94.8,62.5 95,62.65 95.1,62.8 95.3,62.8 95.5,62.8 95.6,62.65 95.8,62.5 95.8,62.25 95.8,62.05 95.6,61.9 95.5,61.75 95.3,61.75"/><animate attributeName="display" fill="freeze" repeatCount="1" dur="2.625s" keyTimes="0;0.492;0.524;0.683;0.714;1" values="none;inline;none;inline;none;none"/></g><g style="display:none;"><path fill="#70B7D1" d="M97.4,62.85Q97.85,62.85 98.1,62.55 98.45,62.25 98.45,61.8 98.45,61.35 98.1,61.15 97.85,60.85 97.4,60.85 97,60.85 96.75,61.15 96.4,61.35 96.4,61.8 96.4,62.25 96.75,62.55 97,62.85 97.4,62.85"/><path fill="#70B7D1" d="M96.35,64.45Q96.6,64.25 96.6,63.95 96.6,63.65 96.35,63.5 96.2,63.3 95.9,63.3 95.6,63.3 95.45,63.5 95.2,63.65 95.2,63.95 95.2,64.25 95.45,64.45 95.6,64.65 95.9,64.65 96.2,64.65 96.35,64.45"/><path fill="#70B7D1" d="M95.2,62.7Q95.4,62.7 95.5,62.55 95.7,62.4 95.7,62.15 95.7,61.95 95.5,61.8 95.4,61.65 95.2,61.65 95,61.65 94.9,61.8 94.7,61.95 94.7,62.15 94.7,62.4 94.9,62.55 95,62.7 95.2,62.7"/><animate attributeName="display" fill="freeze" repeatCount="1" dur="2.625s" keyTimes="0;0.397;0.429;0.841;0.873;1" values="none;inline;none;inline;none;none"/></g><g style="display:none;"><path fill="#70B7D1" d="M97.25,62.65Q97.7,62.65 97.95,62.35 98.3,62.05 98.3,61.6 98.3,61.15 97.95,60.95 97.7,60.65 97.25,60.65 96.85,60.65 96.6,60.95 96.25,61.15 96.25,61.6 96.25,62.05 96.6,62.35 96.85,62.65 97.25,62.65"/><path fill="#70B7D1" d="M96.5,64.05Q96.5,63.75 96.25,63.6 96.1,63.4 95.8,63.4 95.5,63.4 95.35,63.6 95.1,63.75 95.1,64.05 95.1,64.35 95.35,64.55 95.5,64.75 95.8,64.75 96.1,64.75 96.25,64.55 96.5,64.35 96.5,64.05"/><path fill="#70B7D1" d="M95.6,62.65Q95.8,62.5 95.8,62.25 95.8,62.05 95.6,61.9 95.5,61.75 95.3,61.75 95.1,61.75 95,61.9 94.8,62.05 94.8,62.25 94.8,62.5 95,62.65 95.1,62.8 95.3,62.8 95.5,62.8 95.6,62.65"/><animate attributeName="display" fill="freeze" repeatCount="1" dur="2.625s" keyTimes="0;0.365;0.397;0.81;0.841;1" values="none;inline;none;inline;none;none"/></g><g style="display:none;"><path fill="#70B7D1" d="M97.4,62.85Q97.85,62.85 98.1,62.55 98.45,62.25 98.45,61.8 98.45,61.35 98.1,61.15 97.85,60.85 97.4,60.85 97,60.85 96.75,61.15 96.4,61.35 96.4,61.8 96.4,62.25 96.75,62.55 97,62.85 97.4,62.85"/><path fill="#70B7D1" d="M96.35,63.5Q96.2,63.3 95.9,63.3 95.6,63.3 95.45,63.5 95.2,63.65 95.2,63.95 95.2,64.25 95.45,64.45 95.6,64.65 95.9,64.65 96.2,64.65 96.35,64.45 96.6,64.25 96.6,63.95 96.6,63.65 96.35,63.5"/><path fill="#70B7D1" d="M95.7,62.15Q95.7,61.95 95.5,61.8 95.4,61.65 95.2,61.65 95,61.65 94.9,61.8 94.7,61.95 94.7,62.15 94.7,62.4 94.9,62.55 95,62.7 95.2,62.7 95.4,62.7 95.5,62.55 95.7,62.4 95.7,62.15"/><animate attributeName="display" fill="freeze" repeatCount="1" dur="2.625s" keyTimes="0;0.333;0.365;0.778;0.81;1" values="none;inline;none;inline;none;none"/></g><g style="display:none;"><path fill="#70B7D1" d="M96.6,60.95Q96.25,61.15 96.25,61.6 96.25,62.05 96.6,62.35 96.85,62.65 97.25,62.65 97.7,62.65 97.95,62.35 98.3,62.05 98.3,61.6 98.3,61.15 97.95,60.95 97.7,60.65 97.25,60.65 96.85,60.65 96.6,60.95"/><path fill="#70B7D1" d="M95.8,63.4Q95.5,63.4 95.35,63.6 95.1,63.75 95.1,64.05 95.1,64.35 95.35,64.55 95.5,64.75 95.8,64.75 96.1,64.75 96.25,64.55 96.5,64.35 96.5,64.05 96.5,63.75 96.25,63.6 96.1,63.4 95.8,63.4"/><path fill="#70B7D1" d="M95.6,61.9Q95.5,61.75 95.3,61.75 95.1,61.75 95,61.9 94.8,62.05 94.8,62.25 94.8,62.5 95,62.65 95.1,62.8 95.3,62.8 95.5,62.8 95.6,62.65 95.8,62.5 95.8,62.25 95.8,62.05 95.6,61.9"/><animate attributeName="display" fill="freeze" repeatCount="1" dur="2.625s" keyTimes="0;0.302;0.333;0.746;0.778;1" values="none;inline;none;inline;none;none"/></g><g style="display:none;"><path fill="#70B7D1" d="M96.75,61.15Q96.4,61.35 96.4,61.8 96.4,62.25 96.75,62.55 97,62.85 97.4,62.85 97.85,62.85 98.1,62.55 98.45,62.25 98.45,61.8 98.45,61.35 98.1,61.15 97.85,60.85 97.4,60.85 97,60.85 96.75,61.15"/><path fill="#70B7D1" d="M95.45,63.5Q95.2,63.65 95.2,63.95 95.2,64.25 95.45,64.45 95.6,64.65 95.9,64.65 96.2,64.65 96.35,64.45 96.6,64.25 96.6,63.95 96.6,63.65 96.35,63.5 96.2,63.3 95.9,63.3 95.6,63.3 95.45,63.5"/><path fill="#70B7D1" d="M95.2,61.65Q95,61.65 94.9,61.8 94.7,61.95 94.7,62.15 94.7,62.4 94.9,62.55 95,62.7 95.2,62.7 95.4,62.7 95.5,62.55 95.7,62.4 95.7,62.15 95.7,61.95 95.5,61.8 95.4,61.65 95.2,61.65"/><animate attributeName="display" fill="freeze" repeatCount="1" dur="2.625s" keyTimes="0;0.27;0.302;0.46;0.492;1" values="none;inline;none;inline;none;none"/></g><g style="display:none;"><path fill="#70B7D1" d="M96.6,60.95Q96.25,61.15 96.25,61.6 96.25,62.05 96.6,62.35 96.85,62.65 97.25,62.65 97.7,62.65 97.95,62.35 98.3,62.05 98.3,61.6 98.3,61.15 97.95,60.95 97.7,60.65 97.25,60.65 96.85,60.65 96.6,60.95"/><path fill="#70B7D1" d="M95.1,64.05Q95.1,64.35 95.35,64.55 95.5,64.75 95.8,64.75 96.1,64.75 96.25,64.55 96.5,64.35 96.5,64.05 96.5,63.75 96.25,63.6 96.1,63.4 95.8,63.4 95.5,63.4 95.35,63.6 95.1,63.75 95.1,64.05"/><path fill="#70B7D1" d="M95,61.9Q94.8,62.05 94.8,62.25 94.8,62.5 95,62.65 95.1,62.8 95.3,62.8 95.5,62.8 95.6,62.65 95.8,62.5 95.8,62.25 95.8,62.05 95.6,61.9 95.5,61.75 95.3,61.75 95.1,61.75 95,61.9"/><animate attributeName="display" fill="freeze" repeatCount="1" dur="2.625s" keyTimes="0;0.238;0.27;0.429;0.46;1" values="none;inline;none;inline;none;none"/></g><g style="display:none;"><path fill="#70B7D1" d="M96.75,61.15Q96.4,61.35 96.4,61.8 96.4,62.25 96.75,62.55 97,62.85 97.4,62.85 97.85,62.85 98.1,62.55 98.45,62.25 98.45,61.8 98.45,61.35 98.1,61.15 97.85,60.85 97.4,60.85 97,60.85 96.75,61.15"/><path fill="#70B7D1" d="M95.2,63.95Q95.2,64.25 95.45,64.45 95.6,64.65 95.9,64.65 96.2,64.65 96.35,64.45 96.6,64.25 96.6,63.95 96.6,63.65 96.35,63.5 96.2,63.3 95.9,63.3 95.6,63.3 95.45,63.5 95.2,63.65 95.2,63.95"/><path fill="#70B7D1" d="M94.9,61.8Q94.7,61.95 94.7,62.15 94.7,62.4 94.9,62.55 95,62.7 95.2,62.7 95.4,62.7 95.5,62.55 95.7,62.4 95.7,62.15 95.7,61.95 95.5,61.8 95.4,61.65 95.2,61.65 95,61.65 94.9,61.8"/><animate attributeName="display" fill="freeze" repeatCount="1" dur="2.625s" keyTimes="0;0.206;0.238;1" values="none;inline;none;none"/></g><g style="display:none;"><path fill="#70B7D1" d="M97.25,63.35Q97.7,63.35 97.95,63.05 98.3,62.75 98.3,62.3 98.3,61.85 97.95,61.65 97.7,61.35 97.25,61.35 96.85,61.35 96.6,61.65 96.25,61.85 96.25,62.3 96.25,62.75 96.6,63.05 96.85,63.35 97.25,63.35"/><path fill="#70B7D1" d="M95.35,65.25Q95.5,65.45 95.8,65.45 96.1,65.45 96.25,65.25 96.5,65.05 96.5,64.75 96.5,64.45 96.25,64.3 96.1,64.1 95.8,64.1 95.5,64.1 95.35,64.3 95.1,64.45 95.1,64.75 95.1,65.05 95.35,65.25"/><path fill="#70B7D1" d="M94.8,62.95Q94.8,63.2 95,63.35 95.1,63.5 95.3,63.5 95.5,63.5 95.6,63.35 95.8,63.2 95.8,62.95 95.8,62.75 95.6,62.6 95.5,62.45 95.3,62.45 95.1,62.45 95,62.6 94.8,62.75 94.8,62.95"/><animate attributeName="display" fill="freeze" repeatCount="1" dur="2.625s" keyTimes="0;0.175;0.206;1" values="none;inline;none;none"/></g><g><path fill="#5CB8D6" d="M113.45,86.15Q115.95,82.35 115.7,77.45L94,79.9Q94.8,84.75 98.1,87.85 101.75,91.5 106.3,91 110.75,90.5 113.45,86.15"/><path fill="none" stroke="#5CB8D6" stroke-width="3" stroke-linecap="round" stroke-linejoin="round" d="M115.7,77.45L94,79.9"/><path fill="#5CB8D6" d="M114.5,93.45Q110.85,89.9 106.4,90.35 101.85,90.9 99.15,95.2 96.6,99 96.95,103.85L118.6,101.4Q117.75,96.55 114.5,93.45"/><path fill="none" stroke="#5CB8D6" stroke-width="3" stroke-linecap="round" stroke-linejoin="round" d="M96.95,103.85L118.6,101.4"/><path fill="#FF5B80" d="M112.8,96.2Q110.05,94.15 106.75,94.5 104.7,94.75 103.4,95.4 102.1,96.05 101.05,97.45 100,98.8 99.35,101.8L115.6,100.05Q114.3,97.35 112.8,96.2"/><animate attributeName="display" fill="freeze" repeatCount="1" dur="2.625s" keyTimes="0;0.016;1" values="inline;none;none"/></g><g><g style="display:none;"><path fill="#5CB8D6" d="M116.2,95.1L94.4,95.8Q94.8,100.75 97.85,104.1 101.2,108 105.8,107.85 110.25,107.7 113.3,103.55 116.05,99.95 116.2,95.1"/><path fill="none" stroke="#5CB8D6" stroke-width="3" stroke-linecap="round" stroke-linejoin="round" d="M116.2,95.1L94.4,95.8"/><path fill="#5CB8D6" d="M117.25,119.15Q116.75,114.25 113.75,110.95 110.4,107.1 105.95,107.25 101.35,107.4 98.3,111.45 95.5,115.05 95.5,119.95L117.25,119.15"/><path fill="none" stroke="#5CB8D6" stroke-width="3" stroke-linecap="round" stroke-linejoin="round" d="M95.5,119.95L117.25,119.15"/><path fill="#FF5B80" d="M102.55,112Q101.2,112.55 100.05,113.85 98.9,115.15 98,118.1L114.35,117.6Q113.25,114.8 111.9,113.5 109.3,111.3 105.95,111.4 103.9,111.5 102.55,112"/><path fill="none" stroke="#1A3F4E" stroke-width="3" stroke-linecap="round" stroke-linejoin="round" d="M60.85,76.8Q58.2,95.3 65.65,108.1 74.85,123.7 95.9,120.6"/><path fill="none" stroke="#1A3F4E" stroke-width="3" stroke-linecap="round" stroke-linejoin="round" d="M98.8,126.1Q96.45,123.5 96.1,120.5 99.7,120.05 101.55,119.05M96.1,120.5Q98.85,122.75 102.1,122.95"/><animate attributeName="display" fill="freeze" repeatCount="1" dur="2.625s" keyTimes="0;0.206;1" values="none;inline;inline"/></g><g style="display:none;"><path fill="#5CB8D6" d="M116.2,96.3L94.4,97Q94.8,101.95 97.85,105.3 101.2,109.2 105.8,109.05 110.25,108.9 113.3,104.75 116.05,101.15 116.2,96.3"/><path fill="none" stroke="#5CB8D6" stroke-width="3" stroke-linecap="round" stroke-linejoin="round" d="M116.2,96.3L94.4,97"/><path fill="#5CB8D6" d="M117.25,120.35Q116.75,115.45 113.75,112.15 110.4,108.3 105.95,108.45 101.35,108.6 98.3,112.65 95.5,116.25 95.5,121.15L117.25,120.35"/><path fill="none" stroke="#5CB8D6" stroke-width="3" stroke-linecap="round" stroke-linejoin="round" d="M95.5,121.15L117.25,120.35"/><path fill="#FF5B80" d="M102.55,113.2Q101.2,113.75 100.05,115.05 98.9,116.35 98,119.3L114.35,118.8Q113.25,116 111.9,114.7 109.3,112.5 105.95,112.6 103.9,112.7 102.55,113.2"/><path fill="none" stroke="#1A404F" stroke-width="2" stroke-linecap="round" stroke-linejoin="round" d="M60.85,76.8Q58.2,96.5 65.65,110.1 74.85,126.7 95.9,123.4"/><path fill="none" stroke="#1A3F4E" stroke-width="3" stroke-linecap="round" stroke-linejoin="round" d="M60.85,76.8Q58.2,96.5 65.65,110.1 74.85,126.7 95.9,123.4"/><path fill="none" stroke="#1A3F4E" stroke-width="3" stroke-linecap="round" stroke-linejoin="round" d="M98.8,129.3Q96.45,126.5 96.1,123.3 99.7,122.85 101.55,121.75M96.1,123.3Q98.85,125.7 102.1,125.95"/><animate attributeName="display" fill="freeze" repeatCount="1" dur="2.625s" keyTimes="0;0.175;0.206;1" values="none;inline;none;none"/></g><g style="display:none;"><path fill="#5CB8D6" d="M114.45,93.85L93.4,94.6Q93.75,99.65 96.7,103.05 99.95,107 104.4,106.85 108.7,106.7 111.65,102.5 114.3,98.8 114.45,93.85"/><path fill="none" stroke="#5CB8D6" stroke-width="3" stroke-linecap="round" stroke-linejoin="round" d="M114.45,93.85L93.4,94.6"/><path fill="#5CB8D6" d="M115.45,118.4Q114.95,113.4 112.05,110.05 108.85,106.1 104.55,106.25 100.1,106.4 97.15,110.55 94.45,114.2 94.45,119.2L115.45,118.4"/><path fill="none" stroke="#5CB8D6" stroke-width="3" stroke-linecap="round" stroke-linejoin="round" d="M94.45,119.2L115.45,118.4"/><path fill="#FF5B80" d="M101.25,111.1Q99.95,111.65 98.85,113 97.75,114.3 96.85,117.3L112.65,116.8Q111.6,113.95 110.3,112.65 107.75,110.4 104.55,110.5 102.55,110.6 101.25,111.1"/><path fill="none" stroke="#1A404F" stroke-width="2" stroke-linecap="round" stroke-linejoin="round" d="M61,74Q58.45,94.05 65.65,107.95 74.5,124.85 94.85,121.5"/><path fill="none" stroke="#1A3F4E" stroke-width="3" stroke-linecap="round" stroke-linejoin="round" d="M61,74Q58.45,94.05 65.65,107.95 74.5,124.85 94.85,121.5"/><path fill="none" stroke="#1A3F4E" stroke-width="3" stroke-linecap="round" stroke-linejoin="round" d="M99.1,127.05Q96.65,124.35 96.15,121.15 99.75,120.55 101.55,119.35M96.15,121.15Q99,123.45 102.25,123.6"/><animate attributeName="display" fill="freeze" repeatCount="1" dur="2.625s" keyTimes="0;0.127;0.175;1" values="none;inline;none;none"/></g><g style="display:none;"><path fill="#5CB8D6" d="M114.2,110.05Q117.05,106.45 117.2,101.6L94.65,102.3Q95.05,107.25 98.2,110.6 101.65,114.5 106.4,114.35 111.05,114.2 114.2,110.05"/><path fill="none" stroke="#5CB8D6" stroke-width="3" stroke-linecap="round" stroke-linejoin="round" d="M117.2,101.6L94.65,102.3"/><path fill="#5CB8D6" d="M118.25,125.65Q117.75,120.75 114.65,117.45 111.2,113.6 106.6,113.75 101.8,113.9 98.65,117.95 95.75,121.55 95.75,126.45L118.25,125.65"/><path fill="none" stroke="#5CB8D6" stroke-width="3" stroke-linecap="round" stroke-linejoin="round" d="M95.75,126.45L118.25,125.65"/><path fill="#FF5B80" d="M100.45,120.35Q99.3,121.65 98.35,124.6L115.25,124.1Q114.15,121.3 112.75,120 110.05,117.8 106.6,117.9 104.45,118 103.05,118.5 101.65,119.05 100.45,120.35"/><path fill="none" stroke="#1A404F" stroke-width="2" stroke-linecap="round" stroke-linejoin="round" d="M59.95,82.1Q57.2,101.8 64.9,115.4 74.45,132 96.25,128.7"/><path fill="none" stroke="#1A3F4E" stroke-width="3" stroke-linecap="round" stroke-linejoin="round" d="M59.95,82.1Q57.2,101.8 64.9,115.4 74.45,132 96.25,128.7"/><path fill="none" stroke="#1A3F4E" stroke-width="3" stroke-linecap="round" stroke-linejoin="round" d="M99.35,134.35Q97.5,131.15 97.65,127.95 101.3,128.1 103.35,127.3M97.65,127.95Q99.95,130.75 103.15,131.65"/><animate attributeName="display" fill="freeze" repeatCount="1" dur="2.625s" keyTimes="0;0.079;0.127;1" values="none;inline;none;none"/></g><g style="display:none;"><path fill="#5CB8D6" d="M113.3,109.35Q116.05,105.75 116.2,100.9L94.4,101.6Q94.8,106.55 97.85,109.9 101.2,113.8 105.8,113.65 110.25,113.5 113.3,109.35"/><path fill="none" stroke="#5CB8D6" stroke-width="3" stroke-linecap="round" stroke-linejoin="round" d="M116.2,100.9L94.4,101.6"/><path fill="#5CB8D6" d="M117.25,124.95Q116.75,120.05 113.75,116.75 110.4,112.9 105.95,113.05 101.35,113.2 98.3,117.25 95.5,120.85 95.5,125.75L117.25,124.95"/><path fill="none" stroke="#5CB8D6" stroke-width="3" stroke-linecap="round" stroke-linejoin="round" d="M95.5,125.75L117.25,124.95"/><path fill="#FF5B80" d="M102.55,117.8Q101.2,118.35 100.05,119.65 98.9,120.95 98,123.9L114.35,123.4Q113.25,120.6 111.9,119.3 109.3,117.1 105.95,117.2 103.9,117.3 102.55,117.8"/><path fill="none" stroke="#1A404F" stroke-width="2" stroke-linecap="round" stroke-linejoin="round" d="M60.85,81.4Q58.2,101.1 65.65,114.7 74.85,131.3 95.9,128"/><path fill="none" stroke="#1A3F4E" stroke-width="3" stroke-linecap="round" stroke-linejoin="round" d="M60.85,81.4Q58.2,101.1 65.65,114.7 74.85,131.3 95.9,128"/><path fill="none" stroke="#1A3F4E" stroke-width="3" stroke-linecap="round" stroke-linejoin="round" d="M98.85,133.85Q97,130.65 97.15,127.45 100.8,127.6 102.85,126.8M97.15,127.45Q99.45,130.25 102.65,131.15"/><animate attributeName="display" fill="freeze" repeatCount="1" dur="2.625s" keyTimes="0;0.048;0.079;1" values="none;inline;none;none"/></g><g style="display:none;"><path fill="#5CB8D6" d="M113.3,107.95Q116.05,104.35 116.2,99.5L94.4,100.2Q94.8,105.15 97.85,108.5 101.2,112.4 105.8,112.25 110.25,112.1 113.3,107.95"/><path fill="none" stroke="#5CB8D6" stroke-width="3" stroke-linecap="round" stroke-linejoin="round" d="M116.2,99.5L94.4,100.2"/><path fill="#5CB8D6" d="M117.25,123.55Q116.75,118.65 113.75,115.35 110.4,111.5 105.95,111.65 101.35,111.8 98.3,115.85 95.5,119.45 95.5,124.35L117.25,123.55"/><path fill="none" stroke="#5CB8D6" stroke-width="3" stroke-linecap="round" stroke-linejoin="round" d="M95.5,124.35L117.25,123.55"/><path fill="#FF5B80" d="M102.55,116.4Q101.2,116.95 100.05,118.25 98.9,119.55 98,122.5L114.35,122Q113.25,119.2 111.9,117.9 109.3,115.7 105.95,115.8 103.9,115.9 102.55,116.4"/><path fill="none" stroke="#1A404F" stroke-width="2" stroke-linecap="round" stroke-linejoin="round" d="M60.85,80Q58.2,99.7 65.65,113.3 74.85,129.9 95.9,126.6"/><path fill="none" stroke="#1A3F4E" stroke-width="3" stroke-linecap="round" stroke-linejoin="round" d="M60.85,80Q58.2,99.7 65.65,113.3 74.85,129.9 95.9,126.6"/><path fill="none" stroke="#1A3F4E" stroke-width="3" stroke-linecap="round" stroke-linejoin="round" d="M98.6,132.6Q96.75,129.4 96.9,126.2 100.55,126.35 102.6,125.55M96.9,126.2Q99.2,129 102.4,129.9"/><animate attributeName="display" fill="freeze" repeatCount="1" dur="2.625s" keyTimes="0;0.016;0.048;1" values="none;inline;none;none"/></g><g><path fill="none" stroke="#1A3F4E" stroke-width="3" stroke-linecap="round" stroke-linejoin="round" d="M62.9,104.95Q65.35,112.3 69.5,116.6 74.2,121.3 80.95,119.8 89.75,117.9 98.6,105.4M62.9,104.95Q59.7,94.75 60.6,80.2"/><path fill="none" stroke="#1A3F4E" stroke-width="3" stroke-linecap="round" stroke-linejoin="round" d="M100.8,112Q98.5,109.1 98.2,105.9 101.85,105.5 103.7,104.4M98.2,105.9Q100.85,108.35 104.15,108.75"/><animate attributeName="display" fill="freeze" repeatCount="1" dur="2.625s" keyTimes="0;0.016;1" values="inline;none;none"/></g><animate attributeName="mask" repeatCount="1" dur="2.625s" keyTimes="0;0;1" values="null;none;none" fill="freeze"/></g><mask id="mask_"/><g style="display:none;"><path fill="#FF5B80" d="M53.9,38.55L51.9,41.25 53.9,43.95 55.9,41.25 53.9,38.55"/><animate attributeName="display" fill="freeze" repeatCount="1" dur="2.625s" keyTimes="0;0.984;1" values="none;inline;inline"/></g><g style="display:none;"><path fill="#FF5B80" d="M53.9,38.6L51.95,41.25 53.9,43.9 55.85,41.25 53.9,38.6"/><animate attributeName="display" fill="freeze" repeatCount="1" dur="2.625s" keyTimes="0;0.968;0.984;1" values="none;inline;none;none"/></g><g style="display:none;"><path fill="#FF5B80" d="M53.9,38.7L52,41.25 53.9,43.8 55.8,41.25 53.9,38.7"/><animate attributeName="display" fill="freeze" repeatCount="1" dur="2.625s" keyTimes="0;0.952;0.968;1" values="none;inline;none;none"/></g><g style="display:none;"><path fill="#FF5B80" d="M53.9,38.8L52.05,41.25 53.9,43.7 55.7,41.25 53.9,38.8"/><animate attributeName="display" fill="freeze" repeatCount="1" dur="2.625s" keyTimes="0;0.937;0.952;1" values="none;inline;none;none"/></g><g style="display:none;"><path fill="#FF5B80" d="M53.9,38.9L52.15,41.25 53.9,43.55 55.6,41.25 53.9,38.9"/><animate attributeName="display" fill="freeze" repeatCount="1" dur="2.625s" keyTimes="0;0.921;0.937;1" values="none;inline;none;none"/></g><g style="display:none;"><path fill="#FF5B80" d="M53.9,39.05L52.3,41.25 53.9,43.4 55.5,41.25 53.9,39.05"/><animate attributeName="display" fill="freeze" repeatCount="1" dur="2.625s" keyTimes="0;0.905;0.921;1" values="none;inline;none;none"/></g><g style="display:none;"><path fill="#FF5B80" d="M53.9,39.25L52.45,41.2 53.9,43.25 55.35,41.2 53.9,39.25"/><animate attributeName="display" fill="freeze" repeatCount="1" dur="2.625s" keyTimes="0;0.889;0.905;1" values="none;inline;none;none"/></g><g style="display:none;"><path fill="#FF5B80" d="M53.9,39.45L52.6,41.2 53.9,43.05 55.2,41.2 53.9,39.45"/><animate attributeName="display" fill="freeze" repeatCount="1" dur="2.625s" keyTimes="0;0.873;0.889;1" values="none;inline;none;none"/></g><g style="display:none;"><path fill="#FF5B80" d="M53.9,39.55L52.7,41.2 53.9,42.9 55.05,41.2 53.9,39.55"/><animate attributeName="display" fill="freeze" repeatCount="1" dur="2.625s" keyTimes="0;0.365;0.381;0.587;0.603;0.81;0.825;1" values="none;inline;none;inline;none;inline;none;none"/></g><g style="display:none;"><path fill="#FF5B80" d="M53.9,39.4L52.55,41.2 53.9,43.05 55.2,41.2 53.9,39.4"/><animate attributeName="display" fill="freeze" repeatCount="1" dur="2.625s" keyTimes="0;0.349;0.365;0.571;0.587;0.794;0.81;1" values="none;inline;none;inline;none;inline;none;none"/></g><g style="display:none;"><path fill="#FF5B80" d="M53.9,39.2L52.4,41.2 53.9,43.3 55.4,41.2 53.9,39.2"/><animate attributeName="display" fill="freeze" repeatCount="1" dur="2.625s" keyTimes="0;0.333;0.349;0.556;0.571;0.778;0.794;1" values="none;inline;none;inline;none;inline;none;none"/></g><g style="display:none;"><path fill="#FF5B80" d="M53.9,38.9L52.15,41.25 53.9,43.6 55.65,41.25 53.9,38.9"/><animate attributeName="display" fill="freeze" repeatCount="1" dur="2.625s" keyTimes="0;0.317;0.333;0.54;0.556;0.762;0.778;1" values="none;inline;none;inline;none;inline;none;none"/></g><g style="display:none;"><path fill="#FF5B80" d="M51.85,41.25L53.9,44 55.95,41.25 53.9,38.5 51.85,41.25"/><animate attributeName="display" fill="freeze" repeatCount="1" dur="2.625s" keyTimes="0;0.27;0.317;0.492;0.54;0.714;0.762;1" values="none;inline;none;inline;none;inline;none;none"/></g><g style="display:none;"><path fill="#FF5B80" d="M53.9,38.6L51.9,41.25 53.9,43.9 55.9,41.25 53.9,38.6"/><animate attributeName="display" fill="freeze" repeatCount="1" dur="2.625s" keyTimes="0;0.254;0.27;0.476;0.492;0.698;0.714;1" values="none;inline;none;inline;none;inline;none;none"/></g><g style="display:none;"><path fill="#FF5B80" d="M53.9,38.75L52.05,41.25 53.9,43.75 55.75,41.25 53.9,38.75"/><animate attributeName="display" fill="freeze" repeatCount="1" dur="2.625s" keyTimes="0;0.238;0.254;0.46;0.476;0.683;0.698;1" values="none;inline;none;inline;none;inline;none;none"/></g><g style="display:none;"><path fill="#FF5B80" d="M53.9,38.95L52.2,41.25 53.9,43.5 55.55,41.25 53.9,38.95"/><animate attributeName="display" fill="freeze" repeatCount="1" dur="2.625s" keyTimes="0;0.222;0.238;0.444;0.46;0.667;0.683;1" values="none;inline;none;inline;none;inline;none;none"/></g><g style="display:none;"><path fill="#FF5B80" d="M53.9,39.25L52.45,41.2 53.9,43.2 55.3,41.2 53.9,39.25"/><animate attributeName="display" fill="freeze" repeatCount="1" dur="2.625s" keyTimes="0;0.206;0.222;0.429;0.444;0.651;0.667;1" values="none;inline;none;inline;none;inline;none;none"/></g><g style="display:none;"><path fill="#FF5B80" d="M52.75,41.2L53.9,42.8 55,41.2 53.9,39.65 52.75,41.2"/><animate attributeName="display" fill="freeze" repeatCount="1" dur="2.625s" keyTimes="0;0.19;0.206;0.381;0.429;0.603;0.651;0.825;0.873;1" values="none;inline;none;inline;none;inline;none;inline;none;none"/></g><g style="display:none;"><path fill="#FF5B80" d="M53.9,39.9L52.95,41.2 53.9,42.55 54.85,41.2 53.9,39.9"/><animate attributeName="display" fill="freeze" repeatCount="1" dur="2.625s" keyTimes="0;0.175;0.19;1" values="none;inline;none;none"/></g><g style="display:none;"><path fill="#FF5B80" d="M53.35,41.2L53.9,42 54.45,41.2 53.9,40.45 53.35,41.2"/><animate attributeName="display" fill="freeze" repeatCount="1" dur="2.625s" keyTimes="0;0.159;0.175;1" values="none;inline;none;none"/></g><g style="display:none;"><path fill="#FF5B80" d="M58,29.2L55.1,33.15 58,37.1 60.95,33.15 58,29.2"/><animate attributeName="display" fill="freeze" repeatCount="1" dur="2.625s" keyTimes="0;0.984;1" values="none;inline;inline"/></g><g style="display:none;"><path fill="#FF5B80" d="M58,29.5L55.3,33.15 58,36.8 60.7,33.15 58,29.5"/><animate attributeName="display" fill="freeze" repeatCount="1" dur="2.625s" keyTimes="0;0.968;0.984;1" values="none;inline;none;none"/></g><g style="display:none;"><path fill="#FF5B80" d="M58,29.95L55.65,33.15 58,36.35 60.4,33.15 58,29.95"/><animate attributeName="display" fill="freeze" repeatCount="1" dur="2.625s" keyTimes="0;0.952;0.968;1" values="none;inline;none;none"/></g><g style="display:none;"><path fill="#FF5B80" d="M58,30.55L56.15,33.15 58,35.75 59.95,33.15 58,30.55"/><animate attributeName="display" fill="freeze" repeatCount="1" dur="2.625s" keyTimes="0;0.937;0.952;1" values="none;inline;none;none"/></g><g style="display:none;"><path fill="#FF5B80" d="M58,29.2L55.05,33.15 58,37.1 60.95,33.15 58,29.2"/><animate attributeName="display" fill="freeze" repeatCount="1" dur="2.625s" keyTimes="0;0.524;0.54;0.778;0.794;1" values="none;inline;none;inline;none;none"/></g><g style="display:none;"><path fill="#FF5B80" d="M58,29.4L55.2,33.15 58,36.9 60.8,33.15 58,29.4"/><animate attributeName="display" fill="freeze" repeatCount="1" dur="2.625s" keyTimes="0;0.508;0.524;0.762;0.778;1" values="none;inline;none;inline;none;none"/></g><g style="display:none;"><path fill="#FF5B80" d="M58,30.15L55.8,33.15 58,36.15 60.25,33.15 58,30.15"/><animate attributeName="display" fill="freeze" repeatCount="1" dur="2.625s" keyTimes="0;0.476;0.492;0.73;0.746;1" values="none;inline;none;inline;none;none"/></g><g style="display:none;"><path fill="#FF5B80" d="M58,30.7L56.2,33.15 58,35.6 59.85,33.15 58,30.7"/><animate attributeName="display" fill="freeze" repeatCount="1" dur="2.625s" keyTimes="0;0.46;0.476;0.714;0.73;1" values="none;inline;none;inline;none;none"/></g><g style="display:none;"><path fill="#FF5B80" d="M58,31.15L56.6,33.15 58,35.15 59.5,33.15 58,31.15"/><animate attributeName="display" fill="freeze" repeatCount="1" dur="2.625s" keyTimes="0;0.397;0.413;0.651;0.667;0.905;0.921;1" values="none;inline;none;inline;none;inline;none;none"/></g><g style="display:none;"><path fill="#FF5B80" d="M58,30.95L56.45,33.15 58,35.35 59.65,33.15 58,30.95"/><animate attributeName="display" fill="freeze" repeatCount="1" dur="2.625s" keyTimes="0;0.381;0.397;0.635;0.651;0.889;0.905;1" values="none;inline;none;inline;none;inline;none;none"/></g><g style="display:none;"><path fill="#FF5B80" d="M58,30.65L56.2,33.15 58,35.65 59.9,33.15 58,30.65"/><animate attributeName="display" fill="freeze" repeatCount="1" dur="2.625s" keyTimes="0;0.365;0.381;0.619;0.635;0.873;0.889;1" values="none;inline;none;inline;none;inline;none;none"/></g><g style="display:none;"><path fill="#FF5B80" d="M58,30.2L55.85,33.15 58,36.1 60.2,33.15 58,30.2"/><animate attributeName="display" fill="freeze" repeatCount="1" dur="2.625s" keyTimes="0;0.349;0.365;0.603;0.619;0.857;0.873;1" values="none;inline;none;inline;none;inline;none;none"/></g><g style="display:none;"><path fill="#FF5B80" d="M58,29.65L55.45,33.15 58,36.65 60.6,33.15 58,29.65"/><animate attributeName="display" fill="freeze" repeatCount="1" dur="2.625s" keyTimes="0;0.333;0.349;0.587;0.603;0.841;0.857;1" values="none;inline;none;inline;none;inline;none;none"/></g><g style="display:none;"><path fill="#FF5B80" d="M58,37.25L61.05,33.15 58,29.05 54.95,33.15 58,37.25"/><animate attributeName="display" fill="freeze" repeatCount="1" dur="2.625s" keyTimes="0;0.286;0.333;0.54;0.587;0.794;0.841;1" values="none;inline;none;inline;none;inline;none;none"/></g><g style="display:none;"><path fill="#FF5B80" d="M58,29.25L55.1,33.15 58,37.05 60.9,33.15 58,29.25"/><animate attributeName="display" fill="freeze" repeatCount="1" dur="2.625s" keyTimes="0;0.27;0.286;1" values="none;inline;none;none"/></g><g style="display:none;"><path fill="#FF5B80" d="M58,29.7L55.45,33.15 58,36.6 60.55,33.15 58,29.7"/><animate attributeName="display" fill="freeze" repeatCount="1" dur="2.625s" keyTimes="0;0.254;0.27;0.492;0.508;0.746;0.762;1" values="none;inline;none;inline;none;inline;none;none"/></g><g style="display:none;"><path fill="#FF5B80" d="M58,30.4L56,33.15 58,35.9 60.05,33.15 58,30.4"/><animate attributeName="display" fill="freeze" repeatCount="1" dur="2.625s" keyTimes="0;0.238;0.254;1" values="none;inline;none;none"/></g><g style="display:none;"><path fill="#FF5B80" d="M59.4,33.15L58,31.3 56.7,33.15 58,35 59.4,33.15"/><animate attributeName="display" fill="freeze" repeatCount="1" dur="2.625s" keyTimes="0;0.222;0.238;0.413;0.46;0.667;0.714;0.921;0.937;1" values="none;inline;none;inline;none;inline;none;inline;none;none"/></g><g style="display:none;"><path fill="#FF5B80" d="M58,31.6L56.9,33.15 58,34.75 59.2,33.15 58,31.6"/><animate attributeName="display" fill="freeze" repeatCount="1" dur="2.625s" keyTimes="0;0.206;0.222;1" values="none;inline;none;none"/></g><g style="display:none;"><path fill="#FF5B80" d="M58.7,33.15L58,32.25 57.35,33.15 58,34.1 58.7,33.15"/><animate attributeName="display" fill="freeze" repeatCount="1" dur="2.625s" keyTimes="0;0.19;0.206;1" values="none;inline;none;none"/></g><g style="display:none;"><path fill="#FF5B80" d="M66,44.45L62.05,39.1 58.15,44.45 62.05,49.8 66,44.45"/><animate attributeName="display" fill="freeze" repeatCount="1" dur="2.625s" keyTimes="0;0.984;1" values="none;inline;inline"/></g><g style="display:none;"><path fill="#FF5B80" d="M65.95,44.45L62.05,39.2 58.2,44.45 62.05,49.7 65.95,44.45"/><animate attributeName="display" fill="freeze" repeatCount="1" dur="2.625s" keyTimes="0;0.968;0.984;1" values="none;inline;none;none"/></g><g style="display:none;"><path fill="#FF5B80" d="M65.85,44.45L62.05,39.3 58.3,44.45 62.05,49.6 65.85,44.45"/><animate attributeName="display" fill="freeze" repeatCount="1" dur="2.625s" keyTimes="0;0.952;0.968;1" values="none;inline;none;none"/></g><g style="display:none;"><path fill="#FF5B80" d="M62.05,39.45L58.4,44.45 62.05,49.4 65.75,44.45 62.05,39.45"/><animate attributeName="display" fill="freeze" repeatCount="1" dur="2.625s" keyTimes="0;0.937;0.952;1" values="none;inline;none;none"/></g><g style="display:none;"><path fill="#FF5B80" d="M62.05,39.65L58.55,44.45 62.05,49.25 65.6,44.45 62.05,39.65"/><animate attributeName="display" fill="freeze" repeatCount="1" dur="2.625s" keyTimes="0;0.921;0.937;1" values="none;inline;none;none"/></g><g style="display:none;"><path fill="#FF5B80" d="M62.05,39.85L58.7,44.45 62.05,49 65.45,44.45 62.05,39.85"/><animate attributeName="display" fill="freeze" repeatCount="1" dur="2.625s" keyTimes="0;0.905;0.921;1" values="none;inline;none;none"/></g><g style="display:none;"><path fill="#FF5B80" d="M62.05,40.1L58.9,44.45 62.05,48.75 65.25,44.45 62.05,40.1"/><animate attributeName="display" fill="freeze" repeatCount="1" dur="2.625s" keyTimes="0;0.889;0.905;1" values="none;inline;none;none"/></g><g style="display:none;"><path fill="#FF5B80" d="M62.05,40.4L59.1,44.45 62.05,48.5 65.05,44.45 62.05,40.4"/><animate attributeName="display" fill="freeze" repeatCount="1" dur="2.625s" keyTimes="0;0.873;0.889;1" values="none;inline;none;none"/></g><g style="display:none;"><path fill="#FF5B80" d="M62.05,40.7L59.3,44.45 62.05,48.15 64.8,44.45 62.05,40.7"/><animate attributeName="display" fill="freeze" repeatCount="1" dur="2.625s" keyTimes="0;0.857;0.873;1" values="none;inline;none;none"/></g><g style="display:none;"><path fill="#FF5B80" d="M62.05,41.05L59.6,44.45 62.05,47.85 64.55,44.45 62.05,41.05"/><animate attributeName="display" fill="freeze" repeatCount="1" dur="2.625s" keyTimes="0;0.841;0.857;1" values="none;inline;none;none"/></g><g style="display:none;"><path fill="#FF5B80" d="M66,44.45L62.05,39.15 58.15,44.45 62.05,49.75 66,44.45"/><animate attributeName="display" fill="freeze" repeatCount="1" dur="2.625s" keyTimes="0;0.619;0.635;1" values="none;inline;none;none"/></g><g style="display:none;"><path fill="#FF5B80" d="M65.85,44.45L62.05,39.3 58.25,44.45 62.05,49.6 65.85,44.45"/><animate attributeName="display" fill="freeze" repeatCount="1" dur="2.625s" keyTimes="0;0.603;0.619;1" values="none;inline;none;none"/></g><g style="display:none;"><path fill="#FF5B80" d="M62.05,39.5L58.45,44.45 62.05,49.4 65.7,44.45 62.05,39.5"/><animate attributeName="display" fill="freeze" repeatCount="1" dur="2.625s" keyTimes="0;0.587;0.603;1" values="none;inline;none;none"/></g><g style="display:none;"><path fill="#FF5B80" d="M62.05,39.75L58.6,44.45 62.05,49.15 65.5,44.45 62.05,39.75"/><animate attributeName="display" fill="freeze" repeatCount="1" dur="2.625s" keyTimes="0;0.571;0.587;1" values="none;inline;none;none"/></g><g style="display:none;"><path fill="#FF5B80" d="M62.05,40.1L58.85,44.45 62.05,48.8 65.25,44.45 62.05,40.1"/><animate attributeName="display" fill="freeze" repeatCount="1" dur="2.625s" keyTimes="0;0.556;0.571;1" values="none;inline;none;none"/></g><g style="display:none;"><path fill="#FF5B80" d="M62.05,40.45L59.15,44.45 62.05,48.4 64.95,44.45 62.05,40.45"/><animate attributeName="display" fill="freeze" repeatCount="1" dur="2.625s" keyTimes="0;0.54;0.556;1" values="none;inline;none;none"/></g><g style="display:none;"><path fill="#FF5B80" d="M62.05,40.9L59.5,44.45 62.05,47.95 64.65,44.45 62.05,40.9"/><animate attributeName="display" fill="freeze" repeatCount="1" dur="2.625s" keyTimes="0;0.524;0.54;1" values="none;inline;none;none"/></g><g style="display:none;"><path fill="#FF5B80" d="M62.05,41.3L59.8,44.45 62.05,47.55 64.3,44.45 62.05,41.3"/><animate attributeName="display" fill="freeze" repeatCount="1" dur="2.625s" keyTimes="0;0.46;0.476;0.778;0.794;1" values="none;inline;none;inline;none;none"/></g><g style="display:none;"><path fill="#FF5B80" d="M62.05,41.15L59.7,44.45 62.05,47.7 64.45,44.45 62.05,41.15"/><animate attributeName="display" fill="freeze" repeatCount="1" dur="2.625s" keyTimes="0;0.444;0.46;0.762;0.778;1" values="none;inline;none;inline;none;none"/></g><g style="display:none;"><path fill="#FF5B80" d="M62.05,40.95L59.5,44.45 62.05,47.9 64.6,44.45 62.05,40.95"/><animate attributeName="display" fill="freeze" repeatCount="1" dur="2.625s" keyTimes="0;0.429;0.444;0.746;0.762;1" values="none;inline;none;inline;none;none"/></g><g style="display:none;"><path fill="#FF5B80" d="M62.05,40.7L59.35,44.45 62.05,48.15 64.8,44.45 62.05,40.7"/><animate attributeName="display" fill="freeze" repeatCount="1" dur="2.625s" keyTimes="0;0.413;0.429;0.73;0.746;1" values="none;inline;none;inline;none;none"/></g><g style="display:none;"><path fill="#FF5B80" d="M62.05,40.35L59.1,44.45 62.05,48.5 65.05,44.45 62.05,40.35"/><animate attributeName="display" fill="freeze" repeatCount="1" dur="2.625s" keyTimes="0;0.397;0.413;0.714;0.73;1" values="none;inline;none;inline;none;none"/></g><g style="display:none;"><path fill="#FF5B80" d="M62.05,40L58.8,44.45 62.05,48.9 65.35,44.45 62.05,40"/><animate attributeName="display" fill="freeze" repeatCount="1" dur="2.625s" keyTimes="0;0.381;0.397;0.698;0.714;1" values="none;inline;none;inline;none;none"/></g><g style="display:none;"><path fill="#FF5B80" d="M62.05,39.55L58.45,44.45 62.05,49.35 65.65,44.45 62.05,39.55"/><animate attributeName="display" fill="freeze" repeatCount="1" dur="2.625s" keyTimes="0;0.365;0.381;0.683;0.698;1" values="none;inline;none;inline;none;none"/></g><g style="display:none;"><path fill="#FF5B80" d="M66.05,44.45L62.05,39.05 58.1,44.45 62.05,49.85 66.05,44.45"/><animate attributeName="display" fill="freeze" repeatCount="1" dur="2.625s" keyTimes="0;0.317;0.365;0.635;0.683;1" values="none;inline;none;inline;none;none"/></g><g style="display:none;"><path fill="#FF5B80" d="M65.95,44.45L62.05,39.15 58.2,44.45 62.05,49.75 65.95,44.45"/><animate attributeName="display" fill="freeze" repeatCount="1" dur="2.625s" keyTimes="0;0.302;0.317;1" values="none;inline;none;none"/></g><g style="display:none;"><path fill="#FF5B80" d="M65.85,44.45L62.05,39.35 58.3,44.45 62.05,49.55 65.85,44.45"/><animate attributeName="display" fill="freeze" repeatCount="1" dur="2.625s" keyTimes="0;0.286;0.302;1" values="none;inline;none;none"/></g><g style="display:none;"><path fill="#FF5B80" d="M62.05,39.6L58.5,44.45 62.05,49.3 65.65,44.45 62.05,39.6"/><animate attributeName="display" fill="freeze" repeatCount="1" dur="2.625s" keyTimes="0;0.27;0.286;1" values="none;inline;none;none"/></g><g style="display:none;"><path fill="#FF5B80" d="M62.05,39.95L58.75,44.45 62.05,48.95 65.35,44.45 62.05,39.95"/><animate attributeName="display" fill="freeze" repeatCount="1" dur="2.625s" keyTimes="0;0.254;0.27;1" values="none;inline;none;none"/></g><g style="display:none;"><path fill="#FF5B80" d="M62.05,40.35L59.05,44.45 62.05,48.55 65.05,44.45 62.05,40.35"/><animate attributeName="display" fill="freeze" repeatCount="1" dur="2.625s" keyTimes="0;0.238;0.254;1" values="none;inline;none;none"/></g><g style="display:none;"><path fill="#FF5B80" d="M62.05,40.85L59.45,44.45 62.05,48.05 64.7,44.45 62.05,40.85"/><animate attributeName="display" fill="freeze" repeatCount="1" dur="2.625s" keyTimes="0;0.222;0.238;1" values="none;inline;none;none"/></g><g style="display:none;"><path fill="#FF5B80" d="M62.05,47.45L64.25,44.45 62.05,41.4 59.85,44.45 62.05,47.45"/><animate attributeName="display" fill="freeze" repeatCount="1" dur="2.625s" keyTimes="0;0.206;0.222;0.476;0.524;0.794;0.841;1" values="none;inline;none;inline;none;inline;none;none"/></g><g style="display:none;"><path fill="#FF5B80" d="M62.05,42.05L60.3,44.45 62.05,46.8 63.8,44.45 62.05,42.05"/><animate attributeName="display" fill="freeze" repeatCount="1" dur="2.625s" keyTimes="0;0.19;0.206;1" values="none;inline;none;none"/></g><g style="display:none;"><path fill="#FF5B80" d="M62.05,45.3L62.7,44.45 62.05,43.5 61.4,44.45 62.05,45.3"/><animate attributeName="display" fill="freeze" repeatCount="1" dur="2.625s" keyTimes="0;0.175;0.19;1" values="none;inline;none;none"/></g><g style="display:none;"><path fill="#FF5B80" d="M56.1,51.25Q56.1,51.7 56.45,52 56.7,52.3 57.1,52.3 57.55,52.3 57.8,52 58.15,51.7 58.15,51.25 58.15,50.8 57.8,50.6 57.55,50.3 57.1,50.3 56.7,50.3 56.45,50.6 56.1,50.8 56.1,51.25"/><path fill="#FF5B80" d="M65.95,37.05Q66.45,36.6 66.45,35.9 66.45,35.25 65.95,34.95 65.55,34.5 64.9,34.5 64.3,34.5 63.9,34.95 63.4,35.25 63.4,35.9 63.4,36.6 63.9,37.05 64.3,37.5 64.9,37.5 65.55,37.5 65.95,37.05"/><animate attributeName="display" fill="freeze" repeatCount="1" dur="2.625s" keyTimes="0;0.54;0.635;1" values="none;inline;none;none"/></g><g style="display:none;"><path fill="#FF5B80" d="M56.1,51.25Q56.1,51.7 56.45,52 56.7,52.3 57.1,52.3 57.55,52.3 57.8,52 58.15,51.7 58.15,51.25 58.15,50.8 57.8,50.6 57.55,50.3 57.1,50.3 56.7,50.3 56.45,50.6 56.1,50.8 56.1,51.25"/><animate attributeName="display" fill="freeze" repeatCount="1" dur="2.625s" keyTimes="0;0.46;0.54;1" values="none;inline;none;none"/></g><g style="display:none;"><path fill="#FF5B80" d="M51.35,34.9Q51.15,35.05 51.15,35.3 51.15,35.6 51.35,35.75 51.5,35.95 51.75,35.95 52,35.95 52.15,35.75 52.35,35.6 52.35,35.3 52.35,35.05 52.15,34.9 52,34.75 51.75,34.75 51.5,34.75 51.35,34.9"/><animate attributeName="display" fill="freeze" repeatCount="1" dur="2.625s" keyTimes="0;0.381;0.46;0.714;1" values="none;inline;none;inline;inline"/></g><g style="display:none;"><path fill="#FF5B80" d="M65.95,37.05Q66.45,36.6 66.45,35.9 66.45,35.25 65.95,34.95 65.55,34.5 64.9,34.5 64.3,34.5 63.9,34.95 63.4,35.25 63.4,35.9 63.4,36.6 63.9,37.05 64.3,37.5 64.9,37.5 65.55,37.5 65.95,37.05"/><animate attributeName="display" fill="freeze" repeatCount="1" dur="2.625s" keyTimes="0;0.317;0.381;1" values="none;inline;none;none"/></g><g style="display:none;"><path fill="#FF5B80" d="M56.1,51.25Q56.1,51.7 56.45,52 56.7,52.3 57.1,52.3 57.55,52.3 57.8,52 58.15,51.7 58.15,51.25 58.15,50.8 57.8,50.6 57.55,50.3 57.1,50.3 56.7,50.3 56.45,50.6 56.1,50.8 56.1,51.25"/><path fill="#FF5B80" d="M51.35,34.9Q51.15,35.05 51.15,35.3 51.15,35.6 51.35,35.75 51.5,35.95 51.75,35.95 52,35.95 52.15,35.75 52.35,35.6 52.35,35.3 52.35,35.05 52.15,34.9 52,34.75 51.75,34.75 51.5,34.75 51.35,34.9"/><animate attributeName="display" fill="freeze" repeatCount="1" dur="2.625s" keyTimes="0;0.254;0.317;0.635;0.714;1" values="none;inline;none;inline;none;none"/></g></g></svg>