<?xml version="1.0" encoding="utf-8"?><svg xmlns:xlink="http://www.w3.org/1999/xlink" id="error_toc2" image-rendering="auto" baseProfile="basic" version="1.1" x="0px" y="0px" width="176" height="129" xmlns="http://www.w3.org/2000/svg"><g id="Scene_1" overflow="visible"><path fill="#FFF" d="M-0.05,-0.15L-0.05,129.2 176.05,129.2 176.05,-0.15 -0.05,-0.15"/><path fill="#317C99" d="M100.7,78.25L97.35,78.25 98.4,141.55 110.1,141.55 100.7,78.25"/><path fill="#FF5B80" d="M110.1,141.55L98.4,141.55 98.7,160.7Q98.6,165.7 102.85,166.15L109.15,166.15Q113.35,165.9 113,161.15L110.1,141.55"/><path fill="#317C99" d="M75.5,78.25L72.15,78.25 73.2,141.55 84.9,141.55 75.5,78.25"/><path fill="#FF5B80" d="M73.5,160.7Q73.4,165.7 77.65,166.15L83.95,166.15Q88.15,165.9 87.8,161.15L84.9,141.55 73.2,141.55 73.5,160.7"/><path fill="none" stroke="#0D2B35" stroke-width="2" stroke-linecap="round" stroke-linejoin="round" d="M122.2,58.3Q131.5,55.3 136.6,56.9 142.2,58.7 139.75,65.25 136.9,72.75 123.75,84.7M122.2,58.3Q112.7,61.3 104.5,67.6"/><path fill="none" stroke="#0D2B35" stroke-width="2" stroke-linecap="round" stroke-linejoin="round" d="M122.2,58.3Q131.5,55.3 136.6,56.9 142.2,58.7 139.75,65.25 136.9,72.75 123.75,84.7M122.2,58.3Q112.7,61.3 104.5,67.6"/><path fill="none" stroke="#1A3F4E" stroke-width="3" stroke-linecap="round" stroke-linejoin="round" d="M122.2,58.3Q131.5,55.3 136.6,56.9 142.2,58.7 139.75,65.25 136.9,72.75 123.75,84.7M122.2,58.3Q112.7,61.3 104.5,67.6"/><path fill="none" stroke="#1A3F4E" stroke-width="3" stroke-linecap="round" stroke-linejoin="round" d="M129.5,84.35Q127.45,85.4 124,85.45 126.45,88 129.7,88.6M124,85.45Q124.05,89 126.3,91.95"/><g id="torso2" transform="matrix(1 -0.002 0.002 1 42.55 23.3)"><path fill="#FF5B80" d="M57.2,29.25L45.35,13.3Q40.55,7.7 36.95,13.9L26.9,31.5 57.2,29.25"/><path fill="#317C99" d="M10.8,59.8L8.2,64.4Q6.3,67.7 7.95,69.85 9.5,71.85 12.65,71.6L34.7,70 74.2,67.25Q78.8,67.2 80.35,64.75 81.9,62.3 79.25,58.9L76.45,55.2 57.2,29.25 26.9,31.5 10.8,59.8"/><path fill="none" stroke="#317C99" stroke-width="3" stroke-linecap="round" stroke-linejoin="round" d="M41,9.75L41.15,9.4 40.55,1.65M41.15,9.4L45.2,2.55M41,9.75L35.95,3.25"/></g><path fill="#FF5B80" d="M70.9,81.85L79.1,87.3Q79.4,87.05 79.65,86.65 81,84.55 80.75,82.3 80.45,80 78.85,78.9 77.1,77.75 74.9,78.4 72.7,79.05 71.35,81.15 71.1,81.55 70.9,81.85"/><path fill="none" stroke="#0E2D38" stroke-width="3" stroke-linecap="round" stroke-linejoin="round" d="M86.85,87.05Q84.7,87.75 82.15,87.75 77.05,87.75 73.45,84.95 69.85,82.2 69.85,78.25 69.85,77.65 69.95,77.05"/><path fill="none" stroke="#0E2D38" stroke-width="2" stroke-linecap="round" stroke-linejoin="round" d="M100.3,60L91.7,61.35"/><path fill="none" stroke="#0E2D38" stroke-width="2" stroke-linecap="round" stroke-linejoin="round" d="M75.3,64.05L85.15,62.5"/><path fill="#0E2D38" d="M94.35,64.55Q95.1,65.6 96.3,65.75 97.5,65.95 98.45,65.15 99.45,64.55 99.65,63.3 99.8,62.1 99.05,61.05 98.35,60.15 97.15,59.95 95.95,59.8 94.95,60.45 94,61.25 93.85,62.45 93.65,63.7 94.35,64.55"/><path fill="#0E2D38" d="M81.75,67.85Q82.8,67.25 83.05,66 83.3,64.9 82.65,63.8 82.05,62.8 80.95,62.45 79.7,62.25 78.7,62.9 77.6,63.55 77.4,64.65 77.05,65.85 77.7,66.8 78.35,67.95 79.55,68.15 80.7,68.5 81.75,67.85"/><g style="display:none;"><path fill="#5CB8D6" d="M113.45,86.15Q115.95,82.35 115.7,77.45L94,79.9Q94.8,84.75 98.1,87.85 101.75,91.5 106.3,91 110.75,90.5 113.45,86.15"/><path fill="none" stroke="#5CB8D6" stroke-width="3" stroke-linecap="round" stroke-linejoin="round" d="M115.7,77.45L94,79.9"/><path fill="#5CB8D6" d="M114.5,93.45Q110.85,89.9 106.4,90.35 101.85,90.9 99.15,95.2 96.6,99 96.95,103.85L118.6,101.4Q117.75,96.55 114.5,93.45"/><path fill="none" stroke="#5CB8D6" stroke-width="3" stroke-linecap="round" stroke-linejoin="round" d="M96.95,103.85L118.6,101.4"/><path fill="#FF5B80" d="M113.15,97.2Q110.4,95.3 106.95,95.7 103.4,96.05 101.15,98.55 99.75,100.05 99.35,101.8L115.6,99.95Q114.8,98.35 113.15,97.2"/><path fill="#FF5B80" d="M100.15,86.95Q102.7,88.9 105.95,88.5 109.2,88.15 111.15,85.7 112.1,84.6 112.55,83.4L98.25,85Q99,86.1 100.15,86.95"/><path fill="#FF5B80" d="M105.4,89.45Q105.7,89.65 106.1,89.65 106.5,89.55 106.7,89.3 106.95,89 106.9,88.65 106.85,88.25 106.55,88 106.3,87.75 105.9,87.85 105.5,87.85 105.25,88.15 105.05,88.4 105.1,88.8 105.15,89.15 105.4,89.45"/><path fill="#FF5B80" d="M105.65,93.55Q105.75,93.9 105.95,94.1 106.3,94.4 106.7,94.3 107.05,94.3 107.25,94 107.55,93.7 107.45,93.35 107.45,92.95 107.1,92.75 106.85,92.5 106.5,92.55 106.1,92.6 105.8,92.9 105.65,93.15 105.65,93.55"/><path fill="#FF5B80" d="M106,95.95Q106.1,96.3 106.3,96.5 106.65,96.8 107.05,96.7 107.4,96.7 107.6,96.4 107.9,96.1 107.8,95.75 107.8,95.35 107.45,95.15 107.2,94.9 106.85,94.95 106.45,95 106.15,95.3 106,95.55 106,95.95"/><animate attributeName="display" repeatCount="indefinite" dur="1.708s" keyTimes="0;0.049;0.098;0.146;0.195;0.244;0.293;0.341;0.39;0.439;0.488;0.537;0.585;0.634;0.683;0.732;0.78;0.829;0.878;0.927;0.976;1" values="none;inline;none;inline;none;inline;none;inline;none;inline;none;inline;none;inline;none;inline;none;inline;none;inline;none;none"/></g><g><path fill="#5CB8D6" d="M113.45,86.15Q115.95,82.35 115.7,77.45L94,79.9Q94.8,84.75 98.1,87.85 101.75,91.5 106.3,91 110.75,90.5 113.45,86.15"/><path fill="none" stroke="#5CB8D6" stroke-width="3" stroke-linecap="round" stroke-linejoin="round" d="M115.7,77.45L94,79.9"/><path fill="#5CB8D6" d="M114.5,93.45Q110.85,89.9 106.4,90.35 101.85,90.9 99.15,95.2 96.6,99 96.95,103.85L118.6,101.4Q117.75,96.55 114.5,93.45"/><path fill="none" stroke="#5CB8D6" stroke-width="3" stroke-linecap="round" stroke-linejoin="round" d="M96.95,103.85L118.6,101.4"/><path fill="#FF5B80" d="M113.15,97.2Q110.4,95.3 106.95,95.7 103.4,96.05 101.15,98.55 99.75,100.05 99.35,101.8L115.6,99.95Q114.8,98.35 113.15,97.2"/><path fill="#FF5B80" d="M100.15,86.95Q102.7,88.9 105.95,88.5 109.2,88.15 111.15,85.7 112.1,84.6 112.55,83.4L98.25,85Q99,86.1 100.15,86.95"/><path fill="#FF5B80" d="M105.55,91Q105.85,91.2 106.25,91.2 106.65,91.1 106.85,90.85 107.1,90.55 107.05,90.2 107,89.8 106.7,89.55 106.45,89.3 106.05,89.4 105.65,89.4 105.4,89.7 105.2,89.95 105.25,90.35 105.3,90.7 105.55,91"/><path fill="#FF5B80" d="M105.8,95.1Q105.9,95.45 106.1,95.65 106.45,95.95 106.85,95.85 107.2,95.85 107.4,95.55 107.7,95.25 107.6,94.9 107.6,94.5 107.25,94.3 107,94.05 106.65,94.1 106.25,94.15 105.95,94.45 105.8,94.7 105.8,95.1"/><animate attributeName="display" repeatCount="indefinite" dur="1.708s" keyTimes="0;0.049;0.098;0.146;0.195;0.244;0.293;0.341;0.39;0.439;0.488;0.537;0.585;0.634;0.683;0.732;0.78;0.829;0.878;0.927;0.976;1" values="inline;none;inline;none;inline;none;inline;none;inline;none;inline;none;inline;none;inline;none;inline;none;inline;none;inline;inline"/></g><g><path fill="none" stroke="#1A3F4E" stroke-width="3" stroke-linecap="round" stroke-linejoin="round" d="M62.9,104.95Q65.35,112.3 69.5,116.6 74.2,121.3 80.95,119.8 89.75,117.9 98.6,105.4M62.9,104.95Q59.7,94.75 60.6,80.2"/><path fill="none" stroke="#1A3F4E" stroke-width="3" stroke-linecap="round" stroke-linejoin="round" d="M100.8,112Q98.5,109.1 98.2,105.9 101.85,105.5 103.7,104.4M98.2,105.9Q100.85,108.35 104.15,108.75"/><animate attributeName="mask" repeatCount="indefinite" dur="1.708s" keyTimes="0;0;1" values="null;none;none"/></g><mask id="mask_"/></g></svg>