<?xml version="1.0" encoding="utf-8"?><svg xmlns:xlink="http://www.w3.org/1999/xlink" id="lupa" image-rendering="auto" baseProfile="basic" version="1.1" x="0px" y="0px" width="120" height="110" xmlns="http://www.w3.org/2000/svg"><defs><symbol id="destello" overflow="visible"><path fill="#FC0" d="M13.4,9.5Q13.85,9.35 14.15,8.95 14.45,8.55 14.45,8.05 14.45,7.55 14.15,7.15 13.85,6.75 13.4,6.6 9,5.3 8.7,1.4 8.65,0.85 8.25,0.45 7.85,0 7.25,0 6.65,0 6.25,0.35 5.8,0.75 5.75,1.3 5.1,5.65 1.15,6.6 0.65,6.7 0.35,7.15 0,7.55 0,8.05 0,8.55 0.35,9 0.65,9.4 1.15,9.5 5.1,10.5 5.75,14.9 5.8,15.45 6.25,15.85 6.65,16.2 7.25,16.2 7.85,16.2 8.25,15.8 8.65,15.35 8.7,14.8 9,10.8 13.4,9.5"/>
</symbol></defs><g id="Scene_1_l1" overflow="visible"><g id="estrella" transform="matrix(0.104 0 0 0.104 53.05 60.9)"><animateTransform attributeName="transform" additive="replace" type="translate" dur="0.583s" keyTimes="0;0.071;0.143;0.214;0.286;0.357;0.429;0.5;0.572;1" values="55.95,63.8;56.991,62.406;58.08,61.057;59.17,59.658;60.26,58.359;61.299,56.889;61.34,56.927;61.267,56.967;61.3,56.9;61.3,56.9" calcMode="discrete" fill="freeze"/><animateTransform attributeName="transform" additive="sum" type="scale" dur="0.583s" keyTimes="0;0.071;0.143;0.214;0.286;0.357;0.429;0.5;0.572;1" values="0.104,0.104;0.323,0.323;0.542,0.542;0.761,0.761;0.981,0.981;1.2,1.2;1.133,1.133;1.067,1.067;1,1;1,1" calcMode="discrete" fill="freeze"/><animateTransform attributeName="transform" additive="sum" type="translate" dur="0.583s" keyTimes="0;0.071;0.143;0.286;0.357;0.429;0.5;0.572;1" values="-28,-28;-27.85,-28.05;-28,-28.05;-28,-28.05;-28,-27.95;-28.05,-27.95;-28,-28;-28,-27.95;-28,-27.95" calcMode="discrete" fill="freeze"/><path fill="#F39" stroke="#F39" stroke-width="2" stroke-linecap="round" stroke-linejoin="round" d="M43.35,11.45L44.5,5.15 38.8,8.15 38.3,1.8 33.6,6.1 31.5,0 27.95,5.4 24.45,0 22.4,6.1 17.65,1.8 17.15,8.15 11.5,5.15 12.6,11.45 6.35,9.95 9,15.8 2.6,15.9 6.6,20.9 0.45,22.6 5.5,26.45 0,29.65 5.9,32.05 1.3,36.5 7.65,37.45 4.3,42.9 10.65,42.2 8.75,48.3 14.75,46.05 14.45,52.45 19.7,48.8 21,55.05 25.15,50.2 27.95,55.9 30.8,50.2 34.95,55.05 36.25,48.8 41.5,52.45 41.2,46.05 47.2,48.3 45.3,42.2 51.7,42.9 48.35,37.45 54.65,36.55 50.05,32.05 56,29.65 50.45,26.45 55.55,22.6 49.4,20.9 53.35,15.9 46.95,15.8 49.6,9.95 43.35,11.45"/></g><g style="display:none;"><g id="lupa" transform="matrix(-0.171 -0.067 -0.067 0.171 62.25 58.8)"><animateTransform attributeName="transform" additive="replace" type="translate" dur="0.583s" keyTimes="0;0.286;0.357;0.429;0.5;0.572;0.643;0.715;0.786;0.858;1" values="59.704,60.844;59.704,60.844;58.876,61.706;58.087,62.45;57.192,63.369;56.447,64.161;55.677,64.852;55.665,65.016;55.801,64.899;55.772,64.94;55.772,64.94" calcMode="discrete" fill="freeze"/><animateTransform attributeName="transform" additive="sum" type="rotate" dur="0.583s" keyTimes="0;0.286;0.357;0.429;0.5;0.572;0.643;0.715;0.786;0.858;1" values="21.354,0,0;21.354,0,0;24.055,0,0;26.811,0,0;29.569,0,0;32.326,0,0;35.084,0,0;35.083,0,0;35.084,0,0;35.085,0,0;35.085,0,0" calcMode="discrete" fill="freeze"/><animateTransform attributeName="transform" additive="sum" type="skewY" dur="0.583s" keyTimes="0;1" values="-180;-180" calcMode="discrete" fill="freeze"/><animateTransform attributeName="transform" additive="sum" type="scale" dur="0.583s" keyTimes="0;0.286;0.357;0.429;0.5;0.572;0.643;0.715;0.786;0.858;1" values="-0.184,0.184;-0.184,0.184;-0.492,0.492;-0.801,0.801;-1.11,1.11;-1.419,1.419;-1.73,1.73;-1.65,1.65;-1.573,1.573;-1.497,1.497;-1.497,1.497" calcMode="discrete" fill="freeze"/><animateTransform attributeName="transform" additive="sum" type="translate" dur="0.583s" keyTimes="0;0.286;0.357;0.429;0.5;0.572;0.643;0.715;0.786;0.858;1" values="-8.85,-15.4;-8.85,-15.4;-8.9,-15.55;-8.85,-15.45;-8.85,-15.45;-8.9,-15.4;-8.8,-15.4;-8.8,-15.45;-8.8,-15.35;-8.75,-15.4;-8.75,-15.4" calcMode="discrete" fill="freeze"/><path fill="none" stroke="#999" stroke-width="5" stroke-linecap="round" stroke-linejoin="round" d="M8.75,11.4L8.75,29.9"/><path fill="#6CF" stroke="#999" stroke-width="3" stroke-linecap="round" stroke-linejoin="round" d="M8.75,17.5Q12.35,17.5 14.9,14.9 17.5,12.35 17.5,8.75 17.5,5.15 14.9,2.55 12.35,0 8.75,0 5.15,0 2.55,2.55 0,5.15 0,8.75 0,12.35 2.55,14.9 5.15,17.5 8.75,17.5"/><path fill="none" stroke="#FFF" stroke-width="2" stroke-linecap="round" stroke-linejoin="round" d="M11.8,5.3Q12.3,5.75 12.7,6.35 13.45,7.65 13.4,9.05"/><path fill="none" stroke="#FFF" stroke-width="2" stroke-linecap="round" stroke-linejoin="round" d="M9.05,3.95Q9.3,4 9.55,4.05"/></g><animate attributeName="display" fill="freeze" repeatCount="1" dur="0.583s" keyTimes="0;0.286;1" values="none;inline;inline"/></g><g style="display:none;"><use xlink:href="#destello" transform="matrix(0.233 0 0 0.233 77.5 37.2)"><animateTransform attributeName="transform" additive="replace" type="translate" dur="0.583s" keyTimes="0;0.572;0.643;0.715;0.786;0.858;0.927;0.929;1" values="79.202,39.101;79.202,39.101;78.816,38.035;78.33,36.966;77.943,35.923;77.493,34.823;77.493,34.823;77.5,34.8;77.5,34.8" calcMode="discrete" fill="freeze"/><animateTransform attributeName="transform" additive="sum" type="scale" dur="0.583s" keyTimes="0;0.572;0.643;0.715;0.786;0.858;0.927;0.929;1" values="0.233,0.233;0.233,0.233;0.461,0.461;0.689,0.689;0.917,0.917;1.145,1.145;1.145,1.145;1,1;1,1" calcMode="discrete" fill="freeze"/><animateTransform attributeName="transform" additive="sum" type="translate" dur="0.583s" keyTimes="0;0.572;0.643;0.715;0.786;0.858;1" values="-7.3,-8.15;-7.3,-8.15;-7.3,-8.1;-7.3,-8.15;-7.3,-8.15;-7.2,-8.1;-7.2,-8.1" calcMode="discrete" fill="freeze"/></use><animate attributeName="display" fill="freeze" repeatCount="1" dur="0.583s" keyTimes="0;0.571;1" values="none;inline;inline"/></g><g style="display:none;"><use xlink:href="#destello" transform="matrix(0.11 0 0 0.11 80.35 41.25)"><animateTransform attributeName="transform" additive="replace" type="translate" dur="0.583s" keyTimes="0;0.572;0.643;0.715;0.786;0.858;0.927;0.929;1" values="81.149,42.148;81.149,42.148;82.345,43.553;83.541,45;84.687,46.398;85.902,47.815;85.902,47.815;85.9,47.799;85.9,47.799" calcMode="discrete" fill="freeze"/><animateTransform attributeName="transform" additive="sum" type="scale" dur="0.583s" keyTimes="0;0.572;0.643;0.715;0.786;0.858;0.927;0.929;1" values="0.11,0.11;0.11,0.11;0.244,0.244;0.378,0.378;0.512,0.512;0.646,0.646;0.646,0.646;0.472,0.472;0.472,0.472" calcMode="discrete" fill="freeze"/><animateTransform attributeName="transform" additive="sum" type="translate" dur="0.583s" keyTimes="0;0.572;0.643;0.715;0.786;0.858;1" values="-7.25,-8.15;-7.25,-8.15;-7.15,-8;-7.25,-8.2;-7.2,-8.1;-7.2,-8.15;-7.2,-8.15" calcMode="discrete" fill="freeze"/></use><animate attributeName="display" fill="freeze" repeatCount="1" dur="0.583s" keyTimes="0;0.571;1" values="none;inline;inline"/></g><g style="display:none;"><use xlink:href="#destello" transform="matrix(0.156 0 0 0.156 81.2 36.75)"><animateTransform attributeName="transform" additive="replace" type="translate" dur="0.583s" keyTimes="0;0.572;0.643;0.715;0.786;0.858;0.927;0.929;1" values="82.304,38.049;82.304,38.049;84.454,36.101;86.602,34.112;88.702,32.172;90.837,30.254;90.837,30.254;90.853,30.236;90.853,30.236" calcMode="discrete" fill="freeze"/><animateTransform attributeName="transform" additive="sum" type="scale" dur="0.583s" keyTimes="0;0.572;0.643;0.715;0.786;0.858;0.927;0.929;1" values="0.156,0.156;0.156,0.156;0.332,0.332;0.507,0.507;0.683,0.683;0.859,0.859;0.859,0.859;0.667,0.667;0.667,0.667" calcMode="discrete" fill="freeze"/><animateTransform attributeName="transform" additive="sum" type="translate" dur="0.583s" keyTimes="0;0.572;0.643;0.715;0.786;0.858;1" values="-7.1,-8.35;-7.1,-8.35;-7.1,-8.45;-7,-8.3;-7.1,-8.3;-7.2,-8.15;-7.2,-8.15" calcMode="discrete" fill="freeze"/></use><animate attributeName="display" fill="freeze" repeatCount="1" dur="0.583s" keyTimes="0;0.571;1" values="none;inline;inline"/></g></g></svg>