<?xml version="1.0" encoding="utf-8"?>
<!-- Generator: Adobe Illustrator 16.0.0, SVG Export Plug-In . SVG Version: 6.00 Build 0)  -->
<!DOCTYPE svg PUBLIC "-//W3C//DTD SVG 1.1//EN" "http://www.w3.org/Graphics/SVG/1.1/DTD/svg11.dtd">
<svg version="1.1" xmlns="http://www.w3.org/2000/svg" xmlns:xlink="http://www.w3.org/1999/xlink" x="0px" y="0px"
	 width="1325.991px" height="345.997px" viewBox="0 0 1325.991 345.997" enable-background="new 0 0 1325.991 345.997"
	 xml:space="preserve">
<g id="Layer_1">
	<g id="engranaje_fondo">
		<g id="Layer_3_1_">
		</g>
	</g>
	<g>
		<g>
			<g>
				
					<path fill="#A6A8AB" stroke="#A6A8AB" stroke-width="0.611" stroke-linecap="round" stroke-linejoin="round" stroke-miterlimit="10" d="
					M555.922,79.735c-3.999,0-3.999-6.201,0-6.201S559.921,79.735,555.922,79.735L555.922,79.735z"/>
			</g>
		</g>
		<g>
			<g>
				
					<path fill="#A6A8AB" stroke="#A6A8AB" stroke-width="0.611" stroke-linecap="round" stroke-linejoin="round" stroke-miterlimit="10" d="
					M551.923,127.326c-5.28,0-5.28-8.188,0-8.188S557.204,127.326,551.923,127.326L551.923,127.326z"/>
			</g>
		</g>
		<g>
			
				<path fill-rule="evenodd" clip-rule="evenodd" fill="none" stroke="#A6A8AB" stroke-width="5" stroke-linecap="round" stroke-linejoin="round" stroke-miterlimit="10" d="
				M594.327,102.365c-7.61,0-13.779-7.875-13.779-17.587"/>
			
				<path fill-rule="evenodd" clip-rule="evenodd" fill="none" stroke="#A6A8AB" stroke-width="5" stroke-linecap="round" stroke-linejoin="round" stroke-miterlimit="10" d="
				M566.58,102.365c7.609,0,13.779-7.875,13.779-17.587"/>
			
				<path fill-rule="evenodd" clip-rule="evenodd" fill="none" stroke="#A6A8AB" stroke-width="5" stroke-linecap="round" stroke-linejoin="round" stroke-miterlimit="10" d="
				M594.327,102.607c-7.61,0-13.779,7.873-13.779,17.587"/>
			
				<path fill-rule="evenodd" clip-rule="evenodd" fill="none" stroke="#A6A8AB" stroke-width="5" stroke-linecap="round" stroke-linejoin="round" stroke-miterlimit="10" d="
				M566.58,102.607c7.609,0,13.779,7.873,13.779,17.587"/>
		</g>
		<g>
			
				<path fill-rule="evenodd" clip-rule="evenodd" fill="none" stroke="#A6A8AB" stroke-width="3" stroke-linecap="round" stroke-linejoin="round" stroke-miterlimit="10" d="
				M541.1,142.51c-3.729,0-6.752-3.858-6.752-8.617"/>
			
				<path fill-rule="evenodd" clip-rule="evenodd" fill="none" stroke="#A6A8AB" stroke-width="3" stroke-linecap="round" stroke-linejoin="round" stroke-miterlimit="10" d="
				M527.504,142.51c3.729,0,6.751-3.858,6.751-8.617"/>
			
				<path fill-rule="evenodd" clip-rule="evenodd" fill="none" stroke="#A6A8AB" stroke-width="3" stroke-linecap="round" stroke-linejoin="round" stroke-miterlimit="10" d="
				M541.1,142.628c-3.729,0-6.752,3.858-6.752,8.618"/>
			
				<path fill-rule="evenodd" clip-rule="evenodd" fill="none" stroke="#A6A8AB" stroke-width="3" stroke-linecap="round" stroke-linejoin="round" stroke-miterlimit="10" d="
				M527.504,142.628c3.729,0,6.751,3.858,6.751,8.618"/>
		</g>
		<g>
			
				<path fill-rule="evenodd" clip-rule="evenodd" fill="none" stroke="#A6A8AB" stroke-width="4" stroke-linecap="round" stroke-linejoin="round" stroke-miterlimit="10" d="
				M535.115,76.575c-3.729,0-7.727-7.759-7.727-12.518"/>
			
				<path fill-rule="evenodd" clip-rule="evenodd" fill="none" stroke="#A6A8AB" stroke-width="4" stroke-linecap="round" stroke-linejoin="round" stroke-miterlimit="10" d="
				M519.569,76.575c3.729,0,7.727-7.759,7.727-12.518"/>
			
				<path fill-rule="evenodd" clip-rule="evenodd" fill="none" stroke="#A6A8AB" stroke-width="4" stroke-linecap="round" stroke-linejoin="round" stroke-miterlimit="10" d="
				M535.115,76.694c-3.729,0-7.727,6.783-7.727,11.543"/>
			
				<path fill-rule="evenodd" clip-rule="evenodd" fill="none" stroke="#A6A8AB" stroke-width="4" stroke-linecap="round" stroke-linejoin="round" stroke-miterlimit="10" d="
				M519.569,76.694c3.729,0,7.727,6.783,7.727,11.543"/>
		</g>
		<g>
			<g>
				
					<path fill="#A6A8AB" stroke="#A6A8AB" stroke-width="0.611" stroke-linecap="round" stroke-linejoin="round" stroke-miterlimit="10" d="
					M511.007,110.03c-3.999,0-3.999-6.201,0-6.201S515.006,110.03,511.007,110.03L511.007,110.03z"/>
			</g>
		</g>
	</g>
</g>
<g id="Layer_5" display="none">
	<g display="inline">
		<g>
			
				<path fill-rule="evenodd" clip-rule="evenodd" fill="#A6A8AB" stroke="#A6A8AB" stroke-width="2.3401" stroke-linecap="round" stroke-linejoin="round" stroke-miterlimit="10" d="
				M655.333,238.322l7.915,1.326v8.437l-7.915,1.375c-0.168,0.832-0.379,1.643-0.632,2.433l6.177,5.104l-4.249,7.283l-7.552-2.781
				c-0.285,0.296-0.563,0.579-0.838,0.854c-0.295,0.295-0.59,0.579-0.884,0.853l2.812,7.567l-7.299,4.219l-5.118-6.146
				c-0.791,0.231-1.586,0.432-2.386,0.601l-1.392,7.914h-8.436l-1.327-7.914c-0.832-0.169-1.632-0.369-2.401-0.601l-5.134,6.177
				l-7.314-4.219l2.812-7.63c-0.295-0.274-0.59-0.548-0.885-0.821c-0.295-0.296-0.569-0.579-0.821-0.854l-7.615,2.781l-4.218-7.316
				l6.208-5.102c-0.263-0.79-0.479-1.59-0.647-2.401l-7.946-1.375v-8.437l7.946-1.326c0.169-0.813,0.374-1.606,0.616-2.386
				l-6.177-5.149l4.218-7.284l7.583,2.813c0.274-0.315,0.559-0.621,0.854-0.917c0.295-0.295,0.59-0.568,0.885-0.82l-2.812-7.6
				l7.314-4.219l5.134,6.178c0.77-0.253,1.569-0.464,2.401-0.632l1.327-7.947h8.436l1.392,7.947c0.8,0.168,1.595,0.379,2.386,0.632
				l5.086-6.178l7.314,4.25l-2.795,7.536c0.294,0.273,0.589,0.558,0.884,0.853c0.295,0.296,0.579,0.59,0.854,0.885l7.567-2.812
				l4.218,7.315l-6.146,5.133C654.965,236.689,655.165,237.49,655.333,238.322z M645.949,227.642
				c-4.466-4.477-9.874-6.715-16.225-6.715c-6.331,0-11.739,2.238-16.226,6.715c-4.466,4.486-6.698,9.895-6.698,16.225
				c0,6.341,2.232,11.749,6.698,16.225c4.486,4.487,9.895,6.73,16.226,6.73c6.351,0,11.759-2.243,16.225-6.73
				c4.486-4.476,6.729-9.884,6.729-16.225C652.679,237.537,650.436,232.128,645.949,227.642z"/>
			<path fill-rule="evenodd" clip-rule="evenodd" fill="#A6A8AB" d="M637.565,236.087c2.149,2.148,3.223,4.742,3.223,7.783
				c0,3.045-1.073,5.639-3.223,7.781c-2.154,2.162-4.755,3.242-7.801,3.242c-3.033,0-5.627-1.08-7.782-3.242
				c-2.143-2.143-3.213-4.736-3.213-7.781c0-3.041,1.07-5.635,3.213-7.783c2.155-2.154,4.749-3.232,7.782-3.232
				C632.811,232.855,635.411,233.933,637.565,236.087z"/>
		</g>
		<g>
			
				<path fill-rule="evenodd" clip-rule="evenodd" fill="#A6A8AB" stroke="#A6A8AB" stroke-width="1.3887" stroke-linecap="round" stroke-linejoin="round" stroke-miterlimit="10" d="
				M610.272,199.481l4.356,1.925l-1.237,4.851l-4.753-0.371c-0.219,0.454-0.459,0.89-0.721,1.307l2.803,3.841l-3.513,3.564
				l-3.934-2.707c-0.207,0.128-0.409,0.249-0.607,0.366c-0.212,0.126-0.424,0.247-0.634,0.362l0.506,4.764l-4.814,1.354
				l-2.042-4.284c-0.488,0.017-0.976,0.015-1.46-0.006l-1.962,4.348l-4.85-1.238l0.398-4.745c-0.454-0.221-0.884-0.452-1.293-0.698
				l-3.858,2.798l-3.587-3.5l2.736-3.974c-0.13-0.201-0.259-0.402-0.388-0.603c-0.127-0.213-0.242-0.416-0.348-0.61l-4.787,0.48
				l-1.351-4.825l4.317-2.022c-0.035-0.493-0.041-0.985-0.02-1.477l-4.367-1.957l1.238-4.851l4.765,0.404
				c0.216-0.442,0.45-0.869,0.704-1.282l-2.797-3.867l3.494-3.569l3.948,2.73c0.204-0.142,0.413-0.275,0.626-0.402
				c0.213-0.126,0.423-0.24,0.629-0.342l-0.501-4.783l4.825-1.352l2.045,4.307c0.479-0.033,0.971-0.037,1.474-0.012l1.929-4.374
				l4.852,1.238l-0.367,4.773c0.435,0.214,0.861,0.452,1.279,0.713l3.832-2.805l3.582,3.517l-2.714,3.923
				c0.129,0.201,0.256,0.407,0.383,0.62c0.126,0.213,0.247,0.425,0.361,0.634l4.764-0.506l1.352,4.825l-4.286,2.049
				C610.301,198.489,610.299,198.978,610.272,199.481z M606.445,191.963c-1.911-3.229-4.692-5.31-8.344-6.242
				c-3.641-0.929-7.079-0.437-10.316,1.479c-3.226,1.924-5.303,4.706-6.232,8.346c-0.931,3.646-0.439,7.084,1.471,10.313
				c1.921,3.239,4.701,5.322,8.342,6.251c3.652,0.934,7.091,0.437,10.316-1.488c3.237-1.914,5.32-4.694,6.251-8.341
				C608.862,198.64,608.366,195.203,606.445,191.963z"/>
			<path fill-rule="evenodd" clip-rule="evenodd" fill="#A6A8AB" d="M601.51,194.923c1.104,1.859,1.388,3.838,0.852,5.936
				c-0.536,2.103-1.734,3.703-3.593,4.803c-1.868,1.112-3.851,1.4-5.954,0.863c-2.093-0.535-3.692-1.736-4.799-3.607
				c-1.101-1.855-1.383-3.834-0.847-5.937c0.536-2.097,1.731-3.698,3.588-4.802c1.866-1.108,3.846-1.396,5.938-0.861
				C598.799,191.855,600.401,193.056,601.51,194.923z"/>
		</g>
		<path fill="#A6A8AB" d="M694.957,133.524c-3.908-1.097-7.747-1.731-11.41-1.884c-0.906-0.037-1.758,0.418-2.231,1.188
			c-0.473,0.771-0.492,1.736-0.051,2.526l14.887,26.563l-25.582,14.337l-14.886-26.563c-0.436-0.776-1.251-1.262-2.141-1.275
			c-0.888-0.015-1.718,0.447-2.176,1.209c-2.007,3.337-3.586,7.023-4.693,10.96c-2.893,10.269-1.649,20.312,3.696,29.851
			c5.353,9.552,13.227,15.757,23.305,18.417c6,1.848,12.007,2.194,17.892,1.041l35.374,63.123c1.783,3.181,4.436,5.285,8.027,6.293
			c3.297,0.722,6.454,0.254,9.384-1.388c3.129-1.754,5.276-4.259,6.379-7.447c0.031-0.092,0.059-0.187,0.08-0.281
			c0.723-3.296,0.201-6.554-1.554-9.683l-35.331-63.046c3.974-4.351,6.695-9.613,8.1-15.674c3.194-10.172,2.105-20.162-3.238-29.696
			C713.435,142.542,705.404,136.291,694.957,133.524z"/>
	</g>
</g>
<g id="Layer_7" display="none">
	<g display="inline">
		<g>
			<path fill="#A6A8AB" d="M706.212,277.694c2.68,4.953,0.837,11.141-4.115,13.82c-4.954,2.68-11.142,0.837-13.821-4.116
				l-28.621-52.899l17.937-9.705L706.212,277.694z"/>
		</g>
		
			<circle fill="none" stroke="#A6A8AB" stroke-width="10.6625" stroke-linecap="round" stroke-linejoin="round" stroke-miterlimit="10" cx="646.258" cy="188.309" r="47"/>
		
			<path fill="none" stroke="#A6A8AB" stroke-width="4.3216" stroke-linecap="round" stroke-linejoin="round" stroke-miterlimit="10" d="
			M616.621,189.936c-0.602-11.103,5.089-22.085,15.516-27.727"/>
		
			<path fill="none" stroke="#A6A8AB" stroke-width="4.3216" stroke-linecap="round" stroke-linejoin="round" stroke-miterlimit="10" d="
			M621.122,204.374c-0.884-1.635-1.599-3.315-2.151-5.022"/>
		
			<line fill="none" stroke="#FFFFFF" stroke-width="6" stroke-linecap="round" stroke-linejoin="round" stroke-miterlimit="10" x1="664.657" y1="253.987" x2="690.124" y2="240.208"/>
	</g>
</g>
<g id="Layer_6">
	<g>
		
			<path fill="none" stroke="#A6A8AB" stroke-width="10.6625" stroke-linecap="round" stroke-linejoin="round" stroke-miterlimit="10" d="
			M604.552,209.232v-29.266c0-16.813,13.63-30.442,30.442-30.442c16.814,0,30.443,13.629,30.443,30.442v29.266H604.552z"/>
		<g>
			<path fill="#A6A8AB" d="M677.823,202.399h-85.654c-1.657,0-3,1.343-3,3v36.37c0,25.27,20.558,45.827,45.827,45.827
				s45.827-20.558,45.827-45.827v-36.37C680.823,203.742,679.479,202.399,677.823,202.399z M643.341,258.185
				c0.068,0.165,0.05,0.354-0.05,0.503c-0.1,0.148-0.267,0.237-0.445,0.237h-15.702c-0.179,0-0.346-0.089-0.445-0.237
				c-0.099-0.149-0.118-0.338-0.049-0.503l4.062-9.832c-2.988-1.584-4.894-4.711-4.894-8.104c0-5.06,4.117-9.177,9.177-9.177
				c5.062,0,9.178,4.117,9.178,9.177c0,3.393-1.904,6.521-4.895,8.104L643.341,258.185z"/>
		</g>
	</g>
</g>
<g id="Layer_9" display="none">
	<g display="inline">
		<g>
			
				<path fill="none" stroke="#A6A8AB" stroke-width="7.2" stroke-linecap="round" stroke-linejoin="round" stroke-miterlimit="10" d="
				M583.38,189.593c0-28.384,23.01-51.392,51.392-51.392c28.384,0,51.394,23.008,51.394,51.392v101.121H583.38V189.593z"/>
		</g>
		
			<path fill="none" stroke="#A6A8AB" stroke-width="7.2" stroke-linecap="round" stroke-linejoin="round" stroke-miterlimit="10" d="
			M623.794,113.14c0-6.065,4.916-10.981,10.98-10.981s10.98,4.916,10.98,10.981c0,6.064-4.916,10.98-10.98,10.98"/>
		
			<path fill="none" stroke="#A6A8AB" stroke-width="7.2805" stroke-linecap="round" stroke-linejoin="round" stroke-miterlimit="10" d="
			M628.322,138.603c24.552,3.957,43.329,25.688,43.329,51.905v99.305"/>
		
			<line fill="none" stroke="#A6A8AB" stroke-width="7.4511" stroke-linecap="round" stroke-linejoin="round" stroke-miterlimit="10" x1="684.783" y1="182.459" x2="584.763" y2="182.459"/>
		
			<path fill="none" stroke="#A6A8AB" stroke-width="7.4511" stroke-linecap="round" stroke-linejoin="round" stroke-miterlimit="10" d="
			M634.775,143.173c11.521,10.094,18.876,25.439,18.875,42.625v104.015"/>
		
			<rect x="537.901" y="206.466" fill="none" stroke="#A6A8AB" stroke-width="7.3537" stroke-linecap="round" stroke-linejoin="round" stroke-miterlimit="10" width="45.479" height="64.606"/>
		
			<path fill="none" stroke="#A6A8AB" stroke-width="7.2805" stroke-linecap="round" stroke-linejoin="round" stroke-miterlimit="10" d="
			M640.861,138.559c-24.687,3.838-43.604,25.633-43.604,51.948v99.305"/>
		
			<path fill="none" stroke="#A6A8AB" stroke-width="7.4511" stroke-linecap="round" stroke-linejoin="round" stroke-miterlimit="10" d="
			M639.368,139.145c-14.482,9.733-24.112,26.989-24.111,46.653v104.015"/>
		
			<path fill="none" stroke="#A6A8AB" stroke-width="8.479" stroke-linecap="round" stroke-linejoin="round" stroke-miterlimit="10" d="
			M634.773,125.121v164.692"/>
		
			<rect x="583.38" y="206.374" fill="#FFFFFF" stroke="#A6A8AB" stroke-width="7.8172" stroke-linecap="round" stroke-linejoin="round" stroke-miterlimit="10" width="51.393" height="64.606"/>
		
			<line fill="none" stroke="#A6A8AB" stroke-width="7.2805" stroke-linecap="round" stroke-linejoin="round" stroke-miterlimit="10" x1="551.257" y1="206.467" x2="551.257" y2="271.072"/>
		
			<line fill="none" stroke="#A6A8AB" stroke-width="7.4511" stroke-linecap="round" stroke-linejoin="round" stroke-miterlimit="10" x1="569.257" y1="206.466" x2="569.257" y2="271.072"/>
		<path fill="#A6A8AB" d="M566.026,296.158c0,4.664,3.78,8.444,8.444,8.444h120.608c4.664,0,8.444-3.78,8.444-8.444l0,0
			c0-4.663-3.78-8.443-8.444-8.443H574.471C569.806,287.714,566.026,291.495,566.026,296.158L566.026,296.158z"/>
		
			<line fill="none" stroke="#A6A8AB" stroke-width="7.4511" stroke-linecap="round" stroke-linejoin="round" stroke-miterlimit="10" x1="684.783" y1="206.459" x2="584.763" y2="206.459"/>
		
			<line fill="none" stroke="#A6A8AB" stroke-width="7.4511" stroke-linecap="round" stroke-linejoin="round" stroke-miterlimit="10" x1="684.783" y1="271.459" x2="584.763" y2="271.459"/>
		
			<line fill="none" stroke="#A6A8AB" stroke-width="6.7623" stroke-linecap="round" stroke-linejoin="round" stroke-miterlimit="10" x1="520.546" y1="191.323" x2="506.693" y2="185.294"/>
		
			<line fill="none" stroke="#A6A8AB" stroke-width="6.7623" stroke-linecap="round" stroke-linejoin="round" stroke-miterlimit="10" x1="520.546" y1="280.3" x2="506.693" y2="286.329"/>
		
			<line fill="none" stroke="#A6A8AB" stroke-width="6.7623" stroke-linecap="round" stroke-linejoin="round" stroke-miterlimit="10" x1="511.694" y1="238.208" x2="496.4" y2="238.208"/>
		<g>
			<g>
				
					<path fill="#A6A8AB" stroke="#A6A8AB" stroke-width="0.611" stroke-linecap="round" stroke-linejoin="round" stroke-miterlimit="10" d="
					M534.255,242.77c-5.28,0-5.28-8.188,0-8.188S539.536,242.77,534.255,242.77L534.255,242.77z"/>
			</g>
		</g>
	</g>
</g>
</svg>
