<?xml version="1.0" encoding="utf-8"?><svg xmlns:xlink="http://www.w3.org/1999/xlink" id="tout_lowcost3x" image-rendering="auto" baseProfile="basic" version="1.1" x="0px" y="0px" width="176" height="129" xmlns="http://www.w3.org/2000/svg"><g id="Scene_1_l1" overflow="visible"><g id="reloj" transform="matrix(0.443 0 0 0.443 50.3 51)"><path fill="#A6A8AC" d="M149.1,16.85Q152.6,16.85 155.05,14.4 157.5,11.95 157.5,8.45L157.5,8.4Q157.5,4.9 155.05,2.45 152.6,0 149.1,0L8.4,0Q4.9,0 2.45,2.45 0,4.9 0,8.4L0,8.45Q0,11.95 2.45,14.4 4.9,16.85 8.4,16.85L149.1,16.85"/><path fill="#A6A8AC" d="M149.1,146.6Q152.6,146.6 155.05,144.15 157.5,141.7 157.5,138.2L157.5,138.15Q157.5,134.65 155.05,132.2 152.6,129.75 149.1,129.75L8.4,129.75Q4.9,129.75 2.45,132.2 0,134.65 0,138.15L0,138.2Q0,141.7 2.45,144.15 4.9,146.6 8.4,146.6L149.1,146.6"/><path fill="none" stroke="#A6A8AC" stroke-width="7.2" stroke-linecap="round" stroke-linejoin="round" d="M133.8,31.75Q135.821,24.491 135.85,16.6L21.85,16.6Q21.867,24.491 23.875,31.75 25.89,39.015 29.625,45.375 33.364,51.725 38.55,56.9 43.725,62.086 50.075,65.825 56.435,69.547 63.7,71.55 70.959,73.57 78.85,73.6 86.741,73.57 94,71.55 101.252,69.547 107.6,65.825 113.963,62.086 119.15,56.9 124.324,51.725 128.05,45.375 131.784,39.015 133.8,31.75"/><path fill="#A6A8AC" d="M134.725,122.35Q133.572,116.775 131.4,111.65 129.215,106.518 126.125,101.95 123.046,97.399 119.175,93.525 115.289,89.64 110.725,86.55 106.169,83.472 101.05,81.3 95.924,79.127 90.35,77.975 84.769,76.833 78.85,76.825 70.947,76.847 63.675,78.85 56.412,80.868 50.05,84.6 43.703,88.342 38.525,93.525 33.342,98.702 29.6,105.05 25.868,111.413 23.85,118.675 21.847,125.948 21.825,133.85L21.85,133.875 135.85,133.875 135.875,133.85Q135.867,127.932 134.725,122.35"/><path fill="#A6A8AC" stroke-width="7.2" stroke-linecap="round" stroke-linejoin="round" d="M131.35,111.65Q126.955,101.354 119.15,93.55 111.334,85.733 101.025,81.325 90.725,76.924 78.85,76.85 70.959,76.867 63.7,78.875 56.435,80.89 50.075,84.625 43.725,88.364 38.55,93.55 33.364,98.725 29.625,105.075 25.89,111.436 23.875,118.7 21.867,125.959 21.85,133.85L135.85,133.85Q135.763,121.962 131.35,111.65"/><path fill="none" stroke="#A6A8AC" stroke-width="7.2" stroke-linecap="round" stroke-linejoin="round" d="M131.35,111.65Q126.955,101.354 119.15,93.55 111.334,85.733 101.025,81.325 90.725,76.924 78.85,76.85 70.959,76.867 63.7,78.875 56.435,80.89 50.075,84.625 43.725,88.364 38.55,93.55 33.364,98.725 29.625,105.075 25.89,111.436 23.875,118.7 21.867,125.959 21.85,133.85L135.85,133.85Q135.763,121.962 131.35,111.65"/></g><g id="estrellas" transform="matrix(0.443 0 0 0.443 29.2 10)"><path fill="#A6A8AC" d="M51.175,11.9Q51.18,11.107 50.85,10.4 50.505,9.683 49.825,9.225 49.155,8.783 48.15,8.775 47.394,8.772 46.825,9.025 46.255,9.296 45.875,9.75 45.493,10.195 45.3,10.75 45.118,11.307 45.125,11.9 45.118,12.492 45.3,13.05 45.493,13.605 45.875,14.05 46.255,14.505 46.825,14.775 47.394,15.028 48.15,15.025 48.653,15.029 49.075,14.925 49.493,14.803 49.825,14.575 50.505,14.118 50.85,13.4 51.18,12.693 51.175,11.9"/><path fill="#A6A8AC" stroke-width="0.6" stroke-linecap="round" stroke-linejoin="round" d="M50.825,13.4Q51.154,12.693 51.15,11.9 51.154,11.107 50.825,10.4 50.492,9.696 49.825,9.25 49.154,8.81 48.15,8.8 46.65,8.852 45.9,9.775 45.15,10.692 45.15,11.9 45.15,13.108 45.9,14.025 46.65,14.948 48.15,15 49.154,14.99 49.825,14.55 50.492,14.104 50.825,13.4"/><path fill="none" stroke="#A6A8AC" stroke-width="0.6" stroke-linecap="round" stroke-linejoin="round" d="M50.825,13.4Q51.154,12.693 51.15,11.9 51.154,11.107 50.825,10.4 50.492,9.696 49.825,9.25 49.154,8.81 48.15,8.8 46.65,8.852 45.9,9.775 45.15,10.692 45.15,11.9 45.15,13.108 45.9,14.025 46.65,14.948 48.15,15 49.154,14.99 49.825,14.55 50.492,14.104 50.825,13.4"/><path fill="#A6A8AC" d="M47.175,56.95Q46.721,56.015 45.825,55.425 45.382,55.129 44.825,54.975 44.265,54.829 43.6,54.825 43.108,54.82 42.675,54.9 42.242,54.996 41.875,55.175 41.126,55.516 40.625,56.1 40.126,56.69 39.875,57.425 39.626,58.162 39.625,58.95 39.626,59.723 39.875,60.45 40.126,61.185 40.625,61.775 41.126,62.37 41.875,62.725 42.242,62.892 42.675,62.975 43.108,63.067 43.6,63.075 44.266,63.06 44.825,62.9 45.382,62.746 45.825,62.45 46.721,61.859 47.175,60.925 47.392,60.466 47.5,59.975 47.605,59.475 47.6,58.95 47.605,58.425 47.5,57.925 47.392,57.421 47.175,56.95"/><path fill="#A6A8AC" stroke-width="0.6" stroke-linecap="round" stroke-linejoin="round" d="M47.125,56.975Q46.682,56.042 45.8,55.45 44.92,54.866 43.6,54.85 41.63,54.912 40.65,56.125 39.655,57.346 39.65,58.95 39.655,60.542 40.65,61.75 41.63,62.976 43.6,63.05 44.92,63.022 45.8,62.425 46.682,61.846 47.125,60.925 47.57,59.994 47.575,58.95 47.57,57.905 47.125,56.975"/><path fill="none" stroke="#A6A8AC" stroke-width="0.6" stroke-linecap="round" stroke-linejoin="round" d="M47.125,56.975Q46.682,56.042 45.8,55.45 44.92,54.866 43.6,54.85 41.63,54.912 40.65,56.125 39.655,57.346 39.65,58.95 39.655,60.542 40.65,61.75 41.63,62.976 43.6,63.05 44.92,63.022 45.8,62.425 46.682,61.846 47.125,60.925 47.57,59.994 47.575,58.95 47.57,57.905 47.125,56.975"/><path fill="none" stroke="#A6A8AC" stroke-width="5" stroke-linecap="round" stroke-linejoin="round" d="M73.675,27.95Q72.614,24.768 72.6,21.1M73.675,27.95Q74.738,31.122 76.625,33.525 78.523,35.938 81.025,37.3 83.509,38.655 86.375,38.675"/><path fill="none" stroke="#A6A8AC" stroke-width="5" stroke-linecap="round" stroke-linejoin="round" d="M71.975,25.775Q72.465,23.535 72.475,21.1M71.975,25.775Q71.495,28.014 70.6,29.975 69.7,31.931 68.45,33.525 67.192,35.123 65.65,36.275 64.122,37.428 62.375,38.05 60.614,38.67 58.7,38.675"/><path fill="none" stroke="#A6A8AC" stroke-width="5" stroke-linecap="round" stroke-linejoin="round" d="M73.1,50.95Q72.609,53.19 72.6,55.625M73.1,50.95Q73.58,48.711 74.475,46.75 75.375,44.794 76.625,43.2 77.883,41.602 79.425,40.45 80.966,39.297 82.725,38.675 84.473,38.055 86.375,38.05"/><path fill="none" stroke="#A6A8AC" stroke-width="5" stroke-linecap="round" stroke-linejoin="round" d="M71.975,50.95Q72.465,53.19 72.475,55.625M71.975,50.95Q71.495,48.711 70.6,46.75 69.7,44.794 68.45,43.2 67.192,41.602 65.65,40.45 64.122,39.297 62.375,38.675 60.614,38.055 58.7,38.05"/><path fill="none" stroke="#A6A8AC" stroke-width="3" stroke-linecap="round" stroke-linejoin="round" d="M26.925,73.9Q26.406,72.344 26.4,70.55M26.925,73.9Q27.448,75.463 28.375,76.65 29.302,77.833 30.525,78.5 31.744,79.164 33.15,79.175"/><path fill="none" stroke="#A6A8AC" stroke-width="3" stroke-linecap="round" stroke-linejoin="round" d="M26.2,73.275Q26.542,71.984 26.55,70.55M26.2,73.275Q25.865,74.57 25.25,75.65 24.624,76.718 23.775,77.5 22.934,78.291 21.925,78.725 20.919,79.164 19.8,79.175"/><path fill="none" stroke="#A6A8AC" stroke-width="3" stroke-linecap="round" stroke-linejoin="round" d="M26.75,83.9Q26.407,85.191 26.4,86.625M26.75,83.9Q27.085,82.605 27.7,81.525 28.325,80.457 29.175,79.675 30.016,78.884 31.025,78.45 32.031,78.011 33.15,78"/><path fill="none" stroke="#A6A8AC" stroke-width="3" stroke-linecap="round" stroke-linejoin="round" d="M26.2,83.9Q26.542,85.191 26.55,86.625M26.2,83.9Q25.865,82.605 25.25,81.525 24.624,80.457 23.775,79.675 22.934,78.884 21.925,78.45 20.919,78.011 19.8,78"/><path fill="none" stroke="#A6A8AC" stroke-width="4" stroke-linecap="round" stroke-linejoin="round" d="M20.175,3.975Q19.513,1.832 19.5,0M20.175,3.975Q20.85,6.11 21.975,8.05 23.088,9.987 24.45,11.225 25.813,12.476 27.225,12.525"/><path fill="none" stroke="#A6A8AC" stroke-width="4" stroke-linecap="round" stroke-linejoin="round" d="M18.625,2.575Q18.927,1.2 18.925,0M18.625,2.575Q18.31,3.949 17.75,5.35 17.192,6.762 16.45,8.05 15.713,9.324 14.85,10.325 13.996,11.336 13.075,11.925 12.141,12.511 11.2,12.525"/><path fill="none" stroke="#A6A8AC" stroke-width="4" stroke-linecap="round" stroke-linejoin="round" d="M19.825,21.525Q19.511,22.841 19.5,24.05M19.825,21.525Q20.128,20.218 20.675,18.925 21.232,17.631 21.975,16.475 22.712,15.32 23.575,14.425 24.429,13.534 25.35,13.025 26.284,12.51 27.225,12.5"/><path fill="none" stroke="#A6A8AC" stroke-width="4" stroke-linecap="round" stroke-linejoin="round" d="M18.625,21.525Q18.927,22.841 18.925,24.05M18.625,21.525Q18.31,20.218 17.75,18.925 17.192,17.631 16.45,16.475 15.713,15.32 14.85,14.425 13.996,13.534 13.075,13.025 12.141,12.51 11.2,12.5"/><path fill="#A6A8AC" d="M6.025,42.75Q6.03,41.957 5.7,41.25 5.355,40.533 4.675,40.075 4.005,39.633 3,39.625 2.243,39.622 1.675,39.875 1.105,40.146 0.725,40.6 0.343,41.045 0.15,41.6 -0.032,42.157 -0.025,42.75 -0.032,43.342 0.15,43.9 0.343,44.455 0.725,44.9 1.105,45.355 1.675,45.625 2.243,45.878 3,45.875 3.503,45.879 3.925,45.775 4.343,45.653 4.675,45.425 5.355,44.968 5.7,44.25 6.03,43.543 6.025,42.75"/><path fill="#A6A8AC" stroke-width="0.6" stroke-linecap="round" stroke-linejoin="round" d="M5.675,44.25Q6.004,43.543 6,42.75 6.004,41.957 5.675,41.25 5.341,40.546 4.675,40.1 4.004,39.66 3,39.65 1.5,39.702 0.75,40.625 0,41.542 0,42.75 0,43.958 0.75,44.875 1.5,45.798 3,45.85 4.004,45.84 4.675,45.4 5.341,44.954 5.675,44.25"/><path fill="none" stroke="#A6A8AC" stroke-width="0.6" stroke-linecap="round" stroke-linejoin="round" d="M5.675,44.25Q6.004,43.543 6,42.75 6.004,41.957 5.675,41.25 5.341,40.546 4.675,40.1 4.004,39.66 3,39.65 1.5,39.702 0.75,40.625 0,41.542 0,42.75 0,43.958 0.75,44.875 1.5,45.798 3,45.85 4.004,45.84 4.675,45.4 5.341,44.954 5.675,44.25"/></g><g style="display:none;"><path fill="#A6A8AC" stroke="#FFF" stroke-width="5" stroke-linecap="round" stroke-linejoin="round" d="M133.763,43.082Q133.763,38.39 130.443,35.07 127.124,31.75 122.432,31.75 117.74,31.75 114.42,35.07 111.1,38.39 111.1,43.082 111.1,47.774 114.42,51.093 117.74,54.413 122.432,54.413 127.124,54.413 130.443,51.093 133.763,47.774 133.763,43.082"/><path fill="none" stroke="#FFF" stroke-width="2" stroke-linecap="round" stroke-linejoin="round" d="M117.85,43.19L121.741,46.354"/><path fill="none" stroke="#FFF" stroke-width="2" stroke-linecap="round" stroke-linejoin="round" d="M127.598,40.454L121.783,46.354"/><animate attributeName="display" fill="freeze" repeatCount="1" dur="2.625s" keyTimes="0;0.508;1" values="none;inline;inline"/></g><g style="display:none;"><path fill="#A6A8AC" stroke="#FFF" stroke-width="5" stroke-linecap="round" stroke-linejoin="round" d="M135.515,42.857Q135.515,37.534 131.748,33.767 127.981,30 122.657,30 117.334,30 113.567,33.767 109.8,37.534 109.8,42.857 109.8,48.181 113.567,51.948 117.334,55.715 122.657,55.715 127.981,55.715 131.748,51.948 135.515,48.181 135.515,42.857"/><path fill="none" stroke="#FFF" stroke-width="2" stroke-linecap="round" stroke-linejoin="round" d="M117.299,43.321L121.713,46.911"/><path fill="none" stroke="#FFF" stroke-width="2" stroke-linecap="round" stroke-linejoin="round" d="M128.359,40.217L121.762,46.911"/><animate attributeName="display" fill="freeze" repeatCount="1" dur="2.625s" keyTimes="0;0.492;0.508;1" values="none;inline;none;none"/></g><g style="display:none;"><path fill="#A6A8AC" stroke="#FFF" stroke-width="5" stroke-linecap="round" stroke-linejoin="round" d="M130.759,40.854Q130.759,37.706 128.531,35.478 126.303,33.25 123.154,33.25 120.006,33.25 117.778,35.478 115.55,37.706 115.55,40.854 115.55,44.003 117.778,46.231 120.006,48.459 123.154,48.459 126.303,48.459 128.531,46.231 130.759,44.003 130.759,40.854"/><path fill="none" stroke="#FFF" stroke-linecap="round" stroke-linejoin="round" d="M120.306,40.987L122.916,43.11"/><path fill="none" stroke="#FFF" stroke-linecap="round" stroke-linejoin="round" d="M126.847,39.151L122.945,43.11"/><animate attributeName="display" fill="freeze" repeatCount="1" dur="2.625s" keyTimes="0;0.476;0.492;1" values="none;inline;none;none"/></g><g style="display:none;"><path fill="#A6A8AC" stroke="#FFF" stroke-width="5" stroke-linecap="round" stroke-linejoin="round" d="M129.33,41.565Q129.33,39.323 127.744,37.736 126.157,36.15 123.915,36.15 121.673,36.15 120.086,37.736 118.5,39.323 118.5,41.565 118.5,43.807 120.086,45.394 121.673,46.98 123.915,46.98 126.157,46.98 127.744,45.394 129.33,43.807 129.33,41.565"/><animate attributeName="display" fill="freeze" repeatCount="1" dur="2.625s" keyTimes="0;0.46;0.476;1" values="none;inline;none;none"/></g></g></svg>