<svg xmlns:xlink="http://www.w3.org/1999/xlink" baseProfile="basic" width="120" height="110" xmlns="http://www.w3.org/2000/svg"><defs><symbol id="a" overflow="visible"><path fill="#FFF" d="M11.7 7.15q-.05-2.4-1.9-4.2-1.6-1.5-4-1.45-2.4.05-4.2 1.65-1.65 1.8-1.6 4.2.05 2.4 1.85 3.95Q3.6 13.05 6 13q2.4-.05 4-1.9 1.75-1.55 1.7-3.95"/><path fill="#0E2D38" d="M9.5 7.3q0-1.65-1.3-2.8-1-1-2.6-.95-1.65 0-2.8 1.05-1.1 1.2-1.1 2.8.05 1.6 1.25 2.65 1.15 1.2 2.75 1.15 1.6 0 2.65-1.25Q9.55 8.9 9.5 7.3"/><path fill="#FFF" d="M24.95 9.65q1.75-1.55 1.7-4-.05-2.4-1.9-4.15-1.6-1.55-4-1.5-2.4.05-4.2 1.65-1.65 1.8-1.6 4.25.05 2.4 1.8 3.9 1.75 1.75 4.2 1.75 2.4-.05 4-1.9"/><path fill="#0E2D38" d="M23.7 8.35q1.2-1.05 1.2-2.7-.05-1.6-1.3-2.75-1.1-1-2.65-1-1.6.05-2.75 1.1-1.1 1.2-1.05 2.8 0 1.65 1.15 2.6 1.2 1.25 2.8 1.2 1.6-.05 2.6-1.25"/><path fill="#FFF" d="M5.35 6.55q.35-.3.35-.8t-.35-.9q-.3-.25-.8-.25t-.9.35q-.3.35-.3.85 0 .45.4.75.35.35.8.35.5 0 .8-.35m1.45 3.2q.25 0 .45-.25.2-.15.2-.45 0-.3-.2-.5-.2-.15-.45-.15-.3 0-.5.2t-.2.5q0 .25.2.4.25.25.5.25m12.75-4.2q.5 0 .8-.35.35-.3.35-.8t-.35-.9q-.3-.25-.8-.25t-.9.35q-.3.35-.3.85 0 .45.4.75.35.35.8.35m1.75 2.6q.25.25.5.25t.45-.25q.2-.15.2-.45 0-.3-.2-.5-.2-.15-.45-.15-.3 0-.5.2t-.2.5q0 .25.2.4"/></symbol></defs><path fill="#999" d="M81.35 98.7q0-.05-.15-.15-.1-.05-.3-.05-.15 0-.3.05-.1.1-.1.15 0 .1.1.15.15.05.3.05.2 0 .3-.05.15-.05.15-.15M42.6 97.3q-.1.05-.1.15 0 .1.1.15.15.05.35.05.15 0 .3-.05.1-.05.1-.15 0-.1-.1-.15-.15-.05-.3-.05-.2 0-.35.05m-1.1.65q-.15 0-.3.05t-.15.15q0 .05.15.15.15.05.3.05.2 0 .3-.05.15-.1.15-.15 0-.1-.15-.15-.1-.05-.3-.05m3.45.5q0 .1.1.15.15.05.35.05.15 0 .25-.05.15-.05.15-.15 0-.05-.15-.15-.1-.05-.25-.05-.2 0-.35.05-.1.1-.1.15m4.9-2.7q0 .1.1.15.15.05.3.05.2 0 .3-.05.15-.05.15-.15 0-.05-.15-.15-.1-.05-.3-.05-.15 0-.3.05-.1.1-.1.15m-2.9-1.85q-.1-.05-.3-.05-.15 0-.3.05-.1.1-.1.15 0 .1.1.15.15.05.3.05.2 0 .3-.05.15-.05.15-.15 0-.05-.15-.15m.7 2.65q-.1.1-.1.15 0 .1.1.15.15.05.3.05.2 0 .3-.05.15-.05.15-.15 0-.05-.15-.15-.1-.05-.3-.05-.15 0-.3.05m-1.3 2.25q-.15.1-.15.15 0 .1.15.15.15.05.3.05.2 0 .3-.05.15-.05.15-.15 0-.05-.15-.15-.1-.05-.3-.05-.15 0-.3.05m3.4-2.4q-.15 0-.3.05-.1.1-.1.15 0 .1.1.15.15.05.3.05.2 0 .3-.05.15-.05.15-.15 0-.05-.15-.15-.1-.05-.3-.05m-.6-.05q-.15-.05-.3-.05-.2 0-.3.05-.15.1-.15.15 0 .1.15.15.1.05.3.05.15 0 .3-.05.1-.05.1-.15 0-.05-.1-.15m-.25 2.05q0 .1.1.15.15.05.35.05h.2q-.1.05-.1.1 0 .1.1.15.15.05.35.05.15 0 .25-.05.15-.05.15-.15 0-.05-.15-.1-.1-.1-.25-.1-.2 0-.3.1v-.05q.15-.05.15-.15 0-.05-.15-.15-.1-.05-.25-.05-.2 0-.35.05-.1.1-.1.15m2.5-3.95q-.15.05-.15.1 0 .1.15.15.15.05.3.05.2 0 .3-.05.15-.05.15-.15 0-.05-.15-.1-.1-.1-.3-.1-.15 0-.3.1m.25 1.3q0 .05.1.1.15.1.35.1.15 0 .3-.1.1-.05.1-.1 0-.1-.1-.15-.15-.05-.3-.05-.2 0-.35.05-.1.05-.1.15m1.25-.65q.15 0 .25-.05.15-.05.15-.15 0-.05-.15-.15-.1-.05-.25-.05-.2 0-.35.05-.1.1-.1.15 0 .1.1.15.15.05.35.05m-.7 1.75q-.1-.05-.25-.05-.2 0-.35.05-.1.1-.1.15 0 .1.1.15.15.05.35.05.15 0 .25-.05.15-.05.15-.15 0-.05-.15-.15m-.6 1.45q-.1.05-.1.15 0 .05.1.1.143.096.275.1h-.125q-.1.1-.1.15-.1.05-.1.15 0 .1.1.15.15.05.3.05.2 0 .3-.05.15-.05.15-.15.1-.05.1-.15 0-.05-.1-.15-.148-.049-.3-.05.052-.002.1-.05.15-.05.15-.1 0-.1-.15-.15-.1-.05-.3-.05-.15 0-.3.05m.15-.75q-.1.05-.1.15 0 .1.1.15.15.05.3.05.2 0 .3-.05.15-.05.15-.15 0-.1-.15-.15-.1-.05-.3-.05-.15 0-.3.05m1.15.25q-.15 0-.3.05-.1.05-.1.15 0 .1.1.15.15.05.3.05.2 0 .3-.05.15-.05.15-.15 0-.05-.05-.1.15.05.3.05h.05q-.05.05-.05.1 0 .1.15.15.1.05.3.05.15 0 .3-.05t.15-.15q0-.05-.15-.15-.15-.05-.3-.05h-.1q.05-.05.05-.1t-.15-.15q-.1-.05-.25-.05-.2 0-.35.05-.1.1-.1.15 0 .05.05.1-.15-.05-.3-.05"/><path fill="#999" d="M52.45 98.4q-.1.05-.1.15 0 .05.1.1.15.1.3.1.2 0 .3-.1.15-.05.15-.1 0-.1-.15-.15-.1-.05-.3-.05-.15 0-.3.05m3.1-2q-.2 0-.35.05-.1.05-.1.15 0 .1.1.15.15.05.35.05.15 0 .25-.05.15-.05.15-.15 0-.1-.15-.15-.1-.05-.25-.05m-.8 1.85q-.15 0-.3.05-.1.05-.1.15 0 .1.1.15.15.05.3.05.2 0 .3-.05.15-.05.15-.15 0-.1-.15-.15-.1-.05-.3-.05m2 .7q-.1-.05-.3-.05-.15 0-.3.05-.1.05-.1.15l-.05-.05q-.1-.05-.3-.05-.15 0-.3.05-.1.1-.1.15 0 .1.1.15.15.05.3.05.2 0 .3-.05.15-.05.15-.1.15.05.3.05.2 0 .3-.05.15-.05.15-.15 0-.1-.15-.15m.65-1.25q-.15 0-.3.05-.1.05-.1.15 0 .1.1.15.15.05.3.05.2 0 .3-.05.15-.05.15-.15 0-.1-.15-.15-.1-.05-.3-.05m1.5.45h.2q.15 0 .3-.05t.15-.15q0-.1-.15-.15-.1-.05-.2-.05 0-.05-.1-.05-.15-.1-.3-.1t-.3.1q-.1.05-.15.1-.15.1-.15.15 0 .1.15.15.15.05.3.05h.25m-.15.5q-.1.1-.1.15 0 .1.1.15.15.05.35.05.15 0 .25-.05.15-.05.15-.15 0-.05-.15-.15-.1-.05-.25-.05-.2 0-.35.05m1.5-.65v.05q0 .1.1.15.15.05.3.05.2 0 .3-.05.15-.05.15-.15 0-.05-.15-.1-.1-.05-.25-.1.05 0 .05-.05 0-.1-.15-.15-.15-.05-.3-.05t-.3.05q-.15.05-.15.15 0 .05.15.15.1.05.25.05m-.2.4q-.2 0-.35.05-.1.05-.1.15 0 .05.1.1.15.1.35.1.15 0 .25-.1.15-.05.15-.1 0-.1-.15-.15-.1-.05-.25-.05m1.65-3.25q-.1-.05-.3-.05-.15 0-.3.05-.1.05-.1.15 0 .1.1.15.15.05.3.05.2 0 .3-.05.15-.05.15-.15 0-.1-.15-.15m-.65 2.05q0 .05.1.1.15.1.3.1.2 0 .3-.1.15-.05.15-.1 0-.1-.15-.15-.1-.05-.3-.05-.15 0-.3.05-.1.05-.1.15m.8.8q0 .1.15.15.15.05.3.05t.3-.05q.15-.05.15-.15 0-.05-.15-.1-.15-.1-.3-.1t-.3.1q-.15.05-.15.1m2.75-1.5q.2 0 .3-.1.15-.05.15-.1 0-.1-.15-.15-.1-.05-.3-.05-.15 0-.3.05-.1.05-.1.15 0 .05.1.1.15.1.3.1m.9.2q-.1.1-.1.15 0 .1.1.15.15.05.35.05.15 0 .3-.05.1-.05.1-.15 0-.05-.1-.15-.15-.05-.3-.05-.2 0-.35.05m0 1.25q-.1-.05-.25-.05-.2 0-.35.05-.1.05-.1.15 0 .1.1.15.1.05.25.05-.15.05-.15.15 0 .05.15.1.15.1.3.1.2 0 .3-.1.15-.05.15-.1v-.05q.15.05.35.05.15 0 .25-.05.15-.05.15-.15 0-.05-.15-.15-.1-.05-.25-.05-.2 0-.35.05-.1.1-.1.15 0 .048.05.1-.052-.05-.1-.05-.1-.05-.2-.05.1-.05.1-.15 0-.1-.15-.15m3.6-2.15q0-.1-.1-.15-.15-.05-.3-.05-.2 0-.3.05-.15.05-.15.15-.05.05-.05.15 0 .05.1.1l.2.1q-.05 0-.05.05 0 .1.1.15.15.05.35.05.15 0 .3-.05.1-.05.1-.15 0-.05-.1-.15-.1 0-.2-.05.05 0 .05-.05v-.05q.05-.05.05-.1m-1.4 1.1q0 .05.15.1.1.1.3.1.15 0 .3-.1.1-.05.1-.1v-.05q.2 0 .3-.05.15-.05.15-.15 0-.05-.15-.15-.1-.05-.3-.05-.15 0-.3.05-.1.1-.1.15v.05q-.2 0-.3.05-.15.05-.15.15m.5.3q-.15.05-.15.15 0 .05.15.15.15.05.3.05.2 0 .3-.05.15-.1.15-.15 0-.1-.15-.15-.1-.05-.3-.05-.15 0-.3.05m-1.9 1.75q-.15-.1-.3-.1-.2 0-.3.1-.15.05-.15.1 0 .1.15.15.1.1.3.1.15 0 .3-.1.1-.05.1-.15 0-.05-.1-.1m3.8-2.5q-.1.05-.1.15 0 .05.1.1.15.1.3.1.2 0 .3-.1.15-.05.15-.1 0-.1-.15-.15-.1-.05-.3-.05-.15 0-.3.05m3.6-1.25q-.1.05-.1.15 0 .1.1.15-.15 0-.3.1-.1.05-.1.1 0 .1.1.15.15.05.3.05.2 0 .3-.05.15-.05.15-.15 0-.05-.15-.1 0-.048-.05-.05h.1q.15 0 .3-.05.1-.05.1-.15 0-.1-.1-.15-.15-.05-.3-.05-.2 0-.35.05m1.85.05q-.15-.1-.3-.1-.2 0-.3.1-.15.05-.15.15 0 .05.15.1.1.1.3.1.15 0 .3-.1.1-.05.1-.1 0-.1-.1-.15m-3.9.3q.15 0 .3-.05.1-.05.1-.15 0-.05-.1-.15-.15-.05-.3-.05-.2 0-.3.05-.15.1-.15.15 0 .1.15.15.1.05.3.05m1.05 1.5q0-.1-.15-.15-.1-.05-.25-.05-.2 0-.35.05-.1.05-.1.15 0 .1.1.15.15.05.35.05.15 0 .25-.05.15-.05.15-.15m1.55-.6q0-.1-.15-.15-.1-.05-.3-.05-.15 0-.3.05-.1.05-.1.15 0 .05.1.15.15.05.3.05.2 0 .3-.05.15-.1.15-.15m.3 1.1q-.1.05-.1.15 0 .05.1.15.15.05.35.05.15 0 .25-.05.15-.1.15-.15 0-.1-.15-.15-.1-.05-.25-.05-.2 0-.35.05m3.05-.2q.15 0 .3-.05.1-.1.1-.15 0-.1-.1-.15-.15-.05-.3-.05h-.05q-.05-.05-.15-.1-.1-.05-.3-.05-.15 0-.3.05-.1.05-.1.15 0 .1.1.15.15.05.3.05h.05l.1.1q.15.05.35.05m-.15.5q0 .1.1.15.15.05.3.05.2 0 .3-.05.15-.05.15-.15 0-.1-.15-.15-.1-.05-.3-.05-.15 0-.3.05-.1.05-.1.15m2.75-.55q-.1-.05-.25-.05-.2 0-.35.05-.1.05-.1.15 0 .1.1.15.15.05.35.05.15 0 .25-.05.15-.05.15-.15 0-.1-.15-.15m-.75.65q-.15.1-.15.15 0 .1.15.15.1.05.3.05.15 0 .3-.05.1-.05.1-.15 0-.05-.1-.15-.15-.05-.3-.05-.2 0-.3.05"/><path fill="#999" d="M79.6 98.3q-.15 0-.3.05-.15.1-.15.15 0 .1.15.15.15.05.3.05t.3-.05q.15-.05.15-.15.15.1.3.1.2 0 .3-.1.15-.05.15-.1 0-.1-.15-.15-.1-.05-.3-.05-.15 0-.3.05-.1.05-.1.15-.05 0-.05-.05-.15-.05-.3-.05m.5 1.85q-.15 0-.25.05-.15.05-.15.15 0 .1.15.15.15.05.3.05t.3-.05q.15-.05.15-.15 0-.05-.1-.15.1 0 .2-.05.05 0 .1-.05h.2q.15 0 .25-.05.15-.1.15-.15 0-.1-.15-.15-.1-.05-.25-.05-.2 0-.35.05l-.1.1q-.05-.05-.15-.05-.2 0-.3.1-.15.05-.15.1 0 .1.15.15m.8.15q-.1.05-.1.15 0 .1.1.15h.05q.05.1.15.15.1.05.3.05h.25v.05q0 .05.1.1.15.1.35.1.15 0 .25-.1.15-.05.15-.1 0-.1-.1-.15 0-.1-.15-.15-.1-.05-.3-.05h-.2l-.05-.05h-.05q0-.1-.15-.15-.1-.05-.3-.05-.15 0-.3.05m-2 .1q-.1-.05-.3-.05-.15 0-.3.05-.1.05-.1.15 0 .05.1.15.15.05.3.05.2 0 .3-.05.15-.1.15-.15 0-.1-.15-.15m.05.65q-.1-.05-.3-.05-.15 0-.3.05-.1.1-.1.15 0 .1.1.15.15.05.3.05.2 0 .3-.05.15-.05.15-.15 0-.05-.15-.15m-2.2-1.4q.15-.05.15-.15 0-.05-.15-.1-.1-.1-.25-.1-.2 0-.35.1-.1.05-.1.1 0 .1.1.15.15.05.35.05.15 0 .25-.05m-.55.35q.15-.05.15-.15 0-.1-.15-.15-.1-.05-.3-.05-.15 0-.3.05-.1.05-.1.15 0 .1.1.15.15.05.3.05.2 0 .3-.05m.6 1.3q.15.05.3.05.2 0 .3-.05.15-.05.15-.15 0-.05-.15-.15-.1-.05-.3-.05-.15 0-.3.05-.1.1-.1.15 0 .1.1.15m.8 1.6q.15.05.3.05.2 0 .3-.05.15-.05.15-.15 0-.05-.15-.15-.1-.05-.3-.05-.15 0-.3.05-.1.1-.1.15 0 .1.1.15m3.1-.35q0 .1.1.15.15.05.3.05.2 0 .3-.05.15-.05.15-.15 0-.05-.15-.15-.1-.05-.3-.05-.15 0-.3.05-.1.1-.1.15m-.55.6q0 .05.15.1.15.1.3.1t.3-.1q.15-.05.15-.1 0-.1-.15-.15-.15-.05-.3-.05t-.3.05q-.15.05-.15.15m0 .45q0-.1-.15-.15-.1-.05-.3-.05-.15 0-.3.05t-.15.15q0 .05.15.1.15.1.3.1t.25-.05q0 .1.15.15.1.05.3.05.15 0 .3-.05.1-.05.1-.15 0-.1-.1-.15-.15-.05-.3-.05t-.25.05m-.05 1.35q.15 0 .25-.05.15-.05.15-.15 0-.05-.15-.1-.1-.1-.25-.1-.2 0-.35.1-.1.05-.1.1 0 .1.1.15.15.05.35.05M75 99.5q.2 0 .3-.05.15-.05.15-.15 0-.05-.15-.15-.1-.05-.3-.05-.15 0-.3.05-.1.1-.1.15 0 .1.1.15.15.05.3.05m-.5.85q.15-.05.15-.15 0-.05-.15-.15-.1-.05-.3-.05-.15 0-.3.05-.1.1-.1.15 0 .1.1.15.15.05.3.05.2 0 .3-.05m-.95 1.4q.15 0 .3-.05.1-.05.1-.15 0-.05-.1-.1-.15-.1-.3-.1-.2 0-.35.1-.1.05-.1.1 0 .1.1.15.15.05.35.05m-.95-2.5q-.1-.05-.25-.05-.2 0-.35.05-.1.05-.1.15 0 .05.1.1.15.1.35.1.15 0 .25-.1.15-.05.15-.1 0-.1-.15-.15m-.85.45q0-.1-.15-.15-.15-.05-.3-.05-.2 0-.3.05-.15.05-.15.15 0 .048.05.05h-.25q-.15 0-.3.05-.1.05-.1.15 0 .05.1.15.15.05.3.05.2 0 .3-.05.15-.1.15-.15v-.05h.2q.15 0 .3-.05t.15-.15m-.45.8q-.15-.05-.3-.05t-.3.05q-.15.1-.15.15 0 .1.15.15.15.05.3.05t.3-.05q.15-.05.15-.15 0-.05-.15-.15m.25.35q0 .1.1.15.15.05.3.05.2 0 .3-.05.15-.05.15-.15 0-.05-.15-.15-.1-.05-.3-.05-.15 0-.3.05-.1.1-.1.15m-.5.4q0-.1-.1-.15-.15-.05-.3-.05-.2 0-.3.05-.15.05-.15.15 0 .05.15.1.1.1.3.1.15 0 .3-.1.1-.05.1-.1m.9.35q-.15 0-.3.05-.1.05-.1.15 0 .05.1.1.15.1.3.1.2 0 .3-.1.15-.05.15-.1 0-.1-.15-.15-.1-.05-.3-.05m-.65.8q0-.1-.15-.15-.15-.05-.3-.05-.2 0-.3.05-.15.05-.15.15 0 .1.15.15.1.05.3.05.15 0 .3-.05t.15-.15m.3 2.4q0 .05.1.1.15.1.3.1.2 0 .3-.1.15-.05.15-.1 0-.1-.15-.15-.1-.05-.3-.05-.15 0-.3.05-.1.05-.1.15m1.05.3q-.1-.05-.25-.05-.2 0-.35.05-.1.1-.1.15 0 .1.1.15.15.05.35.05.15 0 .25-.05.15-.05.15-.15 0-.05-.15-.15m2.2-2.55q-.1.1-.1.15 0 .1.1.15.15.05.3.05.2 0 .3-.05.15-.05.15-.15 0-.05-.15-.15-.1-.05-.3-.05-.15 0-.3.05m-.8 2.55q-.15 0-.3.05-.15.1-.15.15 0 .1.15.15.15.05.3.05t.3-.05q.15-.05.15-.15 0-.05-.15-.15-.15-.05-.3-.05m-.2.45q-.15-.05-.3-.05-.2 0-.35.05-.1.1-.1.15 0 .1.1.15.15.05.35.05.15 0 .3-.05.1-.05.1-.15 0-.05-.1-.15m2.15.95q.1.05.3.05.15 0 .3-.05.1-.05.1-.15 0-.1-.1-.15-.15-.05-.3-.05-.2 0-.3.05-.15.05-.15.15 0 .1.15.15m-6.65-6.4q.15 0 .25-.05.15-.05.15-.15 0-.05-.15-.15-.1-.05-.25-.05-.2 0-.35.05-.1.1-.1.15 0 .1.1.15.15.05.35.05m.65 1.8q-.15 0-.3.05-.1.05-.1.15 0 .05.1.15.15.05.3.05.2 0 .3-.05.15-.1.15-.15 0-.1-.15-.15-.1-.05-.3-.05m-1.85-1.4q0-.1-.15-.15-.1-.05-.25-.05-.2 0-.35.05-.1.05-.1.15 0 .05.1.1.15.1.35.1.15 0 .25-.1.15-.05.15-.1m-2.05-.25q.1-.05.1-.1h.15q.15 0 .3-.05.1-.05.1-.15 0-.1-.1-.15-.15-.05-.3-.05-.2 0-.35.05l-.1.1h-.1q-.15 0-.3.05t-.15.15q0 .05.15.15.15.05.3.05t.3-.05m.65.7q0-.1-.15-.15-.15-.05-.3-.05t-.3.05q-.15.05-.15.15 0 .048.05.05h-.15q-.2 0-.3.05-.15.05-.15.15 0 .1.15.15.1.05.3.05.15 0 .3-.05t.15-.15q0-.049-.05-.1.052.05.15.05.15 0 .3-.1.15-.05.15-.1m1.5 2.3h.2q.15 0 .3-.05.1-.05.1-.15 0-.1-.1-.15-.15-.05-.3-.05h-.2q-.2 0-.35.05-.1.05-.1.15 0 .05.1.15.15.05.35.05m-.8-.85q0-.05-.1-.15-.15-.05-.3-.05-.2 0-.3.05-.15.1-.15.15 0 .1.15.15.1.05.3.05.15 0 .3-.05.1-.05.1-.15m-1.5 1.05q.15-.05.15-.15 0-.1-.15-.15-.1-.05-.3-.05-.15 0-.3.05-.1.05-.1.15 0 .1.1.15.15.05.3.05.2 0 .3-.05m.4 1.55q-.05-.05-.2-.05.05-.05.05-.1t-.15-.15q-.1-.05-.3-.05-.15 0-.3.05-.1.1-.1.15 0 .1.1.15.1.05.25.05-.05.05-.05.1t.1.15q.15.05.3.05.2 0 .3-.05.15-.1.15-.15 0-.1-.15-.15m1-1q0 .1.1.15.15.05.35.05.15 0 .25-.05.15-.05.15-.15 0-.1-.15-.15-.1-.05-.25-.05-.2 0-.35.05-.1.05-.1.15m2.3-1.15q.2 0 .3-.1.15-.05.15-.1 0-.1-.15-.15-.1-.05-.3-.05-.15 0-.3.05-.1.05-.1.15 0 .05.1.1.15.1.3.1m-.75 2q.15 0 .3-.1.1-.05.1-.1 0-.1-.1-.15-.15-.05-.3-.05-.2 0-.35.05-.1.05-.1.15 0 .05.1.1.15.1.35.1m1.05-.75q.15.05.35.05.15 0 .25-.05.15-.05.15-.15 0-.1-.15-.15-.1-.05-.25-.05-.2 0-.35.05-.1.05-.1.15 0 .1.1.15m-4.9-3.7q-.1-.05-.3-.05-.15 0-.3.05-.1.1-.1.15 0 .1.1.15.15.05.3.05.2 0 .3-.05.15-.05.15-.15 0-.05-.15-.15m-1.35-.85q.15 0 .25-.1.15-.05.15-.1 0-.1-.15-.15-.1-.05-.25-.05-.2 0-.35.05-.1.05-.1.15 0 .05.1.1.15.1.35.1m.1 1.9q.15-.05.15-.15 0-.05-.15-.15-.1-.05-.3-.05-.15 0-.3.05-.1.1-.1.15 0 .1.1.15.15.05.3.05.2 0 .3-.05m-1.3-1.65q.051-.001.1-.05.15-.05.15-.15 0-.05-.15-.1-.15-.1-.3-.1t-.3.1q-.15.05-.15.1t.05.1h-.1q-.1.1-.1.15 0 .1.1.15.15.05.3.05.2 0 .3-.05.15-.05.15-.15 0-.049-.05-.05m-1.6-.4q0-.1-.1-.15-.15-.05-.3-.05-.2 0-.3.05-.15.05-.15.15 0 .1.15.15.098.049.3.05-.105.002-.25.05-.1.05-.1.15 0 .1.1.15.05 0 .15.05v.05q0 .05.1.1.15.1.3.1.2 0 .3-.1.15-.05.15-.1 0-.1-.15-.15-.05-.05-.1-.05v-.05q0-.1-.15-.15-.098-.049-.25-.05.103-.002.2-.05.1-.05.1-.15m.2 2.1q0-.1-.15-.15-.15-.05-.3-.05-.2 0-.3.05-.15.05-.15.15 0 .1.15.15.1.05.3.05.15 0 .3-.05t.15-.15m.15.4q-.15-.1-.3-.1-.2 0-.3.1-.15.05-.15.1 0 .1.15.15.1.05.3.05.15 0 .3-.05.1-.05.1-.15 0-.05-.1-.1m-.5-1q.15 0 .3-.1.1-.05.1-.1 0-.1-.1-.15-.15-.05-.3-.05-.2 0-.35.05-.05-.05-.15-.1-.1-.05-.3-.05-.15 0-.3.05-.1.05-.1.15 0 .05.1.1.1.1.25.1 0 .05.1.1.15.05.3.05.2 0 .3-.05h.15m1.6.5q-.1.05-.1.15 0 .05.1.1.15.1.3.1.2 0 .3-.1.15-.05.15-.1 0-.1-.15-.15-.1-.05-.3-.05-.15 0-.3.05m.65 1.15q-.1.05-.1.1 0 .1.1.15.15.05.3.05.2 0 .3-.05.15-.05.15-.15 0-.05-.15-.1-.1-.1-.3-.1-.15 0-.3.1m-2.1.9q.15.05.3.05.2 0 .3-.05.15-.05.15-.15 0-.05-.15-.1-.1-.1-.3-.1-.15 0-.3.1-.1.05-.1.1 0 .1.1.15m.5 1.6q0-.1-.1-.15-.15-.05-.3-.05-.2 0-.3.05-.15.05-.15.15 0 .1.15.15.1.05.3.05.15 0 .3-.05.1-.05.1-.15m-.45-.45q0-.1-.1-.15-.15-.05-.3-.05-.2 0-.3.05-.15.05-.15.15 0 .1.15.15.1.05.3.05.15 0 .3-.05.1-.05.1-.15m4.1-1q-.1-.05-.3-.05-.15 0-.3.05-.1.1-.1.15 0 .1.1.15.15.05.3.05.2 0 .3-.05.15-.05.15-.15 0-.05-.15-.15m-1-.25q-.15-.05-.3-.05t-.3.05q-.15.1-.15.15 0 .1.15.15.15.05.3.05t.3-.05q.15-.05.15-.15 0-.05-.15-.15m.85 2.95q.15-.1.15-.15 0-.1-.15-.15-.1-.05-.25-.05-.2 0-.35.05-.1.05-.1.15 0 .05.1.15.15.05.35.05.15 0 .25-.05m-3.7-.5q-.15-.05-.3-.05-.2 0-.3.05-.15.1-.15.15 0 .05.05.1-.05.05-.05.1 0 .1.15.15.1.05.3.05.15 0 .3-.05.1-.05.1-.15 0-.05-.05-.1.05-.05.05-.1t-.1-.15m.15 1.15q0-.1-.1-.15-.15-.05-.3-.05-.2 0-.3.05-.15.05-.15.15 0 .1.15.15.1.05.3.05.15 0 .3-.05.1-.05.1-.15m8.05-1.15q-.15-.05-.3-.05-.2 0-.3.05-.15.05-.15.15 0 .05.1.1-.05.05-.15.05-.1.1-.1.15 0 .1.1.15.15.05.35.05.15 0 .3-.05.1-.05.1-.15 0-.05-.05-.1.05-.05.1-.05.1-.05.1-.15 0-.1-.1-.15m-1.05.8q.15-.05.15-.15 0-.05-.15-.15-.1-.05-.3-.05-.15 0-.3.05-.1.1-.1.15 0 .1.1.15.15.05.3.05.2 0 .3-.05m-1.55-.75q.15-.05.15-.15 0-.05-.15-.15-.1-.05-.3-.05-.15 0-.3.05-.1.1-.1.15 0 .1.1.15.15.05.3.05.2 0 .3-.05m-.5 1.1q-.15.1-.15.15 0 .1.15.15.1.05.3.05.15 0 .3-.05.1-.05.1-.15 0-.05-.1-.15-.15-.05-.3-.05-.2 0-.3.05m-7.75-6.75q.2 0 .3-.1.15-.05.15-.1 0-.1-.15-.15-.1-.05-.3-.05-.15 0-.3.05-.1.05-.1.15 0 .05.1.1.15.1.3.1m0 .05q-.15-.05-.3-.05-.2 0-.35.05-.1.05-.1.15 0 .05.1.15.15.05.35.05.15 0 .3-.05.1-.1.1-.15 0-.1-.1-.15m.6.9q.15.05.3.05.2 0 .3-.05.15-.1.15-.15 0-.1-.15-.15-.1-.05-.3-.05-.15 0-.3.05-.1.05-.1.15 0 .05.1.15m-.6-.4q-.15-.05-.3-.05-.2 0-.35.05-.1.05-.1.15 0 .1.1.15.15.05.35.05.15 0 .3-.05.1-.05.1-.15 0-.1-.1-.15m.25 1.1q-.15 0-.3.05t-.15.15q0 .05.15.1.048.048.1.05h-.05q-.2 0-.3.05-.15.1-.15.15 0 .1.15.15.1.05.3.05.15 0 .3-.05.1-.05.1-.15v-.05l.05.05q.15.05.3.05t.3-.05q.15-.1.15-.15 0-.1-.15-.15-.15-.05-.3-.05h-.05q0-.1-.15-.15-.15-.05-.3-.05"/><path fill="#999" d="M57.35 100.3q-.15 0-.3.05-.15.1-.15.15 0 .1.15.15 0 .1.15.15.1.05.3.05.15 0 .3-.05.1-.05.1-.15 0-.05-.1-.1v-.05q0-.05-.15-.15-.1-.05-.3-.05m-.55 1.1q-.15 0-.3.05t-.15.15q0 .05.15.1.15.1.3.1.2 0 .3-.1.15-.05.15-.1 0-.1-.15-.15-.1-.05-.3-.05m.1.5q-.15 0-.3.1-.1.05-.1.1 0 .1.1.15.15.05.3.05.2 0 .3-.05.15-.05.15-.15 0-.05-.15-.1-.1-.1-.3-.1m1.25.05q-.1-.05-.3-.05-.15 0-.3.05t-.15.15q0 .05.15.1.15.1.3.1.2 0 .3-.1.15-.05.15-.1 0-.1-.15-.15m-.6.75q-.15-.05-.3-.05t-.3.05q-.15.05-.15.15 0 .1.15.15.05 0 .15.05-.1.05-.1.1t.15.15q.1.05.3.05.15 0 .3-.05.1-.1.1-.15 0-.1-.1-.15-.05-.05-.15-.05.1-.05.1-.1 0-.1-.15-.15m-1.05.05q0-.05-.15-.15-.1-.05-.25-.05-.145 0-.25.05.1-.052.1-.1 0-.1-.1-.15l-.15-.15q-.1-.05-.3-.05-.15 0-.3.05-.1.1-.1.15 0 .1.1.15 0 .05.1.1.15.1.3.1.1 0 .2-.05-.05.05-.05.1 0 .1.1.15.15.05.35.05.15 0 .25-.05.15-.05.15-.15m.35 2.3q-.1.05-.1.1 0 .1.1.15.15.05.3.05.2 0 .3-.05.1-.05.15-.1.05 0 .15-.05.1-.05.1-.15 0-.05-.1-.1-.15-.1-.3-.1-.2 0-.3.1-.1 0-.1.1-.15 0-.2.05m.9-.8q-.1.05-.1.15 0 .05.1.1.15.1.3.1.2 0 .3-.1.15-.05.15-.1 0-.1-.15-.15-.1-.05-.3-.05-.15 0-.3.05m2.7-1.45q0-.1-.15-.15-.1-.05-.2-.05-.05 0-.05-.05-.15-.05-.3-.05-.2 0-.35.05-.1.1-.1.15 0 .1.1.15.15.05.25.05l.05.05q.15.05.3.05.2 0 .3-.05.15-.05.15-.15m-1.8.25q-.15.05-.15.15 0 .05.15.1.1.1.3.1.15 0 .3-.1.1-.05.1-.1 0-.1-.1-.15-.15-.1-.3-.1-.2 0-.3.1m.55 1.85q0 .05.1.1.15.1.35.1.15 0 .25-.1.15-.05.15-.1.05-.05.05-.1 0-.1-.15-.15-.1-.05-.3-.05-.15 0-.3.05-.1.05-.1.15-.05.05-.05.1m-3.7-5.3q0-.1-.15-.15-.1-.05-.3-.05-.15 0-.3.05-.1.05-.1.15 0 .05.1.1.15.1.3.1.2 0 .3-.1.15-.05.15-.1m-1.9.25q-.15.1-.15.15 0 .1.15.15.1.05.3.05.15 0 .3-.05.1-.05.1-.15 0-.05-.1-.15-.15-.05-.3-.05-.2 0-.3.05m.55.65q-.1-.05-.3-.05-.15 0-.3.05-.1.1-.1.15 0 .1.1.15.15.05.3.05.2 0 .3-.05.15-.05.15-.15 0-.05-.15-.15m-.65.85q.15 0 .25-.05.15-.05.15-.15 0-.05-.15-.15-.1-.05-.25-.05-.2 0-.35.05-.1.1-.1.15 0 .1.1.15.15.05.35.05m1.05.5q-.1.05-.1.15 0 .05.1.1.15.1.3.1.2 0 .3-.1.15-.05.15-.1 0-.1-.15-.15-.1-.05-.3-.05-.15 0-.3.05m-1.8-2.5q0-.05-.15-.15-.1-.05-.3-.05-.15 0-.3.05-.1.1-.1.15 0 .1.1.15.15.05.3.05.2 0 .3-.05.15-.05.15-.15m-.3.6q-.15-.05-.3-.05t-.3.05q-.15.05-.15.15 0 .05.15.1.148.098.25.1-.152.001-.3.05-.15.05-.15.15 0 .05.15.1.15.1.3.1t.3-.1q.15-.05.15-.1 0-.1-.15-.15-.097-.048-.25-.05.155-.003.3-.1 0 .1.1.15.15.05.35.05.15 0 .25-.05.15-.05.15-.15 0-.1-.15-.15-.1-.05-.25-.05-.2 0-.3.05-.05-.05-.15-.1m-1.55 1.9q-.15 0-.25.05-.15.05-.15.15 0 .05.15.15.1.05.3.05.15 0 .25-.05.15 0 .25-.05.15-.05.15-.15v-.05q.001.05.05.05.15.05.3.05h.15l-.05.05q0 .1.15.15.1.05.3.05.15 0 .3-.05t.15-.15q0-.05-.15-.1-.15-.1-.3-.1-.05 0-.1.05v-.1q0-.05-.15-.15-.1-.05-.3-.05-.15 0-.3.05-.1.1-.1.15v.05q-.05-.05-.1-.05-.1-.05-.3-.05-.15 0-.25.05m.15 3q0 .05.1.1.15.1.3.1.2 0 .3-.1.15-.05.15-.1 0-.1-.15-.15-.1-.05-.3-.05-.15 0-.3.05-.1.05-.1.15m1.5-.5q-.1.05-.1.15 0 .05.1.1.15.1.3.1.2 0 .3-.1.15-.05.15-.1 0-.1-.15-.15-.1-.05-.3-.05-.15 0-.3.05m2.85.6q-.1-.05-.3-.05-.15 0-.3.05-.1.05-.1.15 0 .05.1.1.15.1.3.1.2 0 .3-.1.15-.05.15-.1 0-.1-.15-.15m.05.7q0-.1-.15-.15-.1-.05-.25-.05-.2 0-.35.05-.1.05-.1.15 0 .05.1.1.15.1.35.1.15 0 .25-.1.15-.05.15-.1m-.5.85q-.15-.05-.3-.05-.2 0-.35.05-.1.05-.1.15 0 .05.1.1.15.1.35.1.15 0 .3-.1.1-.05.1-.1 0-.1-.1-.15m-3.4-.75q-.1.05-.1.15 0 .1.1.15.15.05.3.05.2 0 .3-.05.15-.05.15-.15 0-.1-.15-.15-.1-.05-.3-.05-.15 0-.3.05m-1.6-3.7q0-.1-.15-.15-.1-.05-.3-.05-.15 0-.3.05h-.1q-.15 0-.3.05t-.15.15q0 .05.15.1v.1q0 .05.1.1.15.1.3.1.2 0 .3-.1.15-.05.15-.1v-.1q.05 0 .15-.05.15-.05.15-.1m-2.55-2.8q.1.1.3.1.15 0 .3-.1.1-.05.1-.1 0-.1-.1-.15-.15-.05-.3-.05-.2 0-.3.05-.15.05-.15.15 0 .05.15.1m.2 2q.2 0 .3-.05.15-.05.15-.15 0-.05-.15-.15-.1-.05-.3-.05-.15 0-.3.05-.15.1-.15.15 0 .1.15.15.15.05.3.05m-.3.15q-.1.1-.1.15 0 .1.1.15.15.05.3.05.2 0 .3-.05.15-.05.15-.15 0-.05-.15-.15-.1-.05-.3-.05-.15 0-.3.05m.75 1.1q0-.1-.1-.15-.15-.05-.3-.05-.2 0-.3.05-.15.05-.15.15 0 .05.15.15.1.05.3.05.15 0 .3-.05.1-.1.1-.15m-.05.95q-.1.05-.1.15 0 .05.1.1l.2.1v.05q0 .05.1.1.15.1.3.1.1 0 .15-.05.1.05.15.05.15 0 .3-.1.15-.05.15-.1 0-.1-.15-.15-.15-.1-.3-.1-.05 0-.15.05v-.05q0-.1-.15-.15-.1-.05-.3-.05-.15 0-.3.05m-2.2-1.15q.1-.05.1-.15 0-.05-.1-.15-.15-.05-.3-.05-.2 0-.35.05-.1.1-.1.15 0 .1.1.15.15.05.35.05.15 0 .3-.05m1.8 2q.05-.05.1-.05h.05q.2 0 .3-.05.15-.1.15-.15 0-.1-.15-.15-.1-.05-.3-.05-.15 0-.3.05-.05.05-.1.05h-.05q-.15 0-.3.1-.1.05-.1.1 0 .1.1.15.15.05.3.05.2 0 .3-.05m.1.65v.05q-.15.05-.15.15 0 .05.15.1.15.1.3.1t.3-.1q.15-.05.15-.1 0-.1-.15-.15l-.05-.05h.05q.15-.05.15-.15 0-.05-.15-.15-.15-.05-.3-.05t-.3.05q-.15.1-.15.15 0 .1.15.15m-3.3-5.4q.1-.05.1-.1 0-.1-.1-.15-.15-.05-.3-.05-.2 0-.3.05-.15.05-.15.15 0 .05.15.1.1.1.3.1.15 0 .3-.1m-3.45 2.05q.15.05.3.05.2 0 .3-.05.15-.05.15-.15 0-.05-.15-.15-.1-.05-.3-.05-.15 0-.3.05-.1.1-.1.15 0 .1.1.15m-.1 1.8q-.15.05-.15.15 0 .05.15.1.1.1.25.1-.1.1-.1.15 0 .1.1.15.15.05.35.05.15 0 .3-.05.1-.05.1-.15 0-.05-.1-.15-.15-.05-.3-.05h-.1q.052-.002.1-.05.1-.05.1-.1 0-.1-.1-.15-.15-.05-.3-.05-.2 0-.3.05m3.3-.5q-.15-.05-.3-.05-.2 0-.3.05-.15.05-.15.15 0 .1.15.15.1.05.3.05.15 0 .3-.05t.15-.15q0-.1-.15-.15m.8 1.2q.15 0 .3-.1.1-.05.1-.1 0-.1-.1-.15-.15-.05-.3-.05-.2 0-.35.05-.1.05-.1.15 0 .05.1.1.15.1.35.1m-.05.8q-.15 0-.3.05-.1.05-.1.15 0 .05.1.1.15.1.3.1.2 0 .3-.1.15-.05.15-.1 0-.1-.15-.15-.1-.05-.3-.05m4.85 1.95q.15-.05.15-.15 0-.05-.15-.15-.1-.05-.3-.05-.15 0-.3.05-.1.1-.1.15 0 .1.1.15.15.05.3.05.2 0 .3-.05m-3.65-1.25q-.1.1-.1.15 0 .1.1.15.15.05.3.05.2 0 .3-.05.15-.05.15-.15 0-.05-.15-.15-.1-.05-.3-.05-.15 0-.3.05m-6.4-5.85q-.15-.05-.3-.05-.2 0-.35.05-.1.05-.1.15-.1-.05-.2-.05-.15 0-.3.05-.1.05-.1.15-.1-.05-.3-.05-.15 0-.3.05-.1.1-.1.15 0 .1.1.15.15.05.3.05.2 0 .3-.05.15-.05.15-.15.15.05.25.05.2 0 .3-.05.15-.05.15-.15.1.05.2.05.15 0 .3-.05.1-.1.1-.15 0-.1-.1-.15m-2.45 3.85q-.2 0-.35.05-.1.05-.1.15 0 .05.1.1.15.1.35.1.15 0 .25-.1.15-.05.15-.1 0-.1-.15-.15-.1-.05-.25-.05m2.9-.8q.15 0 .3-.05.1-.05.1-.15 0-.1-.1-.15-.15-.05-.3-.05-.2 0-.3.05-.15.05-.15.15 0 .049.05.05h-.05q-.15-.05-.3-.05t-.3.05q-.15.05-.15.15 0 .05.15.15.15.05.3.05t.3-.05q.15-.1.15-.15v-.05q.1.05.3.05m-.45.65q-.2 0-.35.05-.1.05-.1.15 0 .1.1.15.15.05.35.05.15 0 .25-.05.15-.05.15-.15 0-.1-.15-.15-.1-.05-.25-.05m-.65 1.05q-.15 0-.3.05-.1.05-.1.15 0 .05.1.1.15.1.3.1.2 0 .3-.1.15-.05.15-.1 0-.1-.15-.15-.1-.05-.3-.05m44.85-3.1q-.1-.1-.3-.1-.15 0-.3.1-.1.05-.1.1 0 .1.1.15.15.05.3.05.2 0 .3-.05.15-.05.15-.15 0-.05-.15-.1m-.45-.95q0-.05-.15-.15-.1-.05-.3-.05-.15 0-.3.05-.1.1-.1.15 0 .1.1.15.15.05.3.05.2 0 .3-.05.15-.05.15-.15"/><g display="none"><path fill="none" stroke="#F90" stroke-width="5" stroke-linecap="round" stroke-linejoin="round" d="M46.4 81.1q-3.9 9.35 0 18.7"/><animate attributeName="display" repeatCount="indefinite" dur="1.625s" keyTimes="0;0.641;0.667;1" values="none;inline;none;none"/></g><g display="none"><path fill="none" stroke="#F90" stroke-width="5" stroke-linecap="round" stroke-linejoin="round" d="M46.55 97.95q-2.35-9.85 0-19.7"/><animate attributeName="display" repeatCount="indefinite" dur="1.625s" keyTimes="0;0.615;0.641;1" values="none;inline;none;none"/></g><g display="none"><path fill="none" stroke="#F90" stroke-width="5" stroke-linecap="round" stroke-linejoin="round" d="M46.7 96.15q-.8-10.4 0-20.75"/><animate attributeName="display" repeatCount="indefinite" dur="1.625s" keyTimes="0;0.59;0.615;1" values="none;inline;none;none"/></g><g display="none"><path fill="none" stroke="#F90" stroke-width="5" stroke-linecap="round" stroke-linejoin="round" d="M46.85 94.3q.75-10.9 0-21.8"/><animate attributeName="display" repeatCount="indefinite" dur="1.625s" keyTimes="0;0.564;0.59;1" values="none;inline;none;none"/></g><g display="none"><path fill="none" stroke="#F90" stroke-width="5" stroke-linecap="round" stroke-linejoin="round" d="M45.9 88.7q-.1-10.75 1.15-21.15"/><animate attributeName="display" repeatCount="indefinite" dur="1.625s" keyTimes="0;0.513;0.538;1" values="none;inline;none;none"/></g><g display="none"><path fill="none" stroke="#F90" stroke-width="5" stroke-linecap="round" stroke-linejoin="round" d="M47.1 65.45q-4.85 9.35-2.3 19.45"/><animate attributeName="display" repeatCount="indefinite" dur="1.625s" keyTimes="0;0.487;0.513;1" values="none;inline;none;none"/></g><g display="none"><path fill="none" stroke="#F90" stroke-width="5" stroke-linecap="round" stroke-linejoin="round" d="M45.85 85.55q-3.15-9.9 1.15-19.5"/><animate attributeName="display" repeatCount="indefinite" dur="1.625s" keyTimes="0;0.462;0.487;1" values="none;inline;none;none"/></g><g display="none"><path fill="none" stroke="#F90" stroke-width="5" stroke-linecap="round" stroke-linejoin="round" d="M46.85 66.65q-3.7 9.8 0 19.55"/><animate attributeName="display" repeatCount="indefinite" dur="1.625s" keyTimes="0;0.436;0.462;1" values="none;inline;none;none"/></g><g display="none"><path fill="none" stroke="#F90" stroke-width="5" stroke-linecap="round" stroke-linejoin="round" d="M46.9 88.3q-1.7-10.3 0-20.65"/><animate attributeName="display" repeatCount="indefinite" dur="1.625s" keyTimes="0;0.41;0.436;1" values="none;inline;none;none"/></g><g display="none"><path fill="none" stroke="#F90" stroke-width="5" stroke-linecap="round" stroke-linejoin="round" d="M46.95 90.35q.3-10.85 0-21.7"/><animate attributeName="display" repeatCount="indefinite" dur="1.625s" keyTimes="0;0.385;0.41;1" values="none;inline;none;none"/></g><g display="none"><path fill="none" stroke="#F90" stroke-width="5" stroke-linecap="round" stroke-linejoin="round" d="M47 69.65q2.3 11.4 0 22.8"/><animate attributeName="display" repeatCount="indefinite" dur="1.625s" keyTimes="0;0.359;0.385;0.538;0.564;1" values="none;inline;none;inline;none;none"/></g><g display="none"><path fill="none" stroke="#F90" stroke-width="5" stroke-linecap="round" stroke-linejoin="round" d="M46.95 94.3q.8-11 0-22"/><animate attributeName="display" repeatCount="indefinite" dur="1.625s" keyTimes="0;0.333;0.359;1" values="none;inline;none;none"/></g><g display="none"><path fill="none" stroke="#F90" stroke-width="5" stroke-linecap="round" stroke-linejoin="round" d="M46.95 96.15q-.7-10.6 0-21.2"/><animate attributeName="display" repeatCount="indefinite" dur="1.625s" keyTimes="0;0.308;0.333;1" values="none;inline;none;none"/></g><g display="none"><path fill="none" stroke="#F90" stroke-width="5" stroke-linecap="round" stroke-linejoin="round" d="M46.9 97.95q-2.2-10.15 0-20.35"/><animate attributeName="display" repeatCount="indefinite" dur="1.625s" keyTimes="0;0.282;0.308;1" values="none;inline;none;none"/></g><g display="none"><path fill="none" stroke="#F90" stroke-width="5" stroke-linecap="round" stroke-linejoin="round" d="M46.85 80.25q-3.7 9.8 0 19.55"/><animate attributeName="display" repeatCount="indefinite" dur="1.625s" keyTimes="0;0.256;0.282;0.667;0.692;1" values="none;inline;none;inline;none;none"/></g><g display="none"><path fill="none" stroke="#F90" stroke-width="5" stroke-linecap="round" stroke-linejoin="round" d="M46.85 99.8q-3.1-9.75 0-19.55"/><animate attributeName="display" repeatCount="indefinite" dur="1.625s" keyTimes="0;0.231;0.256;1" values="none;inline;none;none"/></g><g display="none"><path fill="none" stroke="#F90" stroke-width="5" stroke-linecap="round" stroke-linejoin="round" d="M46.85 99.8q-2.45-9.75 0-19.55"/><animate attributeName="display" repeatCount="indefinite" dur="1.625s" keyTimes="0;0.205;0.231;1" values="none;inline;none;none"/></g><g display="none"><path fill="none" stroke="#F90" stroke-width="5" stroke-linecap="round" stroke-linejoin="round" d="M46.85 99.8q-1.85-9.75 0-19.55"/><animate attributeName="display" repeatCount="indefinite" dur="1.625s" keyTimes="0;0.179;0.205;0.692;0.718;1" values="none;inline;none;inline;none;none"/></g><g display="none"><path fill="none" stroke="#F90" stroke-width="5" stroke-linecap="round" stroke-linejoin="round" d="M46.85 99.8q-1.25-9.75 0-19.55"/><animate attributeName="display" repeatCount="indefinite" dur="1.625s" keyTimes="0;0.154;0.179;1" values="none;inline;none;none"/></g><g display="none"><path fill="none" stroke="#F90" stroke-width="5" stroke-linecap="round" stroke-linejoin="round" d="M46.85 99.8q-.6-9.75 0-19.55"/><animate attributeName="display" repeatCount="indefinite" dur="1.625s" keyTimes="0;0.128;0.154;1" values="none;inline;none;none"/></g><g><path fill="none" stroke="#F90" stroke-width="5" stroke-linecap="round" stroke-linejoin="round" d="M46.85 80.25V99.8"/><animate attributeName="display" repeatCount="indefinite" dur="1.625s" keyTimes="0;0.128;0.718;1" values="inline;none;inline;inline"/></g><g display="none"><path fill="none" stroke="#F90" stroke-width="5" stroke-linecap="round" stroke-linejoin="round" d="M74.5 79.7q4.2 9.6.45 18.65"/><animate attributeName="display" repeatCount="indefinite" dur="1.625s" keyTimes="0;0.641;0.667;1" values="none;inline;none;none"/></g><g display="none"><path fill="none" stroke="#F90" stroke-width="5" stroke-linecap="round" stroke-linejoin="round" d="M74 76.8q2.75 10.2.4 19.65"/><animate attributeName="display" repeatCount="indefinite" dur="1.625s" keyTimes="0;0.615;0.641;1" values="none;inline;none;none"/></g><g display="none"><path fill="none" stroke="#F90" stroke-width="5" stroke-linecap="round" stroke-linejoin="round" d="M73.45 73.9q1.3 10.85.4 20.65"/><animate attributeName="display" repeatCount="indefinite" dur="1.625s" keyTimes="0;0.59;0.615;1" values="none;inline;none;none"/></g><g display="none"><path fill="none" stroke="#F90" stroke-width="5" stroke-linecap="round" stroke-linejoin="round" d="M72.95 71q-.15 11.45.35 21.6"/><animate attributeName="display" repeatCount="indefinite" dur="1.625s" keyTimes="0;0.564;0.59;1" values="none;inline;none;none"/></g><g display="none"><path fill="none" stroke="#F90" stroke-width="5" stroke-linecap="round" stroke-linejoin="round" d="M72.8 66.1q2.15 10.55 2.4 20.85"/><animate attributeName="display" repeatCount="indefinite" dur="1.625s" keyTimes="0;0.513;0.538;1" values="none;inline;none;none"/></g><g display="none"><path fill="none" stroke="#F90" stroke-width="5" stroke-linecap="round" stroke-linejoin="round" d="M73.15 64.1q5.95 9 4.5 19.05"/><animate attributeName="display" repeatCount="indefinite" dur="1.625s" keyTimes="0;0.487;0.513;1" values="none;inline;none;none"/></g><g display="none"><path fill="none" stroke="#F90" stroke-width="5" stroke-linecap="round" stroke-linejoin="round" d="M73.45 64.65q5 9.55 2.45 19.3"/><animate attributeName="display" repeatCount="indefinite" dur="1.625s" keyTimes="0;0.462;0.487;1" values="none;inline;none;none"/></g><g display="none"><path fill="none" stroke="#F90" stroke-width="5" stroke-linecap="round" stroke-linejoin="round" d="M73.75 65.15q4 10.1.4 19.55"/><animate attributeName="display" repeatCount="indefinite" dur="1.625s" keyTimes="0;0.436;0.462;1" values="none;inline;none;none"/></g><g display="none"><path fill="none" stroke="#F90" stroke-width="5" stroke-linecap="round" stroke-linejoin="round" d="M73.3 66.15q2.15 10.75.4 20.55"/><animate attributeName="display" repeatCount="indefinite" dur="1.625s" keyTimes="0;0.41;0.436;1" values="none;inline;none;none"/></g><g display="none"><path fill="none" stroke="#F90" stroke-width="5" stroke-linecap="round" stroke-linejoin="round" d="M72.85 67.1q.25 11.4.35 21.6"/><animate attributeName="display" repeatCount="indefinite" dur="1.625s" keyTimes="0;0.385;0.41;1" values="none;inline;none;none"/></g><g display="none"><path fill="none" stroke="#F90" stroke-width="5" stroke-linecap="round" stroke-linejoin="round" d="M72.4 68.1q-1.6 12.05.35 22.6"/><animate attributeName="display" repeatCount="indefinite" dur="1.625s" keyTimes="0;0.359;0.385;0.538;0.564;1" values="none;inline;none;inline;none;none"/></g><g display="none"><path fill="none" stroke="#F90" stroke-width="5" stroke-linecap="round" stroke-linejoin="round" d="M72.75 70.75q-.2 11.6.35 21.85"/><animate attributeName="display" repeatCount="indefinite" dur="1.625s" keyTimes="0;0.333;0.359;1" values="none;inline;none;none"/></g><g display="none"><path fill="none" stroke="#F90" stroke-width="5" stroke-linecap="round" stroke-linejoin="round" d="M73.1 73.45q1.2 11.05.35 21.05"/><animate attributeName="display" repeatCount="indefinite" dur="1.625s" keyTimes="0;0.308;0.333;1" values="none;inline;none;none"/></g><g display="none"><path fill="none" stroke="#F90" stroke-width="5" stroke-linecap="round" stroke-linejoin="round" d="M73.4 76.1q2.6 10.6.4 20.3"/><animate attributeName="display" repeatCount="indefinite" dur="1.625s" keyTimes="0;0.282;0.308;1" values="none;inline;none;none"/></g><g display="none"><path fill="none" stroke="#F90" stroke-width="5" stroke-linecap="round" stroke-linejoin="round" d="M73.75 78.75q4 10.1.4 19.55"/><animate attributeName="display" repeatCount="indefinite" dur="1.625s" keyTimes="0;0.256;0.282;0.667;0.692;1" values="none;inline;none;inline;none;none"/></g><g display="none"><path fill="none" stroke="#F90" stroke-width="5" stroke-linecap="round" stroke-linejoin="round" d="M73.75 78.75q3.35 10.05.4 19.55"/><animate attributeName="display" repeatCount="indefinite" dur="1.625s" keyTimes="0;0.231;0.256;1" values="none;inline;none;none"/></g><g display="none"><path fill="none" stroke="#F90" stroke-width="5" stroke-linecap="round" stroke-linejoin="round" d="M73.75 78.75q2.75 10 .4 19.55"/><animate attributeName="display" repeatCount="indefinite" dur="1.625s" keyTimes="0;0.205;0.231;1" values="none;inline;none;none"/></g><g display="none"><path fill="none" stroke="#F90" stroke-width="5" stroke-linecap="round" stroke-linejoin="round" d="M73.75 78.75q2.1 9.95.4 19.55"/><animate attributeName="display" repeatCount="indefinite" dur="1.625s" keyTimes="0;0.179;0.205;0.692;0.718;1" values="none;inline;none;inline;none;none"/></g><g display="none"><path fill="none" stroke="#F90" stroke-width="5" stroke-linecap="round" stroke-linejoin="round" d="M73.75 78.75q1.45 9.9.4 19.55"/><animate attributeName="display" repeatCount="indefinite" dur="1.625s" keyTimes="0;0.154;0.179;1" values="none;inline;none;none"/></g><g display="none"><path fill="none" stroke="#F90" stroke-width="5" stroke-linecap="round" stroke-linejoin="round" d="M73.75 78.75q.85 9.85.4 19.55"/><animate attributeName="display" repeatCount="indefinite" dur="1.625s" keyTimes="0;0.128;0.154;1" values="none;inline;none;none"/></g><g><path fill="none" stroke="#F90" stroke-width="5" stroke-linecap="round" stroke-linejoin="round" d="M73.75 78.75l.4 19.55"/><animate attributeName="display" repeatCount="indefinite" dur="1.625s" keyTimes="0;0.128;0.718;1" values="inline;none;inline;inline"/></g><g display="none"><path fill="none" stroke="#F90" stroke-width="5" stroke-linecap="round" stroke-linejoin="round" d="M25.9 86.25q-3.05 4.4-5.15 8.8m5.15-8.8q3-4.5 5.45-6.5"/><animate attributeName="display" repeatCount="indefinite" dur="1.625s" keyTimes="0;0.641;0.667;1" values="none;inline;none;none"/></g><g display="none"><path fill="none" stroke="#F90" stroke-width="5" stroke-linecap="round" stroke-linejoin="round" d="M20 91.5q2.55-3.45 6.1-7.6 3.5-4.3 6.15-6.75"/><animate attributeName="display" repeatCount="indefinite" dur="1.625s" keyTimes="0;0.615;0.641;1" values="none;inline;none;none"/></g><g display="none"><path fill="none" stroke="#F90" stroke-width="5" stroke-linecap="round" stroke-linejoin="round" d="M19.25 87.9q3.05-2.45 7.05-6.4 4-4 6.85-6.95"/><animate attributeName="display" repeatCount="indefinite" dur="1.625s" keyTimes="0;0.59;0.615;1" values="none;inline;none;none"/></g><g display="none"><path fill="none" stroke="#F90" stroke-width="5" stroke-linecap="round" stroke-linejoin="round" d="M18.45 84.35q3.55-1.5 8-5.2 4.5-3.8 7.6-7.25"/><animate attributeName="display" repeatCount="indefinite" dur="1.625s" keyTimes="0;0.564;0.59;1" values="none;inline;none;none"/></g><g display="none"><path fill="none" stroke="#F90" stroke-width="5" stroke-linecap="round" stroke-linejoin="round" d="M26.65 76.75q-4.95 3.5-8.95 4m8.95-4q5-3.55 8.3-7.45"/><animate attributeName="display" repeatCount="indefinite" dur="1.625s" keyTimes="0;0.538;0.564;1" values="none;inline;none;none"/></g><g display="none"><path fill="none" stroke="#F90" stroke-width="5" stroke-linecap="round" stroke-linejoin="round" d="M19.1 78.85q2.45-2.35 6.7-6.05 4.45-3.9 8.5-6.45"/><animate attributeName="display" repeatCount="indefinite" dur="1.625s" keyTimes="0;0.513;0.538;1" values="none;inline;none;none"/></g><g display="none"><path fill="none" stroke="#F90" stroke-width="5" stroke-linecap="round" stroke-linejoin="round" d="M24.95 68.85q-3.55 3.85-4.5 8.05m4.5-8.05q3.9-4.3 8.65-5.45"/><animate attributeName="display" repeatCount="indefinite" dur="1.625s" keyTimes="0;0.487;0.513;1" values="none;inline;none;none"/></g><g display="none"><path fill="none" stroke="#F90" stroke-width="5" stroke-linecap="round" stroke-linejoin="round" d="M21.1 78.9q.7-4.25 4-8.35 3.6-4.5 8.25-5.95"/><animate attributeName="display" repeatCount="indefinite" dur="1.625s" keyTimes="0;0.462;0.487;1" values="none;inline;none;none"/></g><g display="none"><path fill="none" stroke="#F90" stroke-width="5" stroke-linecap="round" stroke-linejoin="round" d="M25.2 72.25q-3 4.3-3.45 8.6m3.45-8.6q3.3-4.75 7.85-6.5"/><animate attributeName="display" repeatCount="indefinite" dur="1.625s" keyTimes="0;0.436;0.462;1" values="none;inline;none;none"/></g><g display="none"><path fill="none" stroke="#F90" stroke-width="5" stroke-linecap="round" stroke-linejoin="round" d="M22.2 82.65q1.45-3.55 4.45-8.15 3.2-4.95 6.7-7.75"/><animate attributeName="display" repeatCount="indefinite" dur="1.625s" keyTimes="0;0.41;0.436;1" values="none;inline;none;none"/></g><g display="none"><path fill="none" stroke="#F90" stroke-width="5" stroke-linecap="round" stroke-linejoin="round" d="M22.65 84.5q2.4-2.85 5.45-7.8 3.1-5.1 5.55-9"/><animate attributeName="display" repeatCount="indefinite" dur="1.625s" keyTimes="0;0.385;0.41;1" values="none;inline;none;none"/></g><g display="none"><path fill="none" stroke="#F90" stroke-width="5" stroke-linecap="round" stroke-linejoin="round" d="M29.55 78.95Q26.5 84.2 23.1 86.3m6.45-7.35q3-5.3 4.4-10.25"/><animate attributeName="display" repeatCount="indefinite" dur="1.625s" keyTimes="0;0.359;0.385;1" values="none;inline;none;none"/></g><g display="none"><path fill="none" stroke="#F90" stroke-width="5" stroke-linecap="round" stroke-linejoin="round" d="M22.75 88.35q2.7-2.65 5.7-7.65 3.1-5.2 5.3-9.35"/><animate attributeName="display" repeatCount="indefinite" dur="1.625s" keyTimes="0;0.333;0.359;1" values="none;inline;none;none"/></g><g display="none"><path fill="none" stroke="#F90" stroke-width="5" stroke-linecap="round" stroke-linejoin="round" d="M22.45 90.4q1.9-3.2 4.95-8 3.15-5 6.1-8.35"/><animate attributeName="display" repeatCount="indefinite" dur="1.625s" keyTimes="0;0.308;0.333;1" values="none;inline;none;none"/></g><g display="none"><path fill="none" stroke="#F90" stroke-width="5" stroke-linecap="round" stroke-linejoin="round" d="M22.1 92.4q1.2-3.75 4.2-8.25 3.2-4.9 7-7.45"/><animate attributeName="display" repeatCount="indefinite" dur="1.625s" keyTimes="0;0.282;0.308;1" values="none;inline;none;none"/></g><g display="none"><path fill="none" stroke="#F90" stroke-width="5" stroke-linecap="round" stroke-linejoin="round" d="M25.2 85.85q-3 4.3-3.45 8.6m3.45-8.6q3.3-4.75 7.85-6.5"/><animate attributeName="display" repeatCount="indefinite" dur="1.625s" keyTimes="0;0.256;0.282;0.667;0.692;1" values="none;inline;none;inline;none;none"/></g><g display="none"><path fill="none" stroke="#F90" stroke-width="5" stroke-linecap="round" stroke-linejoin="round" d="M22.75 94.3q.3-4.3 3.1-8.65 3.1-4.85 7.5-6.75"/><animate attributeName="display" repeatCount="indefinite" dur="1.625s" keyTimes="0;0.231;0.256;1" values="none;inline;none;none"/></g><g display="none"><path fill="none" stroke="#F90" stroke-width="5" stroke-linecap="round" stroke-linejoin="round" d="M23.75 94.2q.15-4.3 2.75-8.75 2.9-4.95 7.15-6.95"/><animate attributeName="display" repeatCount="indefinite" dur="1.625s" keyTimes="0;0.205;0.231;1" values="none;inline;none;none"/></g><g display="none"><path fill="none" stroke="#F90" stroke-width="5" stroke-linecap="round" stroke-linejoin="round" d="M24.75 94.05q0-4.25 2.45-8.8 2.65-5.05 6.8-7.2"/><animate attributeName="display" repeatCount="indefinite" dur="1.625s" keyTimes="0;0.179;0.205;0.692;0.718;1" values="none;inline;none;inline;none;none"/></g><g display="none"><path fill="none" stroke="#F90" stroke-width="5" stroke-linecap="round" stroke-linejoin="round" d="M25.75 93.9q-.2-4.25 2.1-8.9 2.4-5.1 6.45-7.4"/><animate attributeName="display" repeatCount="indefinite" dur="1.625s" keyTimes="0;0.154;0.179;1" values="none;inline;none;none"/></g><g display="none"><path fill="none" stroke="#F90" stroke-width="5" stroke-linecap="round" stroke-linejoin="round" d="M26.75 93.8q-.35-4.25 1.75-9 2.2-5.2 6.1-7.6"/><animate attributeName="display" repeatCount="indefinite" dur="1.625s" keyTimes="0;0.128;0.154;1" values="none;inline;none;none"/></g><g><path fill="none" stroke="#F90" stroke-width="5" stroke-linecap="round" stroke-linejoin="round" d="M29.15 84.6q-1.9 4.8-1.4 9.05m1.4-9.05q2-5.3 5.75-7.85"/><animate attributeName="display" repeatCount="indefinite" dur="1.625s" keyTimes="0;0.128;0.718;1" values="inline;none;inline;inline"/></g><g display="none"><path fill="none" stroke="#F90" stroke-width="5" stroke-linecap="round" stroke-linejoin="round" d="M94.3 82.3q3.5 4.3 5.75 8.35M94.3 82.3q-3.55-4.35-6.9-6.05"/><animate attributeName="display" repeatCount="indefinite" dur="1.625s" keyTimes="0;0.641;0.667;1" values="none;inline;none;none"/></g><g display="none"><path fill="none" stroke="#F90" stroke-width="5" stroke-linecap="round" stroke-linejoin="round" d="M86.4 73.55q3.15 2.1 7.05 6.4 3.9 4.2 6.85 7.7"/><animate attributeName="display" repeatCount="indefinite" dur="1.625s" keyTimes="0;0.615;0.641;1" values="none;inline;none;none"/></g><g display="none"><path fill="none" stroke="#F90" stroke-width="5" stroke-linecap="round" stroke-linejoin="round" d="M85.4 70.85q2.95 2.55 7.25 6.7 4.25 4.2 7.85 7.05"/><animate attributeName="display" repeatCount="indefinite" dur="1.625s" keyTimes="0;0.59;0.615;1" values="none;inline;none;none"/></g><g display="none"><path fill="none" stroke="#F90" stroke-width="5" stroke-linecap="round" stroke-linejoin="round" d="M84.35 68.1q2.8 3 7.45 7.1t8.95 6.4"/><animate attributeName="display" repeatCount="indefinite" dur="1.625s" keyTimes="0;0.564;0.59;1" values="none;inline;none;none"/></g><g display="none"><path fill="none" stroke="#F90" stroke-width="5" stroke-linecap="round" stroke-linejoin="round" d="M90.95 72.8q5.05 4.05 10 5.75m-10-5.75q-5-4-7.6-7.4"/><animate attributeName="display" repeatCount="indefinite" dur="1.625s" keyTimes="0;0.538;0.564;1" values="none;inline;none;none"/></g><g display="none"><path fill="none" stroke="#F90" stroke-width="5" stroke-linecap="round" stroke-linejoin="round" d="M84.55 62.35q3.8 2.35 8.25 6.55 4.35 4 7.25 6.95"/><animate attributeName="display" repeatCount="indefinite" dur="1.625s" keyTimes="0;0.513;0.538;1" values="none;inline;none;none"/></g><g display="none"><path fill="none" stroke="#F90" stroke-width="5" stroke-linecap="round" stroke-linejoin="round" d="M94.65 64.95q3.6 4 4.5 8.2m-4.5-8.2q-3.95-4.4-8.95-5.7"/><animate attributeName="display" repeatCount="indefinite" dur="1.625s" keyTimes="0;0.487;0.513;1" values="none;inline;none;none"/></g><g display="none"><path fill="none" stroke="#F90" stroke-width="5" stroke-linecap="round" stroke-linejoin="round" d="M85.9 60.4q4.9 1.55 8.65 6.1 3.4 4.15 4.1 8.4"/><animate attributeName="display" repeatCount="indefinite" dur="1.625s" keyTimes="0;0.462;0.487;1" values="none;inline;none;none"/></g><g display="none"><path fill="none" stroke="#F90" stroke-width="5" stroke-linecap="round" stroke-linejoin="round" d="M94.45 68.05q3.2 4.3 3.7 8.6m-3.7-8.6q-3.55-4.75-8.4-6.5"/><animate attributeName="display" repeatCount="indefinite" dur="1.625s" keyTimes="0;0.436;0.462;1" values="none;inline;none;none"/></g><g display="none"><path fill="none" stroke="#F90" stroke-width="5" stroke-linecap="round" stroke-linejoin="round" d="M85.35 62.5q3.65 2.55 7.15 7.55 3.2 4.7 4.9 8.65"/><animate attributeName="display" repeatCount="indefinite" dur="1.625s" keyTimes="0;0.41;0.436;1" values="none;inline;none;none"/></g><g display="none"><path fill="none" stroke="#F90" stroke-width="5" stroke-linecap="round" stroke-linejoin="round" d="M84.7 63.45q2.45 3.3 5.8 8.55 3.3 5.15 6.15 8.8"/><animate attributeName="display" repeatCount="indefinite" dur="1.625s" keyTimes="0;0.385;0.41;1" values="none;inline;none;none"/></g><g display="none"><path fill="none" stroke="#F90" stroke-width="5" stroke-linecap="round" stroke-linejoin="round" d="M88.55 74q3.3 5.55 7.35 8.85M88.55 74q-3.3-5.5-4.55-9.6"/><animate attributeName="display" repeatCount="indefinite" dur="1.625s" keyTimes="0;0.359;0.385;1" values="none;inline;none;none"/></g><g display="none"><path fill="none" stroke="#F90" stroke-width="5" stroke-linecap="round" stroke-linejoin="round" d="M84.5 67.1q2.15 3.5 5.55 8.8 3.25 5.25 6.4 8.8"/><animate attributeName="display" repeatCount="indefinite" dur="1.625s" keyTimes="0;0.333;0.359;1" values="none;inline;none;none"/></g><g display="none"><path fill="none" stroke="#F90" stroke-width="5" stroke-linecap="round" stroke-linejoin="round" d="M85.05 69.8q3.05 2.9 6.45 8.05 3.25 4.9 5.55 8.7"/><animate attributeName="display" repeatCount="indefinite" dur="1.625s" keyTimes="0;0.308;0.333;1" values="none;inline;none;none"/></g><g display="none"><path fill="none" stroke="#F90" stroke-width="5" stroke-linecap="round" stroke-linejoin="round" d="M85.55 72.45q3.95 2.35 7.45 7.3 3.2 4.6 4.6 8.65"/><animate attributeName="display" repeatCount="indefinite" dur="1.625s" keyTimes="0;0.282;0.308;1" values="none;inline;none;none"/></g><g display="none"><path fill="none" stroke="#F90" stroke-width="5" stroke-linecap="round" stroke-linejoin="round" d="M94.45 81.65q3.2 4.3 3.7 8.6m-3.7-8.6q-3.55-4.75-8.4-6.5"/><animate attributeName="display" repeatCount="indefinite" dur="1.625s" keyTimes="0;0.256;0.282;0.667;0.692;1" values="none;inline;none;inline;none;none"/></g><g display="none"><path fill="none" stroke="#F90" stroke-width="5" stroke-linecap="round" stroke-linejoin="round" d="M85.8 74.65q4.7 1.9 7.95 6.75 3 4.4 3.35 8.7"/><animate attributeName="display" repeatCount="indefinite" dur="1.625s" keyTimes="0;0.231;0.256;1" values="none;inline;none;none"/></g><g display="none"><path fill="none" stroke="#F90" stroke-width="5" stroke-linecap="round" stroke-linejoin="round" d="M85.6 74.2q4.45 2.05 7.5 7 2.75 4.45 2.95 8.75"/><animate attributeName="display" repeatCount="indefinite" dur="1.625s" keyTimes="0;0.205;0.231;1" values="none;inline;none;none"/></g><g display="none"><path fill="none" stroke="#F90" stroke-width="5" stroke-linecap="round" stroke-linejoin="round" d="M85.35 73.75q4.3 2.2 7.1 7.2Q95 85.5 95 89.8"/><animate attributeName="display" repeatCount="indefinite" dur="1.625s" keyTimes="0;0.179;0.205;0.692;0.718;1" values="none;inline;none;inline;none;none"/></g><g display="none"><path fill="none" stroke="#F90" stroke-width="5" stroke-linecap="round" stroke-linejoin="round" d="M85.1 73.25q4.15 2.35 6.65 7.45 2.35 4.6 2.15 8.9"/><animate attributeName="display" repeatCount="indefinite" dur="1.625s" keyTimes="0;0.154;0.179;1" values="none;inline;none;none"/></g><g display="none"><path fill="none" stroke="#F90" stroke-width="5" stroke-linecap="round" stroke-linejoin="round" d="M84.9 72.8q3.9 2.5 6.2 7.7 2.1 4.65 1.75 8.95"/><animate attributeName="display" repeatCount="indefinite" dur="1.625s" keyTimes="0;0.128;0.154;1" values="none;inline;none;none"/></g><g><path fill="none" stroke="#F90" stroke-width="5" stroke-linecap="round" stroke-linejoin="round" d="M90.4 80.25q1.9 4.75 1.4 9.05m-1.4-9.05q-2-5.3-5.75-7.95"/><animate attributeName="display" repeatCount="indefinite" dur="1.625s" keyTimes="0;0.128;0.718;1" values="inline;none;inline;inline"/></g><g transform="translate(27.3 27.1)"><animateTransform attributeName="transform" additive="replace" type="translate" repeatCount="indefinite" dur="1.625s" keyTimes="0;0.103;0.128;0.154;0.179;0.205;0.231;0.256;0.282;0.308;0.333;0.359;0.385;0.41;0.436;0.462;0.487;0.513;0.538;0.564;0.59;0.615;0.641;0.667;0.692;0.718;1" values="58.8,56.65;58.8,56.65;58.8,57.1;58.8,57.6;58.8,58.05;58.8,58.5;58.8,59;58.8,59.45;58.661,56.651;58.574,53.851;58.386,51.052;58.248,48.201;58.432,47.485;58.615,46.717;58.8,45.85;58.8,45.25;58.8,44.65;58.574,46.451;58.248,48.201;58.346,51.519;58.545,54.735;58.694,58.002;58.84,61.269;58.8,59.45;58.8,58.05;58.8,56.65;58.8,56.65" calcMode="discrete"/><animateTransform attributeName="transform" additive="sum" type="scale" repeatCount="indefinite" dur="1.625s" keyTimes="0;0.256;0.282;0.308;0.333;0.359;0.385;0.41;0.436;0.487;0.513;0.538;0.564;0.59;0.615;0.641;0.667;1" values="1,1;1,1;0.986,1.007;0.972,1.014;0.958,1.02;0.944,1.027;0.963,1.018;0.981,1.009;1,1;1,1;0.972,1.014;0.944,1.027;0.97,1.009;0.995,0.991;1.02,0.973;1.046,0.955;1,1;1,1" calcMode="discrete"/><animateTransform attributeName="transform" additive="sum" type="translate" repeatCount="indefinite" dur="1.625s" keyTimes="0;0.256;0.282;0.308;0.333;0.359;0.385;0.41;0.436;0.513;0.538;0.564;0.615;0.641;0.667;1" values="-31.5,-29.55;-31.5,-29.55;-31.55,-29.55;-31.5,-29.55;-31.5,-29.55;-31.5,-29.5;-31.5,-29.55;-31.55,-29.55;-31.5,-29.55;-31.5,-29.55;-31.5,-29.5;-31.5,-29.55;-31.5,-29.55;-31.45,-29.55;-31.5,-29.55;-31.5,-29.55" calcMode="discrete"/><path fill="none" stroke="#FC3" stroke-width="3" stroke-linecap="round" stroke-linejoin="round" d="M28.85 3.35L28.7 0m-3.5 2l1.55 2.05M32.5 1.8l-1.55 2.05"/><path fill="#FFB933" d="M60.7 37.2q-.15-.25-.3-.55L54.15 29l-7.7-9.4-4.65-5.7-24.95 2-3.8 5.95-11.25 18q-.1.1-.15.25-3.6 8.5.55 14.6 3.45 5.05 10.5 5.95l42.4-3.6q4.35-2 6.45-6.1 3.25-6.2-.85-13.75"/><path fill="#F90" d="M37.15 8.25q-4.2-5.45-8.4-5.15-1.4.1-2.7.8-.75.4-1.45 1-1.9 1.5-3.65 4.45l-4.1 6.55 24.95-2-4.65-5.65"/><path fill="#FFA702" d="M14.75 44.35q-1.3 1.65-1.1 3.75.15 2.1 1.7 3.45t3.6 1.1q2-.2 3.35-1.85 1.3-1.65 1.15-3.75-.2-2.1-1.75-3.45-1.55-1.3-3.55-1.1-2 .25-3.4 1.85m40-3.55q-1.55-1.3-3.55-1.1-2 .25-3.4 1.85-1.3 1.65-1.1 3.75.15 2.1 1.7 3.45t3.6 1.1q2-.2 3.35-1.85 1.3-1.65 1.15-3.75-.2-2.1-1.75-3.45"/></g><g display="none"><use xlink:href="#a" transform="matrix(.963 0 0 1.018 49.35 44.7)"><animateTransform attributeName="transform" additive="replace" type="translate" repeatCount="indefinite" dur="1.625s" keyTimes="0;0.385;0.41;0.436;0.462;0.487;0.513;0.538;0.564;0.59;0.615;0.641;0.667;0.692;0.718;1" values="62.157,51.318;62.157,51.318;62.453,50.509;62.7,49.65;62.7,49.05;62.7,48.45;62.33,50.339;61.91,52.125;62.149,55.409;62.385,58.592;62.722,61.676;62.959,64.905;62.7,63.25;62.7,61.85;62.7,60.45;62.7,60.45" calcMode="discrete"/><animateTransform attributeName="transform" additive="sum" type="scale" repeatCount="indefinite" dur="1.625s" keyTimes="0;0.385;0.41;0.436;0.487;0.513;0.538;0.564;0.59;0.615;0.641;0.667;1" values="0.963,1.018;0.963,1.018;0.981,1.009;1,1;1,1;0.972,1.014;0.944,1.027;0.97,1.009;0.995,0.991;1.02,0.973;1.046,0.955;1,1;1,1" calcMode="discrete"/><animateTransform attributeName="transform" additive="sum" type="translate" repeatCount="indefinite" dur="1.625s" keyTimes="0;0.487;0.513;0.538;0.564;0.59;0.615;0.641;0.667;1" values="-13.3,-6.5;-13.3,-6.5;-13.3,-6.55;-13.3,-6.45;-13.25,-6.5;-13.25,-6.5;-13.3,-6.45;-13.3,-6.55;-13.3,-6.5;-13.3,-6.5" calcMode="discrete"/></use><animate attributeName="display" repeatCount="indefinite" dur="1.625s" keyTimes="0;0.385;1" values="none;inline;inline"/></g><g display="none"><g transform="matrix(.986 0 0 1.007 49.35 53.95)"><animateTransform attributeName="transform" additive="replace" type="translate" repeatCount="indefinite" dur="1.625s" keyTimes="0;0.282;0.308;0.333;0.359;1" values="62.514,60.494;62.514,60.494;62.279,57.767;62.043,54.9;61.863,52.213;61.863,52.213" calcMode="discrete"/><animateTransform attributeName="transform" additive="sum" type="scale" repeatCount="indefinite" dur="1.625s" keyTimes="0;0.282;0.308;0.333;0.359;1" values="0.986,1.007;0.986,1.007;0.972,0.903;0.958,0.8;0.944,0.697;0.944,0.697" calcMode="discrete"/><animateTransform attributeName="transform" additive="sum" type="translate" repeatCount="indefinite" dur="1.625s" keyTimes="0;0.282;0.308;0.333;0.359;1" values="-13.35,-6.5;-13.35,-6.5;-13.35,-6.55;-13.35,-6.5;-13.25,-6.55;-13.25,-6.55" calcMode="discrete"/><path fill="none" stroke="#0E2D38" stroke-width="2" stroke-linecap="round" stroke-linejoin="round" d="M10.1 7.4l-6 3.5m6-3.5L3.85 3.1M17.3 6.75l6.55 2.35M17.3 6.75l5.35-5.4"/></g><animate attributeName="display" repeatCount="indefinite" dur="1.625s" keyTimes="0;0.282;0.385;1" values="none;inline;none;none"/></g><g><use xlink:href="#a" transform="translate(49.4 53.95)"><animateTransform attributeName="transform" additive="replace" type="translate" repeatCount="indefinite" dur="1.625s" keyTimes="0;0.103;0.128;0.154;0.179;0.205;0.231;0.256;1" values="62.7,60.45;62.7,60.45;62.7,60.9;62.7,61.4;62.7,61.85;62.7,62.35;62.7,62.8;62.7,63.267;62.7,63.267" calcMode="discrete"/><animateTransform attributeName="transform" additive="sum" type="scale" repeatCount="indefinite" dur="1.625s" keyTimes="0;0.231;0.256;1" values="1,1;1,1;1,0.651;1,0.651" calcMode="discrete"/><animateTransform attributeName="transform" additive="sum" type="translate" repeatCount="indefinite" dur="1.625s" keyTimes="0;0.231;0.256;1" values="-13.3,-6.5;-13.3,-6.5;-13.3,-6.55;-13.3,-6.55" calcMode="discrete"/></use><animate attributeName="display" repeatCount="indefinite" dur="1.625s" keyTimes="0;0.282;1" values="inline;none;none"/></g><g transform="translate(58.35 69.8)"><animateTransform attributeName="transform" additive="replace" type="translate" repeatCount="indefinite" dur="1.625s" keyTimes="0;0.103;0.128;0.154;0.179;0.205;0.231;0.256;0.282;0.308;0.333;0.359;0.385;0.41;0.436;0.462;0.487;0.513;0.538;0.564;0.59;0.615;0.641;0.667;0.692;0.718;1" values="63.25,72.6;63.25,72.6;63.25,73.05;63.25,73.55;63.25,74;63.25,74.45;63.25,74.95;63.25,75.4;63.082,72.669;62.864,70.037;62.693,67.357;62.477,64.677;62.67,63.702;63.009,62.776;63.25,61.8;63.25,61.2;63.25,60.6;62.864,62.637;62.477,64.677;62.702,67.626;62.976,70.624;63.25,73.573;63.472,76.474;63.25,75.4;63.25,74;63.25,72.6;63.25,72.6" calcMode="discrete"/><animateTransform attributeName="transform" additive="sum" type="scale" repeatCount="indefinite" dur="1.625s" keyTimes="0;0.256;0.282;0.308;0.333;0.359;0.385;0.41;0.436;0.487;0.513;0.538;0.564;0.59;0.615;0.641;0.667;1" values="1,1;1,1;0.986,1.007;0.972,1.014;0.958,1.02;0.944,1.027;0.963,1.018;0.981,1.009;1,1;1,1;0.972,1.014;0.944,1.027;0.97,1.009;0.995,0.991;1.02,0.973;1.046,0.955;1,1;1,1" calcMode="discrete"/><animateTransform attributeName="transform" additive="sum" type="translate" repeatCount="indefinite" dur="1.625s" keyTimes="0;0.256;0.282;0.308;0.333;0.359;0.385;0.41;0.436;0.487;0.513;0.538;0.564;0.59;0.615;0.641;0.667;1" values="-4.9,-2.8;-4.9,-2.8;-4.9,-2.75;-4.9,-2.75;-4.95,-2.8;-4.9,-2.85;-4.85,-2.85;-4.9,-2.85;-4.9,-2.8;-4.9,-2.8;-4.9,-2.75;-4.9,-2.85;-4.9,-2.85;-4.85,-2.85;-4.9,-2.85;-4.85,-2.8;-4.9,-2.8;-4.9,-2.8" calcMode="discrete"/><path fill="#0E2D38" stroke="#0E2D38" stroke-width="2" stroke-linecap="round" stroke-linejoin="round" d="M9.8 0L0 .8q.2 2.15 1.65 3.55 1.6 1.45 3.65 1.3 2.05-.15 3.3-1.9Q9.85 2.15 9.8 0"/></g></svg>