<svg xmlns:xlink="http://www.w3.org/1999/xlink" baseProfile="basic" width="120" height="110" xmlns="http://www.w3.org/2000/svg"><defs><symbol id="a" overflow="visible"><path fill="#FC0" d="M13.4 9.5q.45-.15.75-.55t.3-.9q0-.5-.3-.9t-.75-.55Q9 5.3 8.7 1.4 8.65.85 8.25.45q-.4-.45-1-.45t-1 .35q-.45.4-.5.95-.65 4.35-4.6 5.3-.5.1-.8.55-.35.4-.35.9T.35 9q.3.4.8.5 3.95 1 4.6 5.4.05.55.5.95.4.35 1 .35t1-.4q.4-.45.45-1 .3-4 4.7-5.3"/></symbol></defs><g transform="matrix(.104 0 0 .104 53.05 60.9)"><animateTransform attributeName="transform" additive="replace" type="translate" dur="0.583s" keyTimes="0;0.071;0.143;0.214;0.286;0.357;0.429;0.5;0.572;1" values="55.95,63.8;56.991,62.406;58.08,61.057;59.17,59.658;60.26,58.359;61.299,56.889;61.34,56.927;61.267,56.967;61.3,56.9;61.3,56.9" calcMode="discrete" fill="freeze"/><animateTransform attributeName="transform" additive="sum" type="scale" dur="0.583s" keyTimes="0;0.071;0.143;0.214;0.286;0.357;0.429;0.5;0.572;1" values="0.104,0.104;0.323,0.323;0.542,0.542;0.761,0.761;0.981,0.981;1.2,1.2;1.133,1.133;1.067,1.067;1,1;1,1" calcMode="discrete" fill="freeze"/><animateTransform attributeName="transform" additive="sum" type="translate" dur="0.583s" keyTimes="0;0.071;0.143;0.286;0.357;0.429;0.5;0.572;1" values="-28,-28;-27.85,-28.05;-28,-28.05;-28,-28.05;-28,-27.95;-28.05,-27.95;-28,-28;-28,-27.95;-28,-27.95" calcMode="discrete" fill="freeze"/><path fill="#F39" stroke="#F39" stroke-width="2" stroke-linecap="round" stroke-linejoin="round" d="M43.35 11.45l1.15-6.3-5.7 3-.5-6.35-4.7 4.3L31.5 0l-3.55 5.4-3.5-5.4-2.05 6.1-4.75-4.3-.5 6.35-5.65-3 1.1 6.3-6.25-1.5L9 15.8l-6.4.1 4 5-6.15 1.7 5.05 3.85-5.5 3.2 5.9 2.4-4.6 4.45 6.35.95L4.3 42.9l6.35-.7-1.9 6.1 6-2.25-.3 6.4 5.25-3.65 1.3 6.25 4.15-4.85 2.8 5.7 2.85-5.7 4.15 4.85 1.3-6.25 5.25 3.65-.3-6.4 6 2.25-1.9-6.1 6.4.7-3.35-5.45 6.3-.9-4.6-4.5 5.95-2.4-5.55-3.2 5.1-3.85-6.15-1.7 3.95-5-6.4-.1 2.65-5.85-6.25 1.5"/></g><g display="none"><g transform="matrix(-.171 -.067 -.067 .171 62.25 58.8)"><animateTransform attributeName="transform" additive="replace" type="translate" dur="0.583s" keyTimes="0;0.286;0.357;0.429;0.5;0.572;0.643;0.715;0.786;0.858;1" values="59.704,60.844;59.704,60.844;58.876,61.706;58.087,62.45;57.192,63.369;56.447,64.161;55.677,64.852;55.665,65.016;55.801,64.899;55.772,64.94;55.772,64.94" calcMode="discrete" fill="freeze"/><animateTransform attributeName="transform" additive="sum" type="rotate" dur="0.583s" keyTimes="0;0.286;0.357;0.429;0.5;0.572;0.643;0.715;0.786;0.858;1" values="21.354,0,0;21.354,0,0;24.055,0,0;26.811,0,0;29.569,0,0;32.326,0,0;35.084,0,0;35.083,0,0;35.084,0,0;35.085,0,0;35.085,0,0" calcMode="discrete" fill="freeze"/><animateTransform attributeName="transform" additive="sum" type="skewY" dur="0.583s" keyTimes="0;1" values="-180;-180" calcMode="discrete" fill="freeze"/><animateTransform attributeName="transform" additive="sum" type="scale" dur="0.583s" keyTimes="0;0.286;0.357;0.429;0.5;0.572;0.643;0.715;0.786;0.858;1" values="-0.184,0.184;-0.184,0.184;-0.492,0.492;-0.801,0.801;-1.11,1.11;-1.419,1.419;-1.73,1.73;-1.65,1.65;-1.573,1.573;-1.497,1.497;-1.497,1.497" calcMode="discrete" fill="freeze"/><animateTransform attributeName="transform" additive="sum" type="translate" dur="0.583s" keyTimes="0;0.286;0.357;0.429;0.5;0.572;0.643;0.715;0.786;0.858;1" values="-8.85,-15.4;-8.85,-15.4;-8.9,-15.55;-8.85,-15.45;-8.85,-15.45;-8.9,-15.4;-8.8,-15.4;-8.8,-15.45;-8.8,-15.35;-8.75,-15.4;-8.75,-15.4" calcMode="discrete" fill="freeze"/><path fill="none" stroke="#999" stroke-width="5" stroke-linecap="round" stroke-linejoin="round" d="M8.75 11.4v18.5"/><path fill="#6CF" stroke="#999" stroke-width="3" stroke-linecap="round" stroke-linejoin="round" d="M8.75 17.5q3.6 0 6.15-2.6 2.6-2.55 2.6-6.15 0-3.6-2.6-6.2Q12.35 0 8.75 0q-3.6 0-6.2 2.55Q0 5.15 0 8.75t2.55 6.15q2.6 2.6 6.2 2.6"/><path fill="none" stroke="#FFF" stroke-width="2" stroke-linecap="round" stroke-linejoin="round" d="M11.8 5.3q.5.45.9 1.05.75 1.3.7 2.7m-4.35-5.1l.5.1"/></g><animate attributeName="display" fill="freeze" repeatCount="1" dur="0.583s" keyTimes="0;0.286;1" values="none;inline;inline"/></g><g display="none"><use xlink:href="#a" transform="matrix(.233 0 0 .233 77.5 37.2)"><animateTransform attributeName="transform" additive="replace" type="translate" dur="0.583s" keyTimes="0;0.572;0.643;0.715;0.786;0.858;0.927;0.929;1" values="79.202,39.101;79.202,39.101;78.816,38.035;78.33,36.966;77.943,35.923;77.493,34.823;77.493,34.823;77.5,34.8;77.5,34.8" calcMode="discrete" fill="freeze"/><animateTransform attributeName="transform" additive="sum" type="scale" dur="0.583s" keyTimes="0;0.572;0.643;0.715;0.786;0.858;0.927;0.929;1" values="0.233,0.233;0.233,0.233;0.461,0.461;0.689,0.689;0.917,0.917;1.145,1.145;1.145,1.145;1,1;1,1" calcMode="discrete" fill="freeze"/><animateTransform attributeName="transform" additive="sum" type="translate" dur="0.583s" keyTimes="0;0.572;0.643;0.715;0.786;0.858;1" values="-7.3,-8.15;-7.3,-8.15;-7.3,-8.1;-7.3,-8.15;-7.3,-8.15;-7.2,-8.1;-7.2,-8.1" calcMode="discrete" fill="freeze"/></use><animate attributeName="display" fill="freeze" repeatCount="1" dur="0.583s" keyTimes="0;0.571;1" values="none;inline;inline"/></g><g display="none"><use xlink:href="#a" transform="matrix(.11 0 0 .11 80.35 41.25)"><animateTransform attributeName="transform" additive="replace" type="translate" dur="0.583s" keyTimes="0;0.572;0.643;0.715;0.786;0.858;0.927;0.929;1" values="81.149,42.148;81.149,42.148;82.345,43.553;83.541,45;84.687,46.398;85.902,47.815;85.902,47.815;85.9,47.799;85.9,47.799" calcMode="discrete" fill="freeze"/><animateTransform attributeName="transform" additive="sum" type="scale" dur="0.583s" keyTimes="0;0.572;0.643;0.715;0.786;0.858;0.927;0.929;1" values="0.11,0.11;0.11,0.11;0.244,0.244;0.378,0.378;0.512,0.512;0.646,0.646;0.646,0.646;0.472,0.472;0.472,0.472" calcMode="discrete" fill="freeze"/><animateTransform attributeName="transform" additive="sum" type="translate" dur="0.583s" keyTimes="0;0.572;0.643;0.715;0.786;0.858;1" values="-7.25,-8.15;-7.25,-8.15;-7.15,-8;-7.25,-8.2;-7.2,-8.1;-7.2,-8.15;-7.2,-8.15" calcMode="discrete" fill="freeze"/></use><animate attributeName="display" fill="freeze" repeatCount="1" dur="0.583s" keyTimes="0;0.571;1" values="none;inline;inline"/></g><g display="none"><use xlink:href="#a" transform="matrix(.156 0 0 .156 81.2 36.75)"><animateTransform attributeName="transform" additive="replace" type="translate" dur="0.583s" keyTimes="0;0.572;0.643;0.715;0.786;0.858;0.927;0.929;1" values="82.304,38.049;82.304,38.049;84.454,36.101;86.602,34.112;88.702,32.172;90.837,30.254;90.837,30.254;90.853,30.236;90.853,30.236" calcMode="discrete" fill="freeze"/><animateTransform attributeName="transform" additive="sum" type="scale" dur="0.583s" keyTimes="0;0.572;0.643;0.715;0.786;0.858;0.927;0.929;1" values="0.156,0.156;0.156,0.156;0.332,0.332;0.507,0.507;0.683,0.683;0.859,0.859;0.859,0.859;0.667,0.667;0.667,0.667" calcMode="discrete" fill="freeze"/><animateTransform attributeName="transform" additive="sum" type="translate" dur="0.583s" keyTimes="0;0.572;0.643;0.715;0.786;0.858;1" values="-7.1,-8.35;-7.1,-8.35;-7.1,-8.45;-7,-8.3;-7.1,-8.3;-7.2,-8.15;-7.2,-8.15" calcMode="discrete" fill="freeze"/></use><animate attributeName="display" fill="freeze" repeatCount="1" dur="0.583s" keyTimes="0;0.571;1" values="none;inline;inline"/></g></svg>